<?xml version="1.0" standalone="no"?>
<!DOCTYPE svg PUBLIC "-//W3C//DTD SVG 1.1//EN" "http://www.w3.org/Graphics/SVG/1.1/DTD/svg11.dtd" >
<svg>
<metadata>
Created by FontForge 20090914 at Tue Jul 13 07:16:26 2021
 By www-data
Copyright &#194;&#169; 1992-2011 by Apple Inc. All rights reserved.
</metadata>
<defs>
<font id="Thonburi" horiz-adv-x="1706" >
  <font-face 
    font-family="Thonburi"
    font-weight="400"
    font-stretch="normal"
    units-per-em="2560"
    panose-1="0 0 4 0 0 0 0 0 0 0"
    ascent="2048"
    descent="-512"
    x-height="1396"
    cap-height="1940"
    bbox="-1760 -1141 3537 3068"
    underline-thickness="156"
    underline-position="-6"
    unicode-range="U+0008-U+FEFF"
  />
<missing-glyph horiz-adv-x="1280" 
d="M160 0v2429h960v-2429h-960zM320 160h640v2109h-640v-2109z" />
    <glyph glyph-name="fi" unicode="fi" horiz-adv-x="1533" 
d="M524 0l-233 0.000976562v1203h-203v193h203v65c0 202.667 42.833 346.167 128.5 430.5s197.167 126.5 334.5 126.5c51.333 0 116.666 -6 195.999 -18v-190c-64.667 8.66699 -116.667 13 -156 13c-75.333 0 -139.166 -18.333 -191.499 -55s-78.5 -124.334 -78.5 -263.001
v-109h824v-1396h-233v1203h-591v-1203z" />
    <glyph glyph-name="fl" unicode="fl" horiz-adv-x="1533" 
d="M291 1396l0.000976562 62c0 118.667 17.833 218.667 53.5 300s91.167 145 166.5 191s181.666 69 318.999 69c154 0 326.667 -15 518 -45v-1973h-233v1780c-120 28.667 -218.333 43 -295 43c-98 0 -171.833 -26.667 -221.5 -80s-74.5 -133.333 -74.5 -240v-107h407v-193
h-407v-1203h-233v1203h-203v193h203z" />
    <glyph glyph-name=".notdef" horiz-adv-x="1280" 
d="M160 0v2429h960v-2429h-960zM320 160h640v2109h-640v-2109z" />
    <glyph glyph-name=".null" horiz-adv-x="0" 
 />
    <glyph glyph-name=".null" horiz-adv-x="0" 
 />
    <glyph glyph-name=".null" horiz-adv-x="0" 
 />
    <glyph glyph-name="nonmarkingreturn" unicode="&#x9;" horiz-adv-x="315" 
 />
    <glyph glyph-name="nonmarkingreturn" unicode="&#xd;" horiz-adv-x="315" 
 />
    <glyph glyph-name="space" unicode=" " horiz-adv-x="850" 
 />
    <glyph glyph-name="exclam" unicode="!" horiz-adv-x="776" 
d="M506 0h-233v233h233v-233zM486 485h-191l-62 1455h310z" />
    <glyph glyph-name="quotedbl" unicode="&#x22;" horiz-adv-x="1280" 
d="M454 1241h-160l-61 777h272zM993 1241h-159l-53 777h267z" />
    <glyph glyph-name="numbersign" unicode="#" 
d="M360 0h-184l137 514h-235v175h282l140 532h-422v175h473l147 544h180l-144 -544h472l147 544h186l-150 -544h240v-175h-291l-142 -532h433v-175h-476l-140 -514h-185l141 514h-469zM548 689h470l143 532h-472z" />
    <glyph glyph-name="dollar" unicode="$" 
d="M979 -194h-194.001v194c-230.667 13.333 -387.667 68 -471 164s-125 202.333 -125 319v12h252v-12c0 -75.333 21.5 -137 64.5 -185s136.167 -80.667 279.5 -98v673l-77 30c-179.333 72 -299.5 147.833 -360.5 227.5s-91.5 175.5 -91.5 287.5c0 88 19 168.5 57 241.5
s93.833 133.167 167.5 180.5s175.167 79 304.5 95v199h194v-199c184.667 -13.333 309.167 -57.5 373.5 -132.5s96.5 -154.5 96.5 -238.5v-13h-251v13c0 46 -18.667 83.667 -56 113s-91.666 50 -162.999 62v-684l106 -37c84 -32.667 160.5 -72.5 229.5 -119.5
s116.833 -100.833 143.5 -161.5s40 -123.667 40 -189c0 -82 -19.167 -162.5 -57.5 -241.5s-93 -145.167 -164 -198.5s-170.167 -89.333 -297.5 -108v-194zM784.999 1126l-0.000976562 615.001c-101.333 -17.333 -174.333 -55.833 -219 -115.5s-67 -126.834 -67 -201.501
c0 -60.667 16.833 -112.167 50.5 -154.5s95.834 -83.833 186.501 -124.5zM978.998 803.001l-0.000976562 -597.001c74.667 9.33301 129.834 28.333 165.501 57s63 65.5 82 110.5s28.5 91.833 28.5 140.5c0 60.667 -16.5 111.834 -49.5 153.501s-88.5 79.167 -166.5 112.5z
" />
    <glyph glyph-name="percent" unicode="%" horiz-adv-x="2318" 
d="M78 1358c0 178 41.833 319.5 125.5 424.5s187.167 157.5 310.5 157.5s226.833 -52.5 310.5 -157.5s125.5 -246.5 125.5 -424.5c0 -178.667 -41.833 -320.334 -125.5 -425.001s-187.167 -157 -310.5 -157s-226.833 52.333 -310.5 157s-125.5 246.334 -125.5 425.001z
M291 1358c0 -118 20.335 -215.5 61.002 -292.5s94.667 -115.5 162 -115.5c66 0 119.833 38.5 161.5 115.5s62.5 174.5 62.5 292.5c0 117.333 -20.833 214.5 -62.5 291.5s-95.834 115.5 -162.501 115.5s-120.334 -38.5 -161.001 -115.5s-61 -174.167 -61 -291.5zM344.002 0
l1379 1940h221l-1358 -1940h-242zM1368 581c0 178.667 41.833 320.5 125.5 425.5s187.167 157.5 310.5 157.5s226.833 -52.333 310.5 -157s125.5 -246.667 125.5 -426c0 -178 -41.833 -319.333 -125.5 -424s-187.167 -157 -310.5 -157s-226.833 52.333 -310.5 157
s-125.5 246 -125.5 424zM1580 581c0 -118 20.667 -215.167 62 -291.5s95.333 -114.5 162 -114.5s120.334 38.167 161.001 114.5s61 173.5 61 291.5s-20.333 215.5 -61 292.5s-94.334 115.5 -161.001 115.5s-120.667 -38.5 -162 -115.5s-62 -174.5 -62 -292.5z" />
    <glyph glyph-name="ampersand" unicode="&#x26;" horiz-adv-x="1861" 
d="M1259 158c-83.333 -75.333 -167.168 -130.334 -251.501 -165.001s-177.166 -52 -278.499 -52c-127.333 0 -237.5 26.167 -330.5 78.5s-166.333 125.166 -220 218.499s-80.5 192.333 -80.5 297c0 132.667 43.5 257.667 130.5 375s198.833 211 335.5 281l-20 33
c-56.667 89.333 -93 151.833 -109 187.5s-27.667 69.167 -35 100.5s-11 61 -11 89c0 66 20 131.5 60 196.5s94.167 114.667 162.5 149s146.166 51.5 233.499 51.5c126 0 225.167 -33.167 297.5 -99.5s108.5 -144.166 108.5 -233.499c0 -101.333 -35.5 -200.333 -106.5 -297
s-161.5 -176.667 -271.5 -240c140 -240 282.333 -452.667 427 -638c42.667 62.667 74.334 131.667 95.001 207s31 185.666 31 330.999v68h233v-30c0 -293.333 -77.667 -538.333 -233 -735c66.667 -83.333 170 -193.666 310 -330.999h-337
c-30.667 30.667 -61.667 64.334 -93 101.001zM772.998 1303c87.333 48.667 153.331 105.498 197.998 170.498s67 121.833 67 170.5c0 26.667 -8.66699 54.334 -26 83.001s-43.166 50.667 -77.499 66s-67.833 23 -100.5 23c-65.333 0 -114.333 -21.667 -147 -65
s-49 -87.333 -49 -132c0 -22.667 3.5 -47.5 10.5 -74.5s15.833 -53.167 26.5 -78.5s35.334 -67.666 74.001 -126.999zM663.996 1024c-102.667 -53.333 -182.333 -123.834 -239 -211.501s-85 -177.167 -85 -268.5c0 -75.333 18.167 -144.166 54.5 -206.499
s89 -111.5 158 -147.5s136.167 -54 201.5 -54c44.667 0 97 9.66699 157 29s136.333 68 229 146c-56.667 70 -132 173 -226 309s-177.333 270.667 -250 404z" />
    <glyph glyph-name="quotesingle" unicode="'" horiz-adv-x="776" 
d="M474 1241h-168l-92 777h349z" />
    <glyph glyph-name="parenleft" unicode="(" horiz-adv-x="1144" 
d="M979 2056c-145.333 -153.333 -249.666 -291.831 -312.999 -415.498s-111.833 -259.167 -145.5 -406.5s-50.5 -293.666 -50.5 -438.999c0 -144.667 16.833 -290.834 50.5 -438.501s82.167 -283.334 145.5 -407.001s167.666 -261.834 312.999 -414.501h-194
c-107.333 93.333 -207.5 212.5 -300.5 357.5s-159.833 294.167 -200.5 447.5s-61 305 -61 455s20.333 301.667 61 455s107.5 302.5 200.5 447.5s193.167 264.5 300.5 358.5h194z" />
    <glyph glyph-name="parenright" unicode=")" horiz-adv-x="1144" 
d="M165 -465c145.333 152.667 249.666 290.833 312.999 414.5s111.833 259.334 145.5 407.001s50.5 293.834 50.5 438.501c0 145.333 -16.833 291.666 -50.5 438.999s-82.167 283.166 -145.5 407.499s-167.666 262.5 -312.999 414.5h194
c107.333 -94 207.5 -213.5 300.5 -358.5s159.833 -294.167 200.5 -447.5s61 -305 61 -455s-20.333 -301.667 -61 -455s-107.5 -302.5 -200.5 -447.5s-193.167 -264.167 -300.5 -357.5h-194z" />
    <glyph glyph-name="asterisk" unicode="*" horiz-adv-x="1300" 
d="M649 1326l-223 -395l-158 107l252 385l-422 85l50 185l425 -128l-22 433h195l-21 -433l425 128l50 -185l-422 -85l252 -385l-159 -107z" />
    <glyph glyph-name="plus" unicode="+" 
d="M1551 795v-194h-601v-601h-194v601h-601v194h601v601h194v-601h601z" />
    <glyph glyph-name="comma" unicode="," horiz-adv-x="776" 
d="M223 -465l-0.000976562 149.999c40 23.333 70.5 51.833 91.5 85.5s37 68.834 48 105.501s16.5 78 16.5 124h-156v330h330v-205c0 -123.333 -12 -217.333 -36 -282s-60.167 -124 -108.5 -178s-110.166 -97.333 -185.499 -130z" />
    <glyph glyph-name="hyphen" unicode="-" horiz-adv-x="970" 
d="M98 689v194h776v-194h-776z" />
    <glyph glyph-name="period" unicode="." horiz-adv-x="776" 
d="M553 0h-330v330h330v-330z" />
    <glyph glyph-name="slash" unicode="/" horiz-adv-x="1378" 
d="M281 -59h-222l1042 2057h218z" />
    <glyph glyph-name="zero" unicode="0" 
d="M853 -59c-211.333 0 -382.166 92.333 -512.499 277s-195.5 435.334 -195.5 752.001s65.167 567.167 195.5 751.5s301.166 276.5 512.499 276.5s382.166 -92.167 512.499 -276.5s195.5 -434.833 195.5 -751.5s-65.167 -567.334 -195.5 -752.001
s-301.166 -277 -512.499 -277zM853 136c164 0 282.667 84.5 356 253.5s110 362.5 110 580.5c0 217.333 -36.667 410.666 -110 579.999s-192 254 -356 254c-163.333 0 -281.666 -84.667 -354.999 -254s-110 -362.666 -110 -579.999c0 -218 36.667 -411.5 110 -580.5
s191.666 -253.5 354.999 -253.5z" />
    <glyph glyph-name="one" unicode="1" 
d="M771 0v1699l-392 -156v216l392 181h233v-1940h-233z" />
    <glyph glyph-name="two" unicode="2" 
d="M223 0l0.00195312 200.996c0 105.333 32.5 219.833 97.5 343.5s174.167 244.834 327.5 363.501l131 101c174.667 134.667 286 235.334 334 302.001c46.667 66.667 70 136.334 70 209.001c0 74 -31.333 139.833 -94 197.5s-152.667 86.5 -270 86.5
c-106.667 0 -185.834 -20.667 -237.501 -62s-77.5 -87.666 -77.5 -138.999v-13h-233v13c0 68 23.167 132.5 69.5 193.5s108.833 109.833 187.5 146.5s178 55 298 55c219.333 0 375.666 -46.5 468.999 -139.5s140 -204.5 140 -334.5c0 -69.333 -14.5 -139 -43.5 -209
s-86.667 -143.167 -173 -219.5s-156.5 -133.166 -210.5 -170.499l-95 -65c-298.667 -204.667 -448 -404.334 -448 -599.001v-47h1009v-214h-1251z" />
    <glyph glyph-name="three" unicode="3" 
d="M495 970l0.00585938 194.001h145c113.333 0 202.166 17.833 266.499 53.5s115.166 80.5 152.499 134.5s56 114.333 56 181c0 84 -30.833 150.167 -92.5 198.5s-143.167 72.5 -244.5 72.5c-58.667 0 -113.334 -7.5 -164.001 -22.5s-89.667 -40.5 -117 -76.5
s-41 -73.333 -41 -112v-13h-222v13c0 101.333 42.833 194.166 128.5 278.499s228.167 126.5 427.5 126.5c189.333 0 331.5 -40.5 426.5 -121.5s142.5 -185.167 142.5 -312.5c0 -70 -13.833 -135.167 -41.5 -195.5s-68.334 -114.333 -122.001 -162
s-130.834 -86.167 -231.501 -115.5c157.333 -44.667 275.166 -111.334 353.499 -200.001s117.5 -199.334 117.5 -332.001c0 -156 -54.833 -298 -164.5 -426s-275.5 -192 -497.5 -192c-194.667 0 -336.5 41.5 -425.5 124.5s-133.5 176.5 -133.5 280.5v13h232v-13
c0 -70 32.833 -122.5 98.5 -157.5s149.5 -52.5 251.5 -52.5c80 0 150.5 14.833 211.5 44.5s107.333 77.834 139 144.501s47.5 139.334 47.5 218.001c0 120.667 -47.667 222 -143 304s-241.333 123 -438 123h-118z" />
    <glyph glyph-name="four" unicode="4" 
d="M1300 0h-232v591h-932v194l932 1155h232v-1155h271v-194h-271v-591zM1068 785v848l-675 -848h675z" />
    <glyph glyph-name="five" unicode="5" 
d="M379 999l0.000976562 941h999v-214h-785v-523h58c201.333 0 357 -24.833 467 -74.5s193.667 -119.334 251 -209.001s86 -198.167 86 -325.5c0 -169.333 -52.5 -320.5 -157.5 -453.5s-264.833 -199.5 -479.5 -199.5c-171.333 0 -308.333 37.833 -411 113.5
s-154 166.834 -154 273.501v12h232v-12c0 -56 29.667 -102.167 89 -138.5s139.333 -54.5 240 -54.5c136 0 236.5 44 301.5 132s97.5 186.667 97.5 296c0 123.333 -43.333 226.833 -130 310.5s-262.334 125.5 -527.001 125.5h-177z" />
    <glyph glyph-name="six" unicode="6" 
d="M460 905c56.667 74 112.499 129.834 167.499 167.501s110 65.5 165 83.5s114.5 27 178.5 27c166.667 0 300.334 -59.5 401.001 -178.5s151 -262.833 151 -431.5c0 -118.667 -26.167 -226.334 -78.5 -323.001s-124.833 -172.334 -217.5 -227.001s-194 -82 -304 -82
c-128 0 -248 37.833 -360 113.5s-196.667 189.334 -254 341.001s-86 339.167 -86 562.5c0 316.667 64.667 569.167 194 757.5s315.333 282.5 558 282.5c165.333 0 289.833 -36.333 373.5 -109s125.5 -155.334 125.5 -248.001v-12h-233v12c0 40 -21.833 77.167 -65.5 111.5
s-109.167 51.5 -196.5 51.5c-102.667 0 -192.667 -30.833 -270 -92.5s-138.333 -162.667 -183 -303s-67 -285.166 -67 -434.499zM922.999 136.001c101.333 0 186.166 42.334 254.499 127.001s102.5 190.334 102.5 317.001c0 126 -36 225.667 -108 299s-159.667 110 -263 110
c-114 0 -206.833 -41.833 -278.5 -125.5s-107.5 -183.5 -107.5 -299.5c0 -76.667 17.667 -149.334 53 -218.001s83.833 -120.834 145.5 -156.501s128.834 -53.5 201.501 -53.5z" />
    <glyph glyph-name="seven" unicode="7" 
d="M698 0h-252v84c0 136 19.5 273.333 58.5 412s140.333 329.5 304 572.5l415.5 597.5l44 60h-1074v214h1309v-214c-19.333 -28 -30.333 -43.667 -33 -47l-179 -240c-112 -152 -227.5 -336.667 -346.5 -554s-189.833 -382.333 -212.5 -495s-34 -210.667 -34 -294v-96z" />
    <glyph glyph-name="eight" unicode="8" 
d="M1518 529c0 -100.667 -27.502 -199.333 -82.502 -296s-129.5 -169.5 -223.5 -218.5s-213.667 -73.5 -359 -73.5s-264.833 24.5 -358.5 73.5s-168 121.833 -223 218.5s-82.5 195.334 -82.5 296.001c0 107.333 31 210.166 93 308.499s156.333 175.833 283 232.5
c-99.333 49.333 -174 109.833 -224 181.5s-75 154.167 -75 247.5c0 90.667 24.833 176 74.5 256s121.834 140.5 216.501 181.5s193.334 61.5 296.001 61.5c103.333 0 202.166 -20.667 296.499 -62s166.333 -101.833 216 -181.5s74.5 -164.834 74.5 -255.501
c0 -93.333 -25 -175.833 -75 -247.5s-125 -132.167 -225 -181.5c126.667 -56.667 221.334 -134.167 284.001 -232.5s94 -201.166 94 -308.499zM852.998 1164c100 0 182.501 32 247.501 96s97.5 139.333 97.5 226c0 95.333 -34.833 172.166 -104.5 230.499
s-149.834 87.5 -240.501 87.5c-90 0 -169.833 -29.167 -239.5 -87.5s-104.5 -135.166 -104.5 -230.499c0 -86.667 32.333 -162 97 -226s147 -96 247 -96zM852.999 970.001c-73.333 0 -142.833 -18.333 -208.5 -55s-117.667 -89.5 -156 -158.5s-57.5 -139.833 -57.5 -212.5
c0 -70 18.167 -138.333 54.5 -205s88 -117.167 155 -151.5s137.833 -51.5 212.5 -51.5s145.5 17.167 212.5 51.5s118.667 84.833 155 151.5s54.5 135 54.5 205c0 72.667 -19.167 143.5 -57.5 212.5s-90.333 121.833 -156 158.5s-135.167 55 -208.5 55z" />
    <glyph glyph-name="nine" unicode="9" 
d="M1246 1034c-56.667 -74 -112.665 -129.667 -167.998 -167s-110.5 -65.166 -165.5 -83.499s-114.167 -27.5 -177.5 -27.5c-167.333 0 -301 59.667 -401 179s-150 263 -150 431c0 119.333 26 227.166 78 323.499s124.5 171.833 217.5 226.5s194.5 82 304.5 82
c127.333 0 247 -37.833 359 -113.5s196.833 -189 254.5 -340s86.5 -338.167 86.5 -561.5c0 -318 -65 -571.167 -195 -759.5s-316.333 -282.5 -559 -282.5c-164.667 0 -288.667 36.333 -372 109s-125 155.334 -125 248.001v12h232v-12c0 -39.333 21.667 -76.333 65 -111
s108.666 -52 195.999 -52c103.333 0 193.666 30.833 270.999 92.5s138.5 162.667 183.5 303s67.5 285.166 67.5 434.499zM783.002 1804c-101.333 0 -186.166 -42.3301 -254.499 -126.997s-102.5 -190.334 -102.5 -317.001s36.167 -226.667 108.5 -300
s160.166 -110 263.499 -110c113.333 0 205.833 42.167 277.5 126.5s107.5 184.166 107.5 299.499c0 76 -17.5 148.667 -52.5 218s-83.667 121.666 -146 156.999s-129.5 53 -201.5 53z" />
    <glyph glyph-name="colon" unicode=":" horiz-adv-x="776" 
d="M553 0h-330v330h330v-330zM553 1066h-330v330h330v-330z" />
    <glyph glyph-name="semicolon" unicode=";" horiz-adv-x="776" 
d="M223 -465l-0.000976562 149.999c40 23.333 70.5 51.833 91.5 85.5s37 68.834 48 105.501s16.5 78 16.5 124h-156v330h330v-205c0 -123.333 -12 -217.333 -36 -282s-60.167 -124 -108.5 -178s-110.166 -97.333 -185.499 -130zM552.999 1066h-330v330h330v-330z" />
    <glyph glyph-name="less" unicode="&#x3c;" 
d="M1551 1396v-216l-962 -486l962 -478v-216l-1396 694z" />
    <glyph glyph-name="equal" unicode="=" 
d="M1551 1009v-194h-1396v194h1396zM1551 581v-193h-1396v193h1396z" />
    <glyph glyph-name="greater" unicode="&#x3e;" 
d="M155 0v223l963 486l-963 477v210l1396 -687z" />
    <glyph glyph-name="question" unicode="?" horiz-adv-x="1455" 
d="M736 495l-232.001 0.000976562v118c0 135.333 21.5 246.166 64.5 332.499s88.833 155.833 137.5 208.5l98 106c64 70 109.333 126.667 136 170s40 86 40 128c0 70.667 -31.833 129.334 -95.5 176.001s-142.167 70 -235.5 70c-78.667 0 -140.167 -14.667 -184.5 -44
s-66.5 -75 -66.5 -137v-13h-243v13c0 58 22.167 117.667 66.5 179s107 109.333 188 144s169.167 52 264.5 52c100 0 193.333 -19.167 280 -57.5s153.167 -90.333 199.5 -156s69.5 -135.167 69.5 -208.5c0 -40 -9.66699 -90.333 -29 -151s-76.333 -135.334 -171 -224.001
l-89 -82c-57.333 -54 -104.666 -111 -141.999 -171s-56 -154.333 -56 -283v-170zM735.999 0.000976562h-232v233h232v-233z" />
    <glyph glyph-name="at" unicode="@" horiz-adv-x="2230" 
d="M1576 253v-195.001c-147.333 -78 -302.666 -117 -465.999 -117c-178 0 -342 43.333 -492 130s-264.667 211.5 -344 374.5s-119 338.167 -119 525.5c0 188.667 39.667 363.334 119 524.001s192.5 284.667 339.5 372s324.5 131 532.5 131
c193.333 0 358.333 -38.667 495 -116s243.167 -183 319.5 -317s114.5 -282.333 114.5 -445c0 -117.333 -21.167 -220.666 -63.5 -309.999s-100.833 -159.333 -175.5 -210s-155.667 -76 -243 -76c-74.667 0 -142.834 19.167 -204.501 57.5s-99.167 101.5 -112.5 189.5
c-45.333 -70 -97.5 -125.5 -156.5 -166.5s-117.833 -61.5 -176.5 -61.5c-62 0 -121.167 18.5 -177.5 55.5s-98.333 87.333 -126 151s-41.5 133.167 -41.5 208.5c0 97.333 24.5 193.333 73.5 288s113.667 162.834 194 204.501s200.5 62.5 360.5 62.5h244v-543
c0 -114.667 15.833 -191.834 47.5 -231.501s72.167 -59.5 121.5 -59.5c72.667 0 137 37.667 193 113s84 177.666 84 306.999c0 146.667 -33.333 276.167 -100 388.5s-160.5 199.666 -281.5 261.999s-252.833 93.5 -395.5 93.5c-153.333 0 -294 -35 -422 -105
s-225.333 -173 -292 -309s-100 -283.667 -100 -443c0 -154.667 31.667 -305.167 95 -451.5s161 -255.666 293 -327.999s263.667 -108.5 395 -108.5c156.667 0 312.667 51.667 468 155zM1276 1358l-78.002 0.000976562c-70 0 -122.167 -4.83301 -156.5 -14.5
s-65.166 -25.834 -92.499 -48.501c-49.333 -39.333 -84.833 -87.333 -106.5 -144s-32.5 -121 -32.5 -193c0 -81.333 15.833 -138.333 47.5 -171s65.834 -49 102.501 -49c42 0 86.333 16 133 48s107.667 104.333 183 217v355z" />
    <glyph glyph-name="A" unicode="A" horiz-adv-x="1861" 
d="M273 0h-234l795 1940h255l734 -1940h-273l-201 534h-856zM569 728h705l-340 901z" />
    <glyph glyph-name="B" unicode="B" horiz-adv-x="1629" 
d="M1056 1020c153.333 -37.333 264.497 -100.331 333.497 -188.998s103.5 -189 103.5 -301c0 -92.667 -23.833 -179.834 -71.5 -261.501s-115.167 -146.834 -202.5 -195.501s-238.666 -73 -453.999 -73h-581v1940h515c234.667 0 392.334 -16.833 473.001 -50.5
s141.334 -83.5 182.001 -149.5s61 -139 61 -219c0 -88.667 -25.833 -177 -77.5 -265s-145.5 -166.667 -281.5 -236zM435.997 1096l243 0.000976562c124.667 0 218.167 16.667 280.5 50s112 81.166 149 143.499s55.5 126.166 55.5 191.499c0 72.667 -29 134.834 -87 186.501
s-162.333 77.5 -313 77.5h-328v-649zM435.997 194.003l357 0.000976562c168 0 283 31.5 345 94.5s93 137.167 93 222.5c0 69.333 -20 133.166 -60 191.499s-99.333 106 -178 143s-201.667 55.5 -369 55.5h-188v-707z" />
    <glyph glyph-name="C" unicode="C" horiz-adv-x="1668" 
d="M1338 418l233.001 -0.000976562v-13c0 -76.667 -26.333 -154.5 -79 -233.5s-124.5 -137.167 -215.5 -174.5s-197.833 -56 -320.5 -56c-246.667 0 -448.334 85.833 -605.001 257.5s-235 428.834 -235 771.501c0 340.667 78 597.334 234 770.001s358.667 259 608 259
c121.333 0 227.5 -18.5 318.5 -55.5s162.833 -95.833 215.5 -176.5s79 -158 79 -232v-12h-233v12c0 47.333 -14.833 93 -44.5 137s-72.167 77 -127.5 99s-122 33 -200 33c-198 0 -345.5 -78.333 -442.5 -235s-145.5 -356.334 -145.5 -599.001
c0 -244.667 48.667 -445 146 -601s244.333 -234 441 -234c135.333 0 231.333 28 288 84s85 118 85 186v13z" />
    <glyph glyph-name="D" unicode="D" horiz-adv-x="1794" 
d="M184 0l-0.000976562 1940h536c260.667 0 451.5 -35.333 572.5 -106s215.5 -178.834 283.5 -324.501s102 -322.834 102 -531.501c0 -196 -30.667 -365.833 -92 -509.5s-154.166 -257.667 -278.499 -342s-308.5 -126.5 -552.5 -126.5h-571zM435.999 214.002
l298.002 0.000976562c177.333 0 311.166 26 401.499 78s159.5 133.667 207.5 245s72 251 72 419c0 168.667 -21.833 313.667 -65.5 435s-110.334 210.666 -200.001 267.999s-230.167 86 -421.5 86h-292v-1531z" />
    <glyph glyph-name="E" unicode="E" horiz-adv-x="1474" 
d="M184 0v1940h1096v-214h-844v-611h737v-194h-737v-707h912v-214h-1164z" />
    <glyph glyph-name="F" unicode="F" horiz-adv-x="1416" 
d="M184 0v1940h1096v-214h-844v-668h737v-195h-737v-863h-252z" />
    <glyph glyph-name="G" unicode="G" horiz-adv-x="1726" 
d="M1571 89c-205.333 -98.667 -401.334 -147.999 -588.001 -147.999c-194.667 0 -352 38.667 -472 116s-215.833 188.5 -287.5 333.5s-107.5 330.833 -107.5 557.5c0 255.333 34 453.833 102 595.5s163.667 252.834 287 333.501s269.666 121 438.999 121
c116 0 221.5 -18.333 316.5 -55s170.5 -92.334 226.5 -167.001s84 -148.667 84 -222v-13h-233v13c0 44.667 -17.333 86.5 -52 125.5s-80.167 69.5 -136.5 91.5s-120.166 33 -191.499 33c-188.667 0 -332.5 -73.833 -431.5 -221.5s-148.5 -350.834 -148.5 -609.501
s50.833 -463 152.5 -613s244.834 -225 429.501 -225c108.667 0 234.667 26 378 78v553h-437v194h670v-871z" />
    <glyph glyph-name="H" unicode="H" horiz-adv-x="1765" 
d="M436 0h-252v1940h252v-864h892v864h252v-1940h-252v883h-892v-883z" />
    <glyph glyph-name="I" unicode="I" horiz-adv-x="620" 
d="M436 0h-252v1940h252v-1940z" />
    <glyph glyph-name="J" unicode="J" horiz-adv-x="1260" 
d="M49 330l252.002 -0.000976562v-12c0 -36 9.66699 -68.167 29 -96.5s49.166 -49.666 89.499 -63.999s85.166 -21.5 134.499 -21.5c51.333 0 99.333 12 144 36s77 60.667 97 110s30 158.333 30 327v1331h251v-1336c0 -212 -22.667 -356.833 -68 -434.5
s-101.333 -135.167 -168 -172.5s-157.334 -56 -272.001 -56c-189.333 0 -323.166 39.167 -401.499 117.5s-117.5 164.833 -117.5 259.5v12z" />
    <glyph glyph-name="K" unicode="K" horiz-adv-x="1698" 
d="M436 0h-252v1940h252v-926l810 926h288l-801 -910l925 -1030h-317l-905 1014v-1014z" />
    <glyph glyph-name="L" unicode="L" horiz-adv-x="1494" 
d="M184 0v1940h252v-1726h1018v-214h-1270z" />
    <glyph glyph-name="M" unicode="M" horiz-adv-x="2018" 
d="M398 0h-214v1940h247l603 -1386l554 1386h245v-1940h-224v1156l6 347h-6l-125 -348l-344 -864h-254l-373 868l-115 315h-7l7 -315v-1159z" />
    <glyph glyph-name="N" unicode="N" horiz-adv-x="1814" 
d="M416 0h-232v1940h250l886 -1379l81 -153l-5 152v1380h233v-1940h-248l-888 1385l-82 156l5 -156v-1385z" />
    <glyph glyph-name="O" unicode="O" horiz-adv-x="1881" 
d="M940 -59c-242.667 0 -440.667 89.167 -594 267.5s-230 432.166 -230 761.499s76.667 583 230 761s351.333 267 594 267s440.834 -89 594.501 -267s230.5 -431.667 230.5 -761s-76.833 -583.166 -230.5 -761.499s-351.834 -267.5 -594.501 -267.5zM940 136
c176.667 0 314.667 76.167 414 228.5s149 354.166 149 605.499c0 250.667 -49.667 452.334 -149 605.001s-237.333 229 -414 229c-176 0 -313.667 -76.333 -413 -229s-149 -354.334 -149 -605.001c0 -251.333 49.667 -453.166 149 -605.499s237 -228.5 413 -228.5z" />
    <glyph glyph-name="P" unicode="P" horiz-adv-x="1494" 
d="M436 0l-252 -0.000976562v1940h540c206 0 351.167 -21 435.5 -63s148 -103.667 191 -185s64.5 -175.666 64.5 -282.999c0 -182 -61.833 -334.667 -185.5 -458s-308.167 -185 -553.5 -185h-240v-766zM436 959.999h170c223.333 0 370.5 43 441.5 129s106.5 189 106.5 309
c0 104 -28.5 187.833 -85.5 251.5s-170.167 95.5 -339.5 95.5h-293v-785z" />
    <glyph glyph-name="Q" unicode="Q" horiz-adv-x="1881" 
d="M941 -65c-210.667 18 -369.668 69 -477.001 153s-192.166 197.5 -254.499 340.5s-93.5 323.167 -93.5 540.5c0 330 76.667 584 230 762s351.666 267 594.999 267c242.667 0 440.667 -89 594 -267s230 -431.333 230 -760c0 -164.667 -18.167 -309.667 -54.5 -435
s-96.333 -237 -180 -335s-199.5 -173 -347.5 -225c84 -73.333 173.667 -128.5 269 -165.5s196.333 -55.5 303 -55.5c83.333 0 164.333 14 243 42v-222c-79.333 -26.667 -162.333 -40 -249 -40c-123.333 0 -244.666 23.667 -363.999 71s-267.333 157 -444 329zM940.999 136
c176 0 313.667 76.167 413 228.5s149 354.166 149 605.499c0 250.667 -49.667 452.334 -149 605.001s-237 229 -413 229c-176.667 0 -314.667 -76.333 -414 -229s-149 -354.334 -149 -605.001c0 -251.333 49.667 -453.166 149 -605.499s237.333 -228.5 414 -228.5z" />
    <glyph glyph-name="R" unicode="R" horiz-adv-x="1551" 
d="M436 0h-251.997v1940h600c147.333 0 258.166 -21.167 332.499 -63.5s133.166 -103.833 176.499 -184.5s65 -168 65 -262c0 -76 -14.667 -148.667 -44 -218s-70.5 -132.166 -123.5 -188.499s-134.833 -106.5 -245.5 -150.5c42 -23.333 73.333 -45.5 94 -66.5
s46 -54.833 76 -101.5s56.333 -90.334 79 -131.001l309 -574h-289l-269 510c-64.667 123.333 -149.334 231.333 -254.001 324h-255v-834zM436.003 1028h246.999c104 0 182.833 16 236.5 48s96.334 78.667 128.001 140s47.5 127 47.5 197c0 60.667 -12.5 115 -37.5 163
s-61.667 88.167 -110 120.5s-130.5 48.5 -246.5 48.5h-265v-717z" />
    <glyph glyph-name="S" unicode="S" horiz-adv-x="1551" 
d="M136 436l253.001 0.000976562v-12c0 -107.333 37.833 -182.166 113.5 -224.499s176.5 -63.5 302.5 -63.5c110 0 202.333 32.167 277 96.5s112 148.833 112 253.5c0 85.333 -32 155 -96 209c-64.667 53.333 -162.334 106.666 -293.001 159.999l-101 41
c-137.333 56.667 -240 112.834 -308 168.501s-118.667 117.167 -152 184.5s-50 142.666 -50 225.999c0 146.667 51.833 270.5 155.5 371.5s265.834 151.5 486.501 151.5c202.667 0 345.334 -37.5 428.001 -112.5s124 -162.5 124 -262.5v-13h-253v13
c0 31.333 -12.667 62.5 -38 93.5s-63.5 53.333 -114.5 67s-106.833 20.5 -167.5 20.5c-124 0 -215.833 -31 -275.5 -93s-89.5 -132.667 -89.5 -212c0 -53.333 14.167 -103.5 42.5 -150.5s67.333 -86 117 -117s133.167 -72.167 250.5 -123.5l119 -52
c190 -82 317 -168.667 381 -260c63.333 -90.667 95 -188.334 95 -293.001c0 -98 -25.833 -192.5 -77.5 -283.5s-123.334 -160.167 -215.001 -207.5s-213.834 -71 -366.501 -71c-144.667 0 -265.5 17.333 -362.5 52s-170.833 91.667 -221.5 171s-76 166 -76 260v12z" />
    <glyph glyph-name="T" unicode="T" horiz-adv-x="1639" 
d="M699 0v1745h-660v195h1561v-195h-650v-1745h-251z" />
    <glyph glyph-name="U" unicode="U" 
d="M155 1940h252.999v-1247c0 -182 17.667 -304 53 -366s90.5 -109.333 165.5 -142s158.833 -49 251.5 -49c88.667 0 167.5 16.333 236.5 49s120.333 84.167 154 154.5s50.5 217.5 50.5 441.5v1159h232v-1224c0 -226.667 -26 -385.834 -78 -477.501
s-127.167 -164.167 -225.5 -217.5s-222.166 -80 -371.499 -80c-138 0 -264.5 21.333 -379.5 64s-200.667 108.834 -257 198.501s-84.5 241.5 -84.5 455.5v1281z" />
    <glyph glyph-name="V" unicode="V" horiz-adv-x="1861" 
d="M1588 1940h235l-792 -1940h-253l-739 1940h275l615 -1626z" />
    <glyph glyph-name="W" unicode="W" horiz-adv-x="2424" 
d="M794 0h-256l-440 1940h241l309 -1366l42 -234h11l43 234l355 1366h250l346 -1370l40 -230h11l42 230l318 1370h222l-452 -1940h-256l-359 1391l-46 238h-12l-44 -238z" />
    <glyph glyph-name="X" unicode="X" horiz-adv-x="1561" 
d="M294 0h-255l621 985l-572 955h276l439 -732l466 732h251l-595 -935l598 -1005h-272l-467 781z" />
    <glyph glyph-name="Y" unicode="Y" horiz-adv-x="1561" 
d="M909 0h-251v914l-629 1026h294l485 -784l478 784h245l-622 -1026v-914z" />
    <glyph glyph-name="Z" unicode="Z" horiz-adv-x="1474" 
d="M1358 233v-233h-1260v233l963 1493h-896v214h1174v-214l-959 -1493h978z" />
    <glyph glyph-name="bracketleft" unicode="[" horiz-adv-x="1144" 
d="M921 -271v-194h-630v2521h630v-195h-416v-2132h416z" />
    <glyph glyph-name="backslash" unicode="\" horiz-adv-x="1378" 
d="M281 1998l1038 -2057h-218l-1042 2057h222z" />
    <glyph glyph-name="bracketright" unicode="]" horiz-adv-x="1144" 
d="M223 1861v195h630v-2521h-630v194h417v2132h-417z" />
    <glyph glyph-name="asciicircum" unicode="^" 
d="M1551 543h-213l-484 970l-485 -970h-214l699 1397z" />
    <glyph glyph-name="underscore" unicode="_" 
d="M78 -194v194h1551v-194h-1551z" />
    <glyph glyph-name="grave" unicode="`" horiz-adv-x="1513" 
d="M1028 1610h-213l-427 408h270z" />
    <glyph glyph-name="a" unicode="a" horiz-adv-x="1416" 
d="M1045 0c-24 75.333 -35.9961 140.001 -35.9961 194.001c-102 -100.667 -189 -164.667 -261 -192s-141 -41 -207 -41c-110.667 0 -205.834 34 -285.501 102s-119.5 161.667 -119.5 281c0 134.667 56.167 238.667 168.5 312s305.5 136.666 579.5 189.999l125 24v158
c0 85.333 -28.833 145.333 -86.5 180s-126.834 52 -207.501 52c-96.667 0 -172 -21.167 -226 -63.5s-81 -91.833 -81 -148.5v-20h-253v18c0 62 26 125.833 78 191.5s121.167 115.167 207.5 148.5s180.833 50 283.5 50c101.333 0 193.666 -15.833 276.999 -47.5
s144.166 -74.334 182.499 -128.001s57.5 -154.5 57.5 -302.5v-543c0 -59.333 1.5 -121.666 4.5 -186.999s17.833 -141.333 44.5 -228h-245zM1009 705.001l-69.999 -16.998c-236 -58 -386.833 -112.833 -452.5 -164.5s-98.5 -113.167 -98.5 -184.5
c0 -36.667 9.66699 -70.834 29 -102.501s48.166 -56.334 86.499 -74.001s76.5 -26.5 114.5 -26.5c64.667 0 128.5 19 191.5 57s112 88.667 147 152s52.5 137 52.5 221v139z" />
    <glyph glyph-name="b" unicode="b" horiz-adv-x="1561" 
d="M398 0l-233.004 -0.00292969c4 46 7.5 101.833 10.5 167.5s5.33301 119.334 7 161.001s2.5 69.834 2.5 84.501v1605h233v-864c50.667 79.333 98.334 136.833 143.001 172.5s93.334 62.667 146.001 81s108.334 27.5 167.001 27.5c106 0 203.167 -29 291.5 -87
s157 -144.5 206 -259.5s73.5 -244.167 73.5 -387.5c0 -212 -51.167 -388.333 -153.5 -529s-245.166 -211 -428.499 -211c-60 0 -116.333 8.66699 -169 26s-99.667 42.833 -141 76.5s-86.333 93.834 -135 180.501l-8 -101c-3.33301 -56 -7.33301 -103.667 -12 -143z
M417.996 697.997c0 -158.667 34.168 -288.833 102.501 -390.5s164.166 -152.5 287.499 -152.5c113.333 0 207.5 45 282.5 135s112.5 224.667 112.5 404c0 209.333 -38.333 354.5 -115 435.5s-168 121.5 -274 121.5c-74 0 -143 -22.167 -207 -66.5
s-111.5 -110.5 -142.5 -198.5s-46.5 -184 -46.5 -288z" />
    <glyph glyph-name="c" unicode="c" horiz-adv-x="1396" 
d="M1056 359h233.999v-13c0 -62 -23.5 -124.667 -70.5 -188s-108.667 -112 -185 -146s-168.166 -51 -275.499 -51c-206 0 -364.667 65.333 -476 196s-167 311.334 -167 542.001c0 230 55.667 410.167 167 540.5s270 195.5 476 195.5
c107.333 0 199.166 -16.833 275.499 -50.5s138 -79.834 185 -138.501s70.5 -124 70.5 -196v-12h-234v12c2.66699 50.667 -19.5 95.167 -66.5 133.5s-119.833 57.5 -218.5 57.5c-116.667 0 -214.5 -42.833 -293.5 -128.5s-118.5 -223.5 -118.5 -413.5
c0 -190.667 39.5 -329 118.5 -415s176.833 -129 293.5 -129c98.667 0 170.834 19.167 216.501 57.5s68.5 82.833 68.5 133.5v13z" />
    <glyph glyph-name="d" unicode="d" horiz-adv-x="1541" 
d="M1144 2018l232 0.000976562v-2018h-232v243c-47.333 -90 -93.5 -152.5 -138.5 -187.5s-95.667 -59.5 -152 -73.5s-112.166 -21 -167.499 -21c-104.667 0 -201.167 29 -289.5 87s-157.166 144.5 -206.499 259.5s-74 244.167 -74 387.5c0 212.667 51.333 389.167 154 529.5
s245.667 210.5 429 210.5c60 0 116.167 -8.5 168.5 -25.5s99.166 -42.333 140.499 -76s86.666 -93.834 135.999 -180.501v865zM1144 699.001c0 158 -34.168 287.832 -102.501 389.499s-164.166 152.5 -287.499 152.5c-113.333 0 -207.5 -45 -282.5 -135
s-112.5 -224.333 -112.5 -403c0 -209.333 36.167 -354.666 108.5 -435.999s165.833 -122 280.5 -122c74 0 142.833 22.5 206.5 67.5s111.167 111.333 142.5 199s47 183.5 47 287.5z" />
    <glyph glyph-name="e" unicode="e" horiz-adv-x="1474" 
d="M1096 359l233 -0.00292969v-13c0 -61.333 -24.667 -124.166 -74 -188.499s-114.333 -113.166 -195 -146.499s-173.667 -50 -279 -50c-212 0 -375.833 68.833 -491.5 206.5s-173.5 311.5 -173.5 521.5c0 214.667 61.167 392.667 183.5 534s279.5 212 471.5 212
c106 0 202 -22.833 288 -68.5s154 -117.167 204 -214.5s75 -232.666 75 -405.999v-77h-992c0 -149.333 40.333 -272.333 121 -369s192 -145 334 -145c102.667 0 177.5 19.833 224.5 59.5s70.5 83.5 70.5 131.5v13zM361 843.997l753.999 0.00195312v27
c0 65.333 -15.667 128.666 -47 189.999s-74.5 106.666 -129.5 135.999s-119.167 44 -192.5 44c-86.667 0 -166.667 -34.667 -240 -104s-121.666 -167 -144.999 -293z" />
    <glyph glyph-name="f" unicode="f" horiz-adv-x="999" 
d="M543 0l-233 0.000976562v1203h-204v193h204v65c0 202.667 42.667 346.167 128 430.5s197 126.5 335 126.5c51.333 0 116.666 -6 195.999 -18v-190c-65.333 8.66699 -117.333 13 -156 13c-75.333 0 -139.166 -18.333 -191.499 -55s-78.5 -124.334 -78.5 -263.001v-109h407
v-193h-407v-1203z" />
    <glyph glyph-name="g" unicode="g" horiz-adv-x="1561" 
d="M1144 295c-47.333 -98 -108.999 -171.667 -184.999 -221s-166 -74 -270 -74c-166 0 -303 65.167 -411 195.5s-162 301.833 -162 514.5c0 140 24.167 267.5 72.5 382.5s116.333 200.833 204 257.5s190.167 85 307.5 85c87.333 0 165.666 -17.333 234.999 -52
s139 -104.667 209 -210v223h232v-1141c0 -286.667 -30 -475.834 -90 -567.501s-136 -159.667 -228 -204s-200 -66.5 -324 -66.5c-115.333 0 -218.5 17.167 -309.5 51.5s-160.333 81.333 -208 141s-71.5 121.5 -71.5 185.5v21h233v-20
c0 -61.333 33.333 -110.666 100 -147.999s151 -56 253 -56c83.333 0 154.833 14.5 214.5 43.5s107.667 75.667 144 140s54.5 181.833 54.5 352.5v167zM1144 740c0 149.333 -38.333 270.167 -115 362.5s-168.334 138.5 -275.001 138.5c-113.333 0 -207.5 -46.667 -282.5 -140
s-112.5 -224.333 -112.5 -393c0 -106.667 15 -200 45 -280s76.833 -140.667 140.5 -182s131.834 -62 204.501 -62c117.333 0 212.5 51.833 285.5 155.5s109.5 237.167 109.5 400.5z" />
    <glyph glyph-name="h" unicode="h" horiz-adv-x="1494" 
d="M416 0l-231.997 0.000976562v2018h232v-863c49.333 76 97.166 132.333 143.499 169s94.666 64.334 144.999 83.001s106.5 28 168.5 28c87.333 0 165.833 -17.833 235.5 -53.5s123.667 -88.334 162 -158.001s57.5 -181.167 57.5 -334.5v-889h-233v789
c0 124.667 -8.33301 213.167 -25 265.5s-48.334 93.166 -95.001 122.499s-100 44 -160 44c-68 0 -132.833 -20 -194.5 -60s-111.167 -95.833 -148.5 -167.5s-56 -174.167 -56 -307.5v-686z" />
    <glyph glyph-name="i" unicode="i" horiz-adv-x="601" 
d="M184 1396h232v-1396h-232v1396zM184 1706v234h232v-234h-232z" />
    <glyph glyph-name="j" unicode="j" horiz-adv-x="708" 
d="M281 1396l234.001 -0.000976562v-1396c0 -140.667 -16.833 -245.667 -50.5 -315s-88 -124.666 -163 -165.999s-156.167 -62 -243.5 -62c-62.667 0 -130.334 7.33301 -203.001 22v185l50 -5c46 -5.33301 82.667 -8 110 -8c78.667 0 142.667 19.833 192 59.5
s74 136.167 74 289.5v1396zM281.001 1716v224h234v-224h-234z" />
    <glyph glyph-name="k" unicode="k" horiz-adv-x="1378" 
d="M426 0h-242v2018h242v-1287l620 665h269l-605 -648l628 -748h-292l-620 731v-731z" />
    <glyph glyph-name="l" unicode="l" horiz-adv-x="601" 
d="M416 0h-232v2018h232v-2018z" />
    <glyph glyph-name="m" unicode="m" horiz-adv-x="2289" 
d="M416 0l-232.001 0.00488281v1396h232v-252c48 84 93.333 144.333 136 181s89.5 64.167 140.5 82.5s105.167 27.5 162.5 27.5s112.333 -9 165 -27s98.167 -44.833 136.5 -80.5s76.166 -96.834 113.499 -183.501c47.333 80.667 94.166 140 140.499 178
s93.833 66.333 142.5 85s100.667 28 156 28c79.333 0 151 -18.5 215 -55.5s113.333 -89.667 148 -158s52 -184.5 52 -348.5v-873h-234v776c0 164.667 -9.83301 268.667 -29.5 312s-46.667 76.333 -81 99s-76.166 34 -125.499 34c-69.333 0 -133.166 -21.333 -191.499 -64
s-105 -100.334 -140 -173.001s-52.5 -174.334 -52.5 -305.001v-679h-232v776c0 164.667 -9 268.667 -27 312s-46.667 76.666 -86 99.999s-81.333 35 -126 35c-63.333 0 -125.666 -22.333 -186.999 -67s-109.333 -103.834 -144 -177.501s-52 -173.5 -52 -299.5v-679z" />
    <glyph glyph-name="n" unicode="n" horiz-adv-x="1494" 
d="M416 0l-231.998 0.000976562v1396h232v-241c49.333 76 97.166 132.333 143.499 169s94.666 64.334 144.999 83.001s106.5 28 168.5 28c87.333 0 165.833 -17.833 235.5 -53.5s123.667 -88.334 162 -158.001s57.5 -181.167 57.5 -334.5v-889h-233v789
c0 124.667 -8.33301 213.167 -25 265.5s-49.167 93.166 -97.5 122.499s-100.833 44 -157.5 44c-68 0 -132.833 -20 -194.5 -60s-111.167 -95.833 -148.5 -167.5s-56 -174.167 -56 -307.5v-686z" />
    <glyph glyph-name="o" unicode="o" horiz-adv-x="1551" 
d="M776 -39c-182 0 -337.5 62 -466.5 186s-193.5 308 -193.5 552c0 243.333 64.5 426.833 193.5 550.5s284.5 185.5 466.5 185.5s337.333 -61.833 466 -185.5s193 -307.167 193 -550.5c0 -244 -64.333 -428 -193 -552s-284 -186 -466 -186zM776 155
c125.333 0 226.166 49.833 302.499 149.5s114.5 231.167 114.5 394.5c0 162.667 -38.167 293.667 -114.5 393s-177.166 149 -302.499 149s-226.166 -49.667 -302.499 -149s-114.5 -230.333 -114.5 -393c0 -163.333 38.167 -294.833 114.5 -394.5
s177.166 -149.5 302.499 -149.5z" />
    <glyph glyph-name="p" unicode="p" horiz-adv-x="1541" 
d="M398 -543l-233 -0.000976562v1939h233v-242c48 82.667 93.833 141 137.5 175s93 60.167 148 78.5s111.833 27.5 170.5 27.5c106.667 0 204.167 -29 292.5 -87s156.833 -144.5 205.5 -259.5s73 -244.167 73 -387.5c0 -212 -51 -388.333 -153 -529s-245 -211 -429 -211
c-59.333 0 -115.5 8.66699 -168.5 26s-99.833 42.833 -140.5 76.5s-86 93.834 -136 180.501v-787zM398 697.999c0 -158.667 34.167 -288.833 102.5 -390.5s164.5 -152.5 288.5 -152.5c113.333 0 207.5 45 282.5 135s112.5 224.667 112.5 404
c0 209.333 -39.667 354.5 -119 435.5s-169.666 121.5 -270.999 121.5c-73.333 0 -141.833 -22.167 -205.5 -66.5s-111.334 -110.5 -143.001 -198.5s-47.5 -184 -47.5 -288z" />
    <glyph glyph-name="q" unicode="q" horiz-adv-x="1541" 
d="M1144 1396h232v-1939h-232v786c-48.667 -82.667 -94.667 -141.167 -138 -175.5s-92.666 -60.666 -147.999 -78.999s-112 -27.5 -170 -27.5c-106 0 -203.167 29 -291.5 87s-157.166 144.5 -206.499 259.5s-74 244.167 -74 387.5c0 212.667 51.333 389.167 154 529.5
s245.667 210.5 429 210.5c60 0 116.167 -8.5 168.5 -25.5s99.166 -42.333 140.499 -76s86.666 -93.834 135.999 -180.501v243zM1144 699c0 158 -34.168 287.832 -102.501 389.499s-164.166 152.5 -287.499 152.5c-113.333 0 -207.5 -45 -282.5 -135
s-112.5 -224.333 -112.5 -403c0 -209.333 39.5 -354.666 118.5 -435.999s169.167 -122 270.5 -122c74 0 142.833 22.5 206.5 67.5s111.167 111.333 142.5 199s47 183.5 47 287.5z" />
    <glyph glyph-name="r" unicode="r" horiz-adv-x="989" 
d="M416 0l-232 0.000976562v1396h232v-246c38.667 70.667 80.667 125.667 126 165s93.666 69.166 144.999 89.499s103.666 30.5 156.999 30.5c48 0 89.667 -7 125 -21v-241c-55.333 26.667 -113.666 40 -174.999 40c-87.333 0 -172.166 -38.333 -254.499 -115
s-123.5 -212.667 -123.5 -408v-690z" />
    <glyph glyph-name="s" unicode="s" horiz-adv-x="1304" 
d="M98 369l232 0.000976562v-5c0 -60 23 -109.833 69 -149.5s123.333 -59.5 232 -59.5c96 0 173.833 23.333 233.5 70s89.5 101.667 89.5 165c0 86 -58.333 147 -175 183l-119 36l-79 25l-161 50c-184 67.333 -276 179.333 -276 336c0 110 44.5 206.667 133.5 290
s221.5 125 397.5 125c173.333 0 296.666 -35.667 369.999 -107s110 -150.333 110 -237v-5h-234v5c0 46.667 -23.5 83.334 -70.5 110.001s-109.5 40 -187.5 40c-93.333 0 -164.833 -19.333 -214.5 -58s-74.5 -86.334 -74.5 -143.001c0 -43.333 16 -78.5 48 -105.5
s86 -51.5 162 -73.5l112 -31l82 -24c113.333 -32 183.833 -54.667 211.5 -68s55.834 -30.666 84.501 -51.999c39.333 -30 68.333 -66.167 87 -108.5s28 -91.833 28 -148.5c0 -132 -47.333 -243 -142 -333s-232.667 -135 -414 -135c-115.333 0 -210.833 17.167 -286.5 51.5
s-136 81.666 -181 141.999s-67.5 130.166 -67.5 209.499v5z" />
    <glyph glyph-name="t" unicode="t" horiz-adv-x="1135" 
d="M1038 198l0.00195312 -194.999c-113.333 -28 -200 -42 -260 -42c-86.667 0 -164.834 17.5 -234.501 52.5s-122.667 85.833 -159 152.5s-54.5 173 -54.5 319v718h-242v193h242v330h233v-330h407v-193h-407v-652c0 -123.333 9.5 -208.833 28.5 -256.5
s49.167 -82.834 90.5 -105.501s90.666 -34 147.999 -34c46 0 115.333 14.333 208 43z" />
    <glyph glyph-name="u" unicode="u" horiz-adv-x="1494" 
d="M1076 1396l233.001 -0.00195312v-1396h-233v244c-48 -75.333 -95.333 -131.666 -142 -168.999s-94.667 -65.666 -144 -84.999s-103 -29 -161 -29c-129.333 0 -239 36.5 -329 109.5s-135 219.833 -135 440.5v885h233v-787c0 -204 27 -327.333 81 -370s121 -64 201 -64
c69.333 0 134.666 20.167 195.999 60.5s110 97 146 170s54 174.5 54 304.5v686z" />
    <glyph glyph-name="v" unicode="v" horiz-adv-x="1445" 
d="M598 0l-569 1396h250l447 -1095l458 1095h231l-585 -1396h-232z" />
    <glyph glyph-name="w" unicode="w" horiz-adv-x="1998" 
d="M438 0l-399 1396h244l246 -868l32 -208h27l36 208l249 868h233l278 -866l47 -210h25l37 210l246 866h220l-399 -1396h-235l-287 913l-39 202h-20l-41 -202l-264 -913h-236z" />
    <glyph glyph-name="x" unicode="x" horiz-adv-x="1358" 
d="M310 0h-242l485 706l-457 690h268l325 -491l336 491h240l-456 -666l480 -730h-269l-349 530z" />
    <glyph glyph-name="y" unicode="y" horiz-adv-x="1464" 
d="M639 60l-600 1336h257l468 -1037l437 1037h234l-589 -1397c-78.667 -188.667 -144.667 -313.667 -198 -375s-109.833 -104.5 -169.5 -129.5s-139.167 -37.5 -238.5 -37.5h-175v194h131c64.667 0 121.167 8.5 169.5 25.5s88.5 44.333 120.5 82s75 120.167 129 247.5z" />
    <glyph glyph-name="z" unicode="z" horiz-adv-x="1416" 
d="M1280 194v-194h-1135v194l829 1009h-809v193h1085v-193l-814 -1009h844z" />
    <glyph glyph-name="braceleft" unicode="{" horiz-adv-x="1154" 
d="M261 893l66.999 -0.000976562c80.667 0 135 21.167 163 63.5s42 91.833 42 148.5c0 67.333 -9.33301 139 -28 215l-30 129c-20 84 -30 163.667 -30 239c0 110.667 39.167 199.667 117.5 267s172.166 101 281.499 101h19v-195h-24c-46 0 -87.5 -18.333 -124.5 -55
s-55.5 -91 -55.5 -163c0 -24.667 2 -45.667 6 -63l14 -61l27 -150c20 -112.667 30 -188.667 30 -228c0 -65.333 -20.167 -131.166 -60.5 -197.499s-107.166 -115.833 -200.499 -148.5c93.333 -32.667 160.166 -82 200.499 -148s60.5 -132 60.5 -198
c0 -38.667 -10 -114.667 -30 -228l-27 -150l-14 -60c-4 -20.667 -6 -42 -6 -64c0 -71.333 18.333 -125.5 55 -162.5s78.334 -55.5 125.001 -55.5h24v-194h-19c-109.333 0 -203.166 33.5 -281.499 100.5s-117.5 156.5 -117.5 268.5c0 74.667 10 153.667 30 237l30 129
c18.667 76.667 28 148.667 28 216c0 56 -14 105.5 -42 148.5s-82.333 64.5 -163 64.5h-67v194z" />
    <glyph glyph-name="bar" unicode="|" horiz-adv-x="630" 
d="M214 -59v2057h204v-2057h-204z" />
    <glyph glyph-name="braceright" unicode="}" horiz-adv-x="1154" 
d="M893 699h-66.999c-80.667 0 -135 -21.5 -163 -64.5s-42 -92.833 -42 -149.5c0 -66.667 9 -138.334 27 -215.001l31 -129c20 -83.333 30 -162.333 30 -237c0 -111.333 -39.167 -200.666 -117.5 -267.999s-172.166 -101 -281.499 -101h-19v194h24
c46 0 87.5 18.333 124.5 55s55.5 91.667 55.5 165c0 23.333 -2 44 -6 62l-14 60l-27 150c-20 113.333 -30 189.333 -30 228c0 66 20.167 132 60.5 198s107.166 115.333 200.499 148c-93.333 32.667 -160.166 82.167 -200.499 148.5s-60.5 132.833 -60.5 199.5
c0 38 10 113.333 30 226l27 150l14 61c4 20 6 41.333 6 64c0 70.667 -18.333 124.5 -55 161.5s-78.334 55.5 -125.001 55.5h-24v195h19c109.333 0 203.166 -33.667 281.499 -101s117.5 -157 117.5 -269c0 -74 -10 -153 -30 -237l-31 -129c-18 -76 -27 -147.667 -27 -215
c0 -56.667 14 -106.167 42 -148.5s82.333 -63.5 163 -63.5h67v-194z" />
    <glyph glyph-name="asciitilde" unicode="~" 
d="M155 504l0.00292969 21.998c0 109.333 32.333 204.166 97 284.499s151.667 120.5 261 120.5c27.333 0 54.166 -2.66699 80.499 -8s56.166 -14.5 89.499 -27.5s83.333 -38.167 150 -75.5l151 -84c92.667 -50.667 168 -76 226 -76c62 0 107.667 22.333 137 67
s44 93.334 44 146.001v20h160v-20c0 -139.333 -39.333 -242.166 -118 -308.499s-162 -99.5 -250 -99.5c-82.667 0 -192 38.667 -328 116l-127 74c-96.667 55.333 -174.667 83 -234 83c-33.333 0 -64.333 -8.83301 -93 -26.5s-51.834 -45.667 -69.501 -84
s-26.5 -72.166 -26.5 -101.499v-22h-150z" />
    <glyph glyph-name="nonbreakingspace" unicode="&#xa0;" 
 />
    <glyph glyph-name="exclamdown" unicode="&#xa1;" horiz-adv-x="776" 
d="M269 1397h233v-234h-233v234zM289 910h191l63 -1453h-310z" />
    <glyph glyph-name="cent" unicode="&#xa2;" 
d="M965 0l-193.001 0.00488281v237c-138 25.333 -241.5 69.166 -310.5 131.499s-123.667 145.166 -164 248.499s-60.5 220.666 -60.5 351.999c0 124 18.5 236.667 55.5 338s94 188.166 171 260.499s179.833 118.5 308.5 138.5v233h193v-233
c116 -17.333 202.833 -43.5 260.5 -78.5s103 -79.833 136 -134.5s49.5 -108.334 49.5 -161.001v-14h-233v14c0 90 -71 149 -213 177v-1083c78.667 16 133.834 43.5 165.501 82.5s47.5 75.167 47.5 108.5v14h233v-14c0 -72.667 -34.167 -148.5 -102.5 -227.5
s-182.833 -129.833 -343.5 -152.5v-237zM771.999 1505c-76.667 -25.333 -133.665 -61.5 -170.998 -108.5s-66.833 -106.333 -88.5 -178s-32.5 -155.5 -32.5 -251.5c0 -94 10.167 -174.833 30.5 -242.5s50.166 -125.667 89.499 -174s96.666 -85.833 171.999 -112.5v1067z" />
    <glyph glyph-name="sterling" unicode="&#xa3;" 
d="M203 0v213.001c114 56 191 128 231 216s73.667 202.333 101 343l36 189h-262v192h302l58 300c29.333 146 64.5 253.5 105.5 322.5s93.667 123.167 158 162.5s140.5 59 228.5 59c38 0 76 -3.33301 114 -10s91.333 -28 160 -64v-199c-95.333 40 -177 60 -245 60
c-58 0 -104.667 -12 -140 -36s-63.833 -62.833 -85.5 -116.5s-45.167 -142.834 -70.5 -267.501l-44 -211h412v-192h-450l-34 -169c-16 -78 -37.167 -157.5 -63.5 -238.5s-53.5 -144 -81.5 -189s-74.333 -95.5 -139 -151.5h941v-213h-1232z" />
    <glyph glyph-name="currency" unicode="&#xa4;" 
d="M474 444l-231.001 -231l-137 137l232 231c-58 90.667 -93.333 162.167 -106 214.5s-19 106.5 -19 162.5c0 56.667 6.33301 111.5 19 164.5s48 124.833 106 215.5l-232 231l137 139l231 -233c90 56 161.167 90.667 213.5 104s107.833 20 166.5 20
s114.167 -6.66699 166.5 -20s122.833 -48 211.5 -104l231 233l139 -139l-232 -231c58 -90.667 93 -162.5 105 -215.5s18 -107.833 18 -164.5c0 -56 -6 -110.167 -18 -162.5s-47 -123.833 -105 -214.5l232 -231l-139 -137l-231 231
c-91.333 -57.333 -163.166 -92.5 -215.499 -105.5s-106.5 -19.5 -162.5 -19.5s-110.167 6.5 -162.5 19.5s-124.833 48.167 -217.5 105.5zM853.999 514c123.333 0 228.498 43.667 315.498 131s130.5 191.666 130.5 312.999c0 80.667 -19.667 155.5 -59 224.5
s-94.166 123.667 -164.499 164s-144.5 60.5 -222.5 60.5s-152.167 -20.167 -222.5 -60.5s-125.166 -95 -164.499 -164s-59 -143.833 -59 -224.5c0 -121.333 43.5 -225.666 130.5 -312.999s192.167 -131 315.5 -131z" />
    <glyph glyph-name="yen" unicode="&#xa5;" 
d="M987 0h-231v319h-487v175h487v233h-487v183h470l-647 1029h262l534 -840l503 840h225l-613 -1029h460v-183h-476v-233h476v-175h-476v-319z" />
    <glyph glyph-name="brokenbar" unicode="&#xa6;" horiz-adv-x="631" 
d="M213 -58v912h205v-912h-205zM213 1087v910h205v-910h-205z" />
    <glyph glyph-name="section" unicode="&#xa7;" 
d="M1260 350c91.333 -64.667 149.331 -122.832 173.998 -174.499s37 -107.5 37 -167.5c0 -90 -23.5 -169.167 -70.5 -237.5s-114 -124.5 -201 -168.5s-204.833 -66 -353.5 -66c-273.333 0 -454.166 50.167 -542.499 150.5s-132.5 210.166 -132.5 329.499v12h251v-12
c0 -62.667 15.333 -115.5 46 -158.5s80.834 -75.167 150.501 -96.5s145.5 -32 227.5 -32c132.667 0 230.5 27.833 293.5 83.5s94.5 115.5 94.5 179.5c0 28 -6.33301 54.833 -19 80.5s-32 48.5 -58 68.5c-52 41.333 -157 100 -315 176l-269 131
c-130 62 -216.667 126.333 -260 193c-44 65.333 -66 132.333 -66 201c0 62.667 18.833 126.167 56.5 190.5s83.167 116.166 136.5 155.499c-64 49.333 -112.167 102.833 -144.5 160.5s-48.5 119.834 -48.5 186.501c0 135.333 56.333 246.166 169 332.499
s269.334 129.5 470.001 129.5c197.333 0 337.5 -37.167 420.5 -111.5s124.5 -162.166 124.5 -263.499v-12h-251v12c0 61.333 -31.167 107 -93.5 137s-141.166 45 -236.499 45c-104.667 0 -190.834 -21 -258.501 -63s-101.5 -100 -101.5 -174c0 -58.667 25 -110.667 75 -156
c49.333 -47.333 129.666 -97 240.999 -149l231 -109c159.333 -73.333 271.5 -143.5 336.5 -210.5s97.5 -147.5 97.5 -241.5c0 -124.667 -70.333 -241.667 -211 -351zM1113 444.002c76.667 62 115 127.665 115 196.998c0 50.667 -18.167 98.5 -54.5 143.5
s-117.5 97.5 -243.5 157.5l-329 157c-54 -45.333 -86 -86.166 -96 -122.499s-15 -69.166 -15 -98.499c0 -46.667 14.167 -87.5 42.5 -122.5s100.833 -80.5 217.5 -136.5z" />
    <glyph glyph-name="dieresis" unicode="&#xa8;" horiz-adv-x="1513" 
d="M370 1610v233h231v-233h-231zM910 1610v233h235v-233h-235z" />
    <glyph glyph-name="copyright" unicode="&#xa9;" horiz-adv-x="2251" 
d="M1539 547l0.000976562 -171c-94.667 -44.667 -211 -67 -349 -67c-126 0 -234.333 26.5 -325 79.5s-162 134.167 -214 243.5s-78 226.333 -78 351c0 170 49.5 320.333 148.5 451s250.5 196 454.5 196c128 0 249 -21 363 -63v-172c-112.667 52 -222.334 78 -329.001 78
c-122 0 -223.167 -39.5 -303.5 -118.5s-120.5 -204.833 -120.5 -377.5c0 -169.333 40.5 -295.5 121.5 -378.5s187.167 -124.5 318.5 -124.5c92 0 196.333 24.333 313 73zM1125 -58c-180.667 0 -349.669 44.167 -507.002 132.5s-283.333 212.833 -378 373.5
s-142 334.334 -142 521.001c0 183.333 45.667 355 137 515s217.333 285.5 378 376.5s331.334 136.5 512.001 136.5c181.333 0 352.333 -45.5 513 -136.5s286.834 -216.5 378.501 -376.5s137.5 -331.667 137.5 -515c0 -186.667 -47.5 -360.334 -142.5 -521.001
s-221.5 -285.167 -379.5 -373.5s-327 -132.5 -507 -132.5zM1125 98c152.667 0 296.001 37.333 430.001 112s241.5 179.834 322.5 315.501s120.833 283.5 119.5 443.5c0 155.333 -38.833 301 -116.5 437s-184.5 242.833 -320.5 320.5s-281 116.5 -435 116.5
s-299.333 -38.833 -436 -116.5s-243.5 -184.5 -320.5 -320.5s-115.5 -281.667 -115.5 -437c0 -160 40.167 -307.833 120.5 -443.5s187.166 -240.834 320.499 -315.501s277 -112 431 -112z" />
    <glyph glyph-name="ordfeminine" unicode="&#xaa;" horiz-adv-x="854" 
d="M625 1131c-13.333 42 -20.666 76.3311 -21.999 102.998c-44 -42 -88.5 -73.333 -133.5 -94s-91.5 -31 -139.5 -31c-68.667 0 -127.834 21.167 -177.501 63.5s-74.5 99.5 -74.5 171.5c0 80.667 33.167 143.834 99.5 189.501s185.5 84.5 357.5 116.5l66 12v86
c0 41.333 -13.833 72.833 -41.5 94.5s-69.5 32.5 -125.5 32.5c-54.667 0 -97.5 -11.5 -128.5 -34.5s-46.5 -53.167 -46.5 -90.5v-12h-171v12c0 44.667 16.167 86.334 48.5 125.001s75.333 69 129 91s111.834 33 174.501 33c63.333 0 120.666 -10 171.999 -30
s88.833 -46.667 112.5 -80s35.5 -94.333 35.5 -183v-320c0 -100 12 -185 36 -255h-171zM601 1545l-30 -8.00098c-134 -32 -221.5 -62.667 -262.5 -92s-61.5 -64.333 -61.5 -105c0 -37.333 14.5 -64.666 43.5 -81.999s57.5 -26 85.5 -26c44 0 92.5 19 145.5 57
s79.5 100 79.5 186v70z" />
    <glyph glyph-name="guillemotleft" unicode="&#xab;" horiz-adv-x="1368" 
d="M888 693l382 -538h-213l-408 446v195l418 446h203zM346 693l379 -538h-211l-408 446v195l418 446h201z" />
    <glyph glyph-name="logicalnot" unicode="&#xac;" 
d="M1551 796v-603h-193v408h-1203v195h1396z" />
    <glyph glyph-name="uni00AD" unicode="&#xad;" horiz-adv-x="971" 
d="M98 689v193h776v-193h-776z" />
    <glyph glyph-name="registered" unicode="&#xae;" horiz-adv-x="2251" 
d="M930 330l-199 0.000976562v1269h404c98 0 172.5 -14.333 223.5 -43s90.833 -69.5 119.5 -122.5s43 -110.833 43 -173.5c0 -72.667 -20.333 -141.834 -61 -207.501s-103.334 -116.5 -188.001 -152.5c44 -28 91.667 -88.333 143 -181l209 -389h-227l-175 331l-40 78
c-47.333 83.333 -81.666 125 -102.999 125h-149v-534zM930 1017h139c92.667 0 156.667 24 192 72s53 101 53 159c0 36 -7 68.5 -21 97.5s-35 53.167 -63 72.5s-77 29 -147 29h-153v-430zM1125 -57.999c-180.667 0 -349.669 44.167 -507.002 132.5
s-283.333 212.833 -378 373.5s-142 334.334 -142 521.001c0 183.333 45.667 355 137 515s217.333 285.5 378 376.5s331.334 136.5 512.001 136.5c181.333 0 352.333 -45.5 513 -136.5s286.834 -216.5 378.501 -376.5s137.5 -331.667 137.5 -515
c0 -186.667 -47.5 -360.334 -142.5 -521.001s-221.5 -285.167 -379.5 -373.5s-327 -132.5 -507 -132.5zM1125 98.001c152.667 0 296.001 37.333 430.001 112s241.5 179.834 322.5 315.501s120.833 283.5 119.5 443.5c0 155.333 -38.833 301 -116.5 437
s-184.5 242.833 -320.5 320.5s-281 116.5 -435 116.5s-299.333 -38.833 -436 -116.5s-243.5 -184.5 -320.5 -320.5s-115.5 -281.667 -115.5 -437c0 -160 40.167 -307.833 120.5 -443.5s187.166 -240.834 320.499 -315.501s277 -112 431 -112z" />
    <glyph glyph-name="macron" unicode="&#xaf;" horiz-adv-x="1513" 
d="M408 1610v154h699v-154h-699z" />
    <glyph glyph-name="degree" unicode="&#xb0;" horiz-adv-x="872" 
d="M438 1318c-95.333 0 -175.833 33.5 -241.5 100.5s-98.5 146.833 -98.5 239.5c0 93.333 33.5 173.166 100.5 239.499s146.833 99.5 239.5 99.5s172.167 -33.167 238.5 -99.5s99.5 -146.166 99.5 -239.499c0 -92.667 -32.833 -172.5 -98.5 -239.5
s-145.5 -100.5 -239.5 -100.5zM438 1435c61.333 0 113.499 22.333 156.499 67s64.5 96.667 64.5 156c0 60 -21.833 112.167 -65.5 156.5s-95.5 66.5 -155.5 66.5c-61.333 0 -114.166 -22.167 -158.499 -66.5s-66.5 -96.5 -66.5 -156.5c0 -59.333 21.5 -111.333 64.5 -156
s96.5 -67 160.5 -67z" />
    <glyph glyph-name="plusminus" unicode="&#xb1;" 
d="M1551 1182v-193h-601v-601h-194v601h-601v193h601v602h194v-602h601zM1551 193v-193h-1396v193h1396z" />
    <glyph glyph-name="twosuperior" unicode="&#xb2;" horiz-adv-x="1027" 
d="M106 806v143.995c0 54 20.167 120.167 60.5 198.5s106.833 150.833 199.5 217.5l78 59l74 56c76.667 58.667 122.667 102.834 138 132.501s23 58.5 23 86.5c0 38.667 -17.333 72.167 -52 100.5s-84.334 42.5 -149.001 42.5c-54.667 0 -96.5 -9.16699 -125.5 -27.5
s-43.5 -38.166 -43.5 -59.499v-30h-174v32c0 52.667 29 105.667 87 159s146 80 264 80c139.333 0 238.5 -29 297.5 -87s88.5 -126 88.5 -204c0 -42.667 -9.33301 -85.167 -28 -127.5s-54.167 -85.666 -106.5 -129.999s-97.166 -79.166 -134.499 -104.499l-56 -36
c-173.333 -115.333 -260 -225.666 -260 -330.999v-6h605v-165h-786z" />
    <glyph glyph-name="threesuperior" unicode="&#xb3;" horiz-adv-x="1027" 
d="M305 1368v155.003h91c65.333 0 115.833 9.33301 151.5 28s64.167 42.167 85.5 70.5s32.666 57.166 33.999 86.499c0 33.333 -13.333 64.166 -40 92.499s-73.667 42.5 -141 42.5c-62.667 0 -108.5 -10.833 -137.5 -32.5s-43.5 -43.834 -43.5 -66.501v-28h-154v28
c0 42.667 16.333 84.167 49 124.5s76.834 71.833 132.501 94.5s114.834 34 177.501 34c96.667 0 177.5 -23 242.5 -69s97.5 -110.667 97.5 -194c0 -45.333 -10.333 -90.166 -31 -134.499s-74.667 -90.5 -162 -138.5c106 -50 172.667 -100 200 -150s41 -104.667 41 -164
c0 -94.667 -35.167 -180.167 -105.5 -256.5s-176.5 -114.5 -318.5 -114.5c-98.667 0 -178.834 22.667 -240.501 68s-92.5 103.666 -92.5 174.999v28h164v-28c0 -18.667 11.833 -38.167 35.5 -58.5s72.167 -30.5 145.5 -30.5c87.333 0 147 23.167 179 69.5
s48 94.833 48 145.5c0 59.333 -26 111.333 -78 156s-136.333 67 -253 67h-77z" />
    <glyph glyph-name="acute" unicode="&#xb4;" horiz-adv-x="1513" 
d="M436 1610l370 407h271l-428 -407h-213z" />
    <glyph glyph-name="mu" unicode="&#xb5;" horiz-adv-x="1513" 
d="M169 -464l-233.005 -0.000976562l373 1861h232l-159 -794c-18.667 -95.333 -28 -167 -28 -215c0 -75.333 21 -129.666 63 -162.999s94 -50 156 -50c74.667 0 145.834 19.667 213.501 59s127.334 95.5 179.001 168.5s90.834 176.5 117.501 310.5l137 684h233l-279 -1397
h-234l49 239c-95.333 -103.333 -182.166 -175.333 -260.499 -216s-154.5 -61 -228.5 -61c-93.333 0 -169.666 28 -228.999 84z" />
    <glyph glyph-name="paragraph" unicode="&#xb6;" 
d="M1445 -464h-193v2208h-271v-2208h-195v1308c-194.667 0 -353.167 52.5 -475.5 157.5s-183.5 231.167 -183.5 378.5c0 98 26.333 193.167 79 285.5s130 161 232 206s252.667 67.5 452 67.5h760v-195h-205v-2208z" />
    <glyph glyph-name="periodcentered" unicode="&#xb7;" 
d="M689 535v327h330v-327h-330z" />
    <glyph glyph-name="cedilla" unicode="&#xb8;" horiz-adv-x="1513" 
d="M844 0l-92 -162.999c89.333 -18.667 147.833 -46.334 175.5 -83.001s41.5 -75.334 41.5 -116.001c0 -45.333 -18.5 -87.166 -55.5 -125.499s-94.5 -57.5 -172.5 -57.5c-69.333 0 -135.333 12.333 -198 37v110c48 -25.333 97.333 -38 148 -38
c29.333 0 55.833 8.66699 79.5 26s35.5 35.333 35.5 54c0 58 -77.667 94.333 -233 109l136 247h135z" />
    <glyph glyph-name="onesuperior" unicode="&#xb9;" horiz-adv-x="1027" 
d="M450 806v974l-241 -90v167l241 112h175v-1163h-175z" />
    <glyph glyph-name="ordmasculine" unicode="&#xba;" horiz-adv-x="950" 
d="M474 1109c-108.667 0 -203.167 36.833 -283.5 110.5s-120.5 184.834 -120.5 333.501c0 147.333 39.833 258.166 119.5 332.499s174.5 111.5 284.5 111.5c111.333 0 207.166 -37.167 287.499 -111.5s120.5 -185.166 120.5 -332.499
c0 -148.667 -40.167 -259.834 -120.5 -333.501s-176.166 -110.5 -287.499 -110.5zM474 1242c74 0 132.667 28.833 176 86.5s65 132.5 65 224.5c0 92.667 -21.667 167.834 -65 225.501s-102 86.5 -176 86.5c-72 0 -129.833 -28.833 -173.5 -86.5
s-65.5 -132.834 -65.5 -225.501c0 -92 21.833 -166.833 65.5 -224.5s101.5 -86.5 173.5 -86.5z" />
    <glyph glyph-name="guillemotright" unicode="&#xbb;" horiz-adv-x="1368" 
d="M480 703l-382 539h211l408 -446v-195l-418 -446h-201zM1023 703l-382 539h213l408 -446v-195l-420 -446h-201z" />
    <glyph glyph-name="onequarter" unicode="&#xbc;" horiz-adv-x="2317" 
d="M392 766v976l-241 -90v165l241 112h175v-1163h-175zM223 -98l1477 2057h221l-1449 -2057h-249zM2003 -38h-176v337h-561v143l571 683h166v-669h165v-157h-165v-337zM1827 456v416l-346 -416h346z" />
    <glyph glyph-name="onehalf" unicode="&#xbd;" horiz-adv-x="2317" 
d="M352 806v974l-241 -90v167l241 112h176v-1163h-176zM183 -58l1479 2055h219l-1449 -2055h-249zM1421 0l-0.000976562 144.998c0 54.667 20 120.834 60 198.501s105.667 150.167 197 217.5l80 60l75 56c76 59.333 121.667 103.333 137 132s23 57 23 85
c0 38.667 -17.667 72.167 -53 100.5s-84.666 42.5 -147.999 42.5c-56 0 -98 -8.66699 -126 -26s-42 -37.666 -42 -60.999v-30h-173v32c0 54 28.833 107.5 86.5 160.5s145.167 79.5 262.5 79.5c139.333 0 238.5 -29.167 297.5 -87.5s88.5 -125.833 88.5 -202.5
c0 -42.667 -9 -85.5 -27 -128.5s-53.5 -86.5 -106.5 -130.5s-98.167 -78 -135.5 -102l-56 -39c-172.667 -113.333 -259 -223 -259 -329v-8h604v-165h-785z" />
    <glyph glyph-name="threequarters" unicode="&#xbe;" horiz-adv-x="2317" 
d="M257 1368l0.000976562 155.003h91c64 0 113.833 9.33301 149.5 28s64.5 42.167 86.5 70.5s33 57.166 33 86.499c0 33.333 -13.333 64.166 -40 92.499s-73 42.5 -139 42.5c-62.667 0 -108.5 -10.833 -137.5 -32.5s-43.5 -43.834 -43.5 -66.501v-28h-155v28
c0 42.667 16.5 84.167 49.5 124.5s76.667 71.833 131 94.5s114.166 34 179.499 34c96.667 0 177.167 -23 241.5 -69s96.5 -110.667 96.5 -194c0 -45.333 -10.167 -90.166 -30.5 -134.499s-74.5 -90.5 -162.5 -138.5c106 -50 172.667 -100 200 -150s41 -104.667 41 -164
c0 -94.667 -35.167 -180.167 -105.5 -256.5s-175.833 -114.5 -316.5 -114.5c-99.333 0 -179.833 22.667 -241.5 68s-92.5 103.666 -92.5 174.999v28h165v-28c0 -18.667 11.833 -38.167 35.5 -58.5s72.167 -30.5 145.5 -30.5c86 0 145.333 23.167 178 69.5
s49 94.833 49 145.5c0 59.333 -26.5 111.333 -79.5 156s-137.5 67 -253.5 67h-75zM283.001 -97.9971l1475 2057h221l-1449 -2057h-247zM2062 -37.9971h-175v337h-563v143l573 683h165v-669h164v-157h-164v-337zM1887 456.003v416l-348 -416h348z" />
    <glyph glyph-name="questiondown" unicode="&#xbf;" horiz-adv-x="1455" 
d="M719 902l230.999 -0.000976562v-118c0 -135.333 -21.333 -246.166 -64 -332.499s-88 -155.833 -136 -208.5l-99 -106c-64 -70 -109.5 -126.667 -136.5 -170s-40.5 -86 -40.5 -128c0 -70.667 32.167 -129.5 96.5 -176.5s142.833 -70.5 235.5 -70.5
c78.667 0 140.167 14.833 184.5 44.5s66.5 75.167 66.5 136.5v14h243v-14c0 -57.333 -22.167 -116.833 -66.5 -178.5s-107 -109.667 -188 -144s-168.833 -51.5 -263.5 -51.5c-100.667 0 -194.167 19.167 -280.5 57.5s-152.666 90.333 -198.999 156s-69.5 134.5 -69.5 206.5
c0 40 9.33301 90.5 28 151.5s75.667 136.5 171 226.5l88 80c58 55.333 105.667 112.833 143 172.5s56 154.167 56 283.5v169zM718.999 1397h231v-234h-231v234z" />
    <glyph glyph-name="Agrave" unicode="&#xc0;" horiz-adv-x="1861" 
d="M273 0h-235l796 1939h255l734 -1939h-274l-201 535h-856zM569 727h705l-340 903zM1153 2152h-299l-494 253h406z" />
    <glyph glyph-name="Aacute" unicode="&#xc1;" horiz-adv-x="1861" 
d="M273 0h-235l796 1939h255l734 -1939h-274l-201 535h-856zM569 727h705l-340 903zM660 2152l388 253h407l-496 -253h-299z" />
    <glyph glyph-name="Acircumflex" unicode="&#xc2;" horiz-adv-x="1861" 
d="M273 0h-235l796 1939h255l734 -1939h-274l-201 535h-856zM569 727h705l-340 903zM945 2230l-172 -78h-272l368 253h155l368 -253h-272z" />
    <glyph glyph-name="Atilde" unicode="&#xc3;" horiz-adv-x="1861" 
d="M273 0h-235l796 1939h255l734 -1939h-274l-201 535h-856zM569 727h705l-340 903zM672 2152h-155.002c8 57.333 26.833 105.5 56.5 144.5s60.5 66.833 92.5 83.5s69.667 25 113 25c52 0 105.333 -9.33301 160 -28l123 -40c50.667 -17.333 88 -26 112 -26
c24.667 0 45.334 5.33301 62.001 16s31.667 36.667 45 78h155c-17.333 -89.333 -52.5 -153.833 -105.5 -193.5s-108.5 -59.5 -166.5 -59.5c-36 0 -91.333 14 -166 42l-85 32l-30 12c-41.333 15.333 -74.666 23 -99.999 23c-16.667 0 -37.667 -6.16699 -63 -18.5
s-41.333 -42.5 -48 -90.5z" />
    <glyph glyph-name="Adieresis" unicode="&#xc4;" horiz-adv-x="1861" 
d="M273 0h-235l796 1939h255l734 -1939h-274l-201 535h-856zM569 727h705l-340 903zM563 2152v233h233v-233h-233zM1105 2152v233h233v-233h-233z" />
    <glyph glyph-name="Aring" unicode="&#xc5;" horiz-adv-x="1861" 
d="M844 2134c0 -32 11 -59.5 33 -82.5s50 -34.5 84 -34.5c30.667 0 57.667 11.5 81 34.5s35 50.5 35 82.5s-11.667 59.5 -35 82.5s-50.333 34.5 -81 34.5c-34 0 -62 -11.833 -84 -35.5s-33 -50.834 -33 -81.5zM1089 1939l733.999 -1939h-274l-201 535h-856l-219 -535h-235
l796 1939c-34.667 25.333 -61.167 54.166 -79.5 86.499s-27.5 68.5 -27.5 108.5c0 62.667 22.5 117.167 67.5 163.5s100.5 69.5 166.5 69.5c62.667 0 116.834 -23.167 162.501 -69.5s68.5 -100.833 68.5 -163.5c0 -38.667 -8.5 -74.167 -25.5 -106.5
s-42.833 -61.833 -77.5 -88.5zM568.999 727.001h705l-340 903z" />
    <glyph glyph-name="AE" unicode="&#xc6;" horiz-adv-x="2540" 
d="M1252 0v535h-645l-350 -535h-257l1252 1939h1095v-213h-844v-611h738v-195h-738v-707h912v-213h-1163zM1252 727v806l-523 -806h523z" />
    <glyph glyph-name="Ccedilla" unicode="&#xc7;" horiz-adv-x="1668" 
d="M914 -163c88.667 -18.667 146.666 -46.332 173.999 -82.999s41 -75.334 41 -116.001c0 -45.333 -18 -87.166 -54 -125.499s-93.667 -57.5 -173 -57.5c-68 0 -134.333 12.333 -199 37v110c48.667 -25.333 98.334 -38 149.001 -38c29.333 0 55.5 8.66699 78.5 26
s34.5 35.333 34.5 54c0 58 -77.333 94.333 -232 109l105 189c-160.667 18.667 -296 74.5 -406 167.5s-190 201.833 -240 326.5s-75 290.667 -75 498c0 256 33 456 99 600s162 257.5 288 340.5s277.333 124.5 454 124.5c120.667 0 226.667 -18.667 318 -56
s163.333 -95.5 216 -174.5s79 -156.833 79 -233.5v-12h-233v12c0 50 -15 96.333 -45 139s-72.5 75 -127.5 97s-121.167 33 -198.5 33c-198.667 0 -346.5 -78.333 -443.5 -235s-145.5 -356 -145.5 -598c0 -245.333 48.5 -446 145.5 -602s244.167 -234 441.5 -234
c134.667 0 230.5 28 287.5 84s85.5 118.333 85.5 187v12h233v-12c0 -68.667 -22.667 -140.834 -68 -216.501s-107.833 -133.5 -187.5 -173.5s-194.5 -64.667 -344.5 -74z" />
    <glyph glyph-name="Egrave" unicode="&#xc8;" horiz-adv-x="1473" 
d="M183 0v1939h1097v-213h-844v-611h738v-195h-738v-707h912v-213h-1165zM989 2152h-300l-496 253h408z" />
    <glyph glyph-name="Eacute" unicode="&#xc9;" horiz-adv-x="1473" 
d="M183 0v1939h1097v-213h-844v-611h738v-195h-738v-707h912v-213h-1165zM417 2152l387 253h408l-494 -253h-301z" />
    <glyph glyph-name="Ecircumflex" unicode="&#xca;" horiz-adv-x="1473" 
d="M183 0v1939h1097v-213h-844v-611h738v-195h-738v-707h912v-213h-1165zM781 2230l-175 -78h-271l367 253h155l370 -253h-271z" />
    <glyph glyph-name="Edieresis" unicode="&#xcb;" horiz-adv-x="1473" 
d="M183 0v1939h1097v-213h-844v-611h738v-195h-738v-707h912v-213h-1165zM368 2152v233h233v-233h-233zM910 2152v233h233v-233h-233z" />
    <glyph glyph-name="Igrave" unicode="&#xcc;" horiz-adv-x="621" 
d="M436 0h-253v1939h253v-1939zM635 2152h-302l-494 253h408z" />
    <glyph glyph-name="Iacute" unicode="&#xcd;" horiz-adv-x="621" 
d="M436 0h-253v1939h253v-1939zM-40 2152l388 253h408l-494 -253h-302z" />
    <glyph glyph-name="Icircumflex" unicode="&#xce;" horiz-adv-x="621" 
d="M436 0h-253v1939h253v-1939zM325 2230l-175 -78h-272l368 253h155l370 -253h-272z" />
    <glyph glyph-name="Idieresis" unicode="&#xcf;" horiz-adv-x="621" 
d="M436 0h-253v1939h253v-1939zM-88 2152v233h233v-233h-233zM454 2152v233h233v-233h-233z" />
    <glyph glyph-name="Eth" unicode="&#xd0;" horiz-adv-x="1794" 
d="M183 0l-0.00195312 891.998h-231v195h231v852h536c262.667 0 454.334 -35.167 575.001 -105.5s214.834 -178.166 282.501 -323.499s101.5 -323 101.5 -533c0 -196 -30.833 -365.667 -92.5 -509s-154.167 -257.166 -277.5 -341.499s-307.333 -126.5 -552 -126.5h-573z
M435.998 212.998h297.002c178.667 0 313.167 26.167 403.5 78.5s159.333 134 207 245s71.5 250.833 71.5 419.5c0 169.333 -21.833 314.5 -65.5 435.5s-110.334 210 -200.001 267s-229.834 85.5 -420.501 85.5h-293v-657h350v-195h-350v-679z" />
    <glyph glyph-name="Ntilde" unicode="&#xd1;" horiz-adv-x="1815" 
d="M416 0h-233v1939h251l886 -1378l81 -153l-4 153v1378h233v-1939h-250l-888 1384l-80 157l4 -157v-1384zM616 2152h-153.003c6.66699 57.333 24.834 105.5 54.501 144.5s60.834 66.833 93.501 83.5s70.334 25 113.001 25c51.333 0 104.333 -9.33301 159 -28l125 -40
c50.667 -17.333 87.334 -26 110.001 -26c25.333 0 46.5 5.33301 63.5 16s32.167 36.667 45.5 78h153c-16.667 -89.333 -51.334 -153.833 -104.001 -193.5s-108.667 -59.5 -168 -59.5c-36 0 -91 14 -165 42l-84 32l-32 12c-41.333 15.333 -74.333 23 -99 23
c-16 0 -36.667 -6.16699 -62 -18.5s-42 -42.5 -50 -90.5z" />
    <glyph glyph-name="Ograve" unicode="&#xd2;" horiz-adv-x="1881" 
d="M940 -58c-242 0 -439.667 89 -593 267s-230 432 -230 762c0 328 76.667 581 230 759s351 267 593 267c242.667 0 440.667 -89 594 -267s230 -431 230 -759c0 -330 -76.667 -584 -230 -762s-351.333 -267 -594 -267zM940 137c177.333 0 315.5 76 414.5 228
s148.5 354 148.5 606c0 250 -49.5 451.333 -148.5 604s-237.167 229 -414.5 229c-175.333 0 -312.833 -76.333 -412.5 -229s-149.5 -354 -149.5 -604c0 -252 49.833 -454 149.5 -606s237.167 -228 412.5 -228zM1163 2152h-299l-494 253h406z" />
    <glyph glyph-name="Oacute" unicode="&#xd3;" horiz-adv-x="1881" 
d="M940 -58c-242 0 -439.667 89 -593 267s-230 432 -230 762c0 328 76.667 581 230 759s351 267 593 267c242.667 0 440.667 -89 594 -267s230 -431 230 -759c0 -330 -76.667 -584 -230 -762s-351.333 -267 -594 -267zM940 137c177.333 0 315.5 76 414.5 228
s148.5 354 148.5 606c0 250 -49.5 451.333 -148.5 604s-237.167 229 -414.5 229c-175.333 0 -312.833 -76.333 -412.5 -229s-149.5 -354 -149.5 -604c0 -252 49.833 -454 149.5 -606s237.167 -228 412.5 -228zM591 2152l388 253h408l-494 -253h-302z" />
    <glyph glyph-name="Ocircumflex" unicode="&#xd4;" horiz-adv-x="1881" 
d="M940 -58c-242 0 -439.667 89 -593 267s-230 432 -230 762c0 328 76.667 581 230 759s351 267 593 267c242.667 0 440.667 -89 594 -267s230 -431 230 -759c0 -330 -76.667 -584 -230 -762s-351.333 -267 -594 -267zM940 137c177.333 0 315.5 76 414.5 228
s148.5 354 148.5 606c0 250 -49.5 451.333 -148.5 604s-237.167 229 -414.5 229c-175.333 0 -312.833 -76.333 -412.5 -229s-149.5 -354 -149.5 -604c0 -252 49.833 -454 149.5 -606s237.167 -228 412.5 -228zM956 2230l-175 -78h-272l368 253h155l370 -253h-272z" />
    <glyph glyph-name="Otilde" unicode="&#xd5;" horiz-adv-x="1881" 
d="M940 -58c-242 0 -439.667 89 -593 267s-230 432 -230 762c0 328 76.667 581 230 759s351 267 593 267c242.667 0 440.667 -89 594 -267s230 -431 230 -759c0 -330 -76.667 -584 -230 -762s-351.333 -267 -594 -267zM940 137c177.333 0 315.5 76 414.5 228
s148.5 354 148.5 606c0 250 -49.5 451.333 -148.5 604s-237.167 229 -414.5 229c-175.333 0 -312.833 -76.333 -412.5 -229s-149.5 -354 -149.5 -604c0 -252 49.833 -454 149.5 -606s237.167 -228 412.5 -228zM652 2152h-155.001c8 57.333 26.833 105.5 56.5 144.5
s60.5 66.833 92.5 83.5s69.667 25 113 25c52 0 105.333 -9.33301 160 -28l123 -40c50.667 -17.333 88 -26 112 -26c24.667 0 45.334 5.33301 62.001 16s31.667 36.667 45 78h155c-17.333 -89.333 -52.5 -153.833 -105.5 -193.5s-108.5 -59.5 -166.5 -59.5
c-36 0 -91.333 14 -166 42l-85 32l-30 12c-41.333 15.333 -74.666 23 -99.999 23c-16 0 -36.833 -6.16699 -62.5 -18.5s-41.834 -42.5 -48.501 -90.5z" />
    <glyph glyph-name="Odieresis" unicode="&#xd6;" horiz-adv-x="1881" 
d="M940 -58c-242 0 -439.667 89 -593 267s-230 432 -230 762c0 328 76.667 581 230 759s351 267 593 267c242.667 0 440.667 -89 594 -267s230 -431 230 -759c0 -330 -76.667 -584 -230 -762s-351.333 -267 -594 -267zM940 137c177.333 0 315.5 76 414.5 228
s148.5 354 148.5 606c0 250 -49.5 451.333 -148.5 604s-237.167 229 -414.5 229c-175.333 0 -312.833 -76.333 -412.5 -229s-149.5 -354 -149.5 -604c0 -252 49.833 -454 149.5 -606s237.167 -228 412.5 -228zM541 2152v233h233v-233h-233zM1083 2152v233h235v-233h-235z
" />
    <glyph glyph-name="multiply" unicode="&#xd7;" 
d="M1551 135l-144 -135l-553 563l-571 -563l-128 145l556 554l-556 565l138 133l561 -559l547 559l150 -125l-566 -573z" />
    <glyph glyph-name="Oslash" unicode="&#xd8;" horiz-adv-x="1881" 
d="M346 -58h-229l198 305c-85.333 119.333 -139.666 241.333 -162.999 366s-35 252 -35 382c0 306.667 76.333 550.334 229 731.001s353.334 271 602.001 271c173.333 0 329 -52.667 467 -158l112 158h237l-205 -301c82 -111.333 136.667 -225.833 164 -343.5
s41 -246.834 41 -387.501c0 -232 -34.833 -420.333 -104.5 -565s-165.334 -257.167 -287.001 -337.5s-265.167 -120.5 -430.5 -120.5c-188.667 0 -351.334 52.667 -488.001 158zM468 466l822 1190c-74.667 68 -143.167 109.667 -205.5 125s-114.5 23 -156.5 23
c-172.667 0 -309.167 -75.333 -409.5 -226s-150.5 -348.334 -150.5 -593.001c0 -74 5.33301 -151.5 16 -232.5s38.667 -176.5 84 -286.5zM1407 1477l-822 -1188c97.333 -101.333 215 -152 353 -152c180 0 319.167 76.333 417.5 229s147.5 356.334 147.5 611.001
c0 192.667 -32 359.334 -96 500.001z" />
    <glyph glyph-name="Ugrave" unicode="&#xd9;" 
d="M155 1939l253.001 0.000976562v-1246c0 -182 17.667 -304.167 53 -366.5s90.5 -109.5 165.5 -141.5s158.833 -48 251.5 -48c88.667 0 167.5 16 236.5 48s120.167 83.167 153.5 153.5s50 218.166 50 443.499v1157h233v-1224c0 -226 -26 -385 -78 -477
s-127.333 -164.333 -226 -217s-222.334 -79 -371.001 -79c-138 0 -264.5 21 -379.5 63s-200.667 108 -257 198s-84.5 242 -84.5 456v1280zM1177 2152h-301l-495 253h408z" />
    <glyph glyph-name="Uacute" unicode="&#xda;" 
d="M155 1939l253.001 0.000976562v-1246c0 -182 17.667 -304.167 53 -366.5s90.5 -109.5 165.5 -141.5s158.833 -48 251.5 -48c88.667 0 167.5 16 236.5 48s120.167 83.167 153.5 153.5s50 218.166 50 443.499v1157h233v-1224c0 -226 -26 -385 -78 -477
s-127.333 -164.333 -226 -217s-222.334 -79 -371.001 -79c-138 0 -264.5 21 -379.5 63s-200.667 108 -257 198s-84.5 242 -84.5 456v1280zM537.001 2152l389 253h408l-496 -253h-301z" />
    <glyph glyph-name="Ucircumflex" unicode="&#xdb;" 
d="M155 1939l253.001 0.000976562v-1246c0 -182 17.667 -304.167 53 -366.5s90.5 -109.5 165.5 -141.5s158.833 -48 251.5 -48c88.667 0 167.5 16 236.5 48s120.167 83.167 153.5 153.5s50 218.166 50 443.499v1157h233v-1224c0 -226 -26 -385 -78 -477
s-127.333 -164.333 -226 -217s-222.334 -79 -371.001 -79c-138 0 -264.5 21 -379.5 63s-200.667 108 -257 198s-84.5 242 -84.5 456v1280zM867.001 2230l-173 -78h-271l368 253h154l368 -253h-271z" />
    <glyph glyph-name="Udieresis" unicode="&#xdc;" 
d="M155 1939l253.001 0.000976562v-1246c0 -182 17.667 -304.167 53 -366.5s90.5 -109.5 165.5 -141.5s158.833 -48 251.5 -48c88.667 0 167.5 16 236.5 48s120.167 83.167 153.5 153.5s50 218.166 50 443.499v1157h233v-1224c0 -226 -26 -385 -78 -477
s-127.333 -164.333 -226 -217s-222.334 -79 -371.001 -79c-138 0 -264.5 21 -379.5 63s-200.667 108 -257 198s-84.5 242 -84.5 456v1280zM454.001 2152v233h233v-233h-233zM997.001 2152v233h235v-233h-235z" />
    <glyph glyph-name="Yacute" unicode="&#xdd;" horiz-adv-x="1561" 
d="M908 0h-251v914l-629 1025h294l486 -784l478 784h245l-623 -1025v-914zM455 2152l388 253h408l-494 -253h-302z" />
    <glyph glyph-name="Thorn" unicode="&#xde;" horiz-adv-x="1493" 
d="M436 0h-253v1939h253v-350h287c206.667 0 352.167 -21 436.5 -63s148 -103.167 191 -183.5s64.5 -174.833 64.5 -283.5c0 -180.667 -62 -332.667 -186 -456s-308 -185 -552 -185h-241v-418zM436 611h171c222 0 368.5 42.833 439.5 128.5s106.5 188.167 106.5 307.5
c0 104.667 -28.333 189.167 -85 253.5s-169.667 96.5 -339 96.5h-293v-786z" />
    <glyph glyph-name="germandbls" unicode="&#xdf;" horiz-adv-x="1513" 
d="M183 0l-0.00488281 1437c0 147.333 21 260.166 63 338.499s99.833 138.166 173.5 179.499s164.167 62 271.5 62c128.667 0 239.5 -27.667 332.5 -83s139.5 -138.666 139.5 -249.999c0 -63.333 -15.667 -121.333 -47 -174s-71.666 -105.334 -120.999 -158.001l-57 -58
c-69.333 -72 -104 -126.333 -104 -163c0 -50.667 52.333 -115 157 -193l52 -40l70 -52l97 -76c150 -123.333 225 -256 225 -398c0 -115.333 -39.5 -212.5 -118.5 -291.5s-193.5 -118.5 -343.5 -118.5c-122 0 -230 17.333 -324 52v215c74 -32 143.333 -52.333 208 -61
s109.334 -13 134.001 -13c50.667 0 96.834 16 138.501 48s62.5 78.333 62.5 139c0 49.333 -15.167 97.166 -45.5 143.499s-101.166 112.833 -212.499 199.5l-70 54l-54 43c-99.333 74.667 -160.666 132.5 -183.999 173.5s-35 83.5 -35 127.5c0 70 36.667 146.333 110 229
c18.667 21.333 30.667 34.666 36 39.999l69 79c76 92 114 167.667 114 227c0 42.667 -22.667 81.167 -68 115.5s-101 51.5 -167 51.5c-74.667 0 -138.167 -23.833 -190.5 -71.5s-78.5 -145.834 -78.5 -294.501v-1459h-233z" />
    <glyph glyph-name="agrave" unicode="&#xe0;" horiz-adv-x="1417" 
d="M1045 0c-24 75.333 -36 139.665 -36 192.998c-102 -100.667 -188.833 -164.334 -260.5 -191.001s-140.834 -40 -207.501 -40c-110 0 -204.833 33.833 -284.5 101.5s-119.5 161.167 -119.5 280.5c0 135.333 55.833 239.5 167.5 312.5s304.834 136.167 579.501 189.5
l125 24v157c0 85.333 -28.833 145.5 -86.5 180.5s-126.834 52.5 -207.501 52.5c-96 0 -171.167 -21.167 -225.5 -63.5s-81.5 -92.166 -81.5 -149.499v-20h-253v20c0 61.333 26 124.833 78 190.5s121.333 115.334 208 149.001s180.667 50.5 282 50.5
c102 0 194.5 -16.167 277.5 -48.5s144 -75.166 183 -128.499s58.5 -154 58.5 -302v-542c0 -60 1.33301 -122.5 4 -187.5s17.334 -141.167 44.001 -228.5h-245zM1009 704.999l-70.998 -18.001c-235.333 -57.333 -385.833 -111.833 -451.5 -163.5
s-98.5 -112.834 -98.5 -183.501c0 -38 9.66699 -72.667 29 -104s48.166 -55.666 86.499 -72.999s76.166 -26 113.499 -26c65.333 0 129.5 18.667 192.5 56s112 87.833 147 151.5s52.5 137.834 52.5 222.501v138zM1081 1610h-213l-426 407h269z" />
    <glyph glyph-name="aacute" unicode="&#xe1;" horiz-adv-x="1417" 
d="M1045 0c-24 75.333 -36 139.665 -36 192.998c-102 -100.667 -188.833 -164.334 -260.5 -191.001s-140.834 -40 -207.501 -40c-110 0 -204.833 33.833 -284.5 101.5s-119.5 161.167 -119.5 280.5c0 135.333 55.833 239.5 167.5 312.5s304.834 136.167 579.501 189.5
l125 24v157c0 85.333 -28.833 145.5 -86.5 180.5s-126.834 52.5 -207.501 52.5c-96 0 -171.167 -21.167 -225.5 -63.5s-81.5 -92.166 -81.5 -149.499v-20h-253v20c0 61.333 26 124.833 78 190.5s121.333 115.334 208 149.001s180.667 50.5 282 50.5
c102 0 194.5 -16.167 277.5 -48.5s144 -75.166 183 -128.499s58.5 -154 58.5 -302v-542c0 -60 1.33301 -122.5 4 -187.5s17.334 -141.167 44.001 -228.5h-245zM1009 704.999l-70.998 -18.001c-235.333 -57.333 -385.833 -111.833 -451.5 -163.5
s-98.5 -112.834 -98.5 -183.501c0 -38 9.66699 -72.667 29 -104s48.166 -55.666 86.499 -72.999s76.166 -26 113.499 -26c65.333 0 129.5 18.667 192.5 56s112 87.833 147 151.5s52.5 137.834 52.5 222.501v138zM480.002 1610l370 407h269l-426 -407h-213z" />
    <glyph glyph-name="acircumflex" unicode="&#xe2;" horiz-adv-x="1417" 
d="M1045 0c-24 75.333 -36 139.665 -36 192.998c-102 -100.667 -188.833 -164.334 -260.5 -191.001s-140.834 -40 -207.501 -40c-110 0 -204.833 33.833 -284.5 101.5s-119.5 161.167 -119.5 280.5c0 135.333 55.833 239.5 167.5 312.5s304.834 136.167 579.501 189.5
l125 24v157c0 85.333 -28.833 145.5 -86.5 180.5s-126.834 52.5 -207.501 52.5c-96 0 -171.167 -21.167 -225.5 -63.5s-81.5 -92.166 -81.5 -149.499v-20h-253v20c0 61.333 26 124.833 78 190.5s121.333 115.334 208 149.001s180.667 50.5 282 50.5
c102 0 194.5 -16.167 277.5 -48.5s144 -75.166 183 -128.499s58.5 -154 58.5 -302v-542c0 -60 1.33301 -122.5 4 -187.5s17.334 -141.167 44.001 -228.5h-245zM1009 704.999l-70.998 -18.001c-235.333 -57.333 -385.833 -111.833 -451.5 -163.5
s-98.5 -112.834 -98.5 -183.501c0 -38 9.66699 -72.667 29 -104s48.166 -55.666 86.499 -72.999s76.166 -26 113.499 -26c65.333 0 129.5 18.667 192.5 56s112 87.833 147 151.5s52.5 137.834 52.5 222.501v138zM733.002 1821l-176 -211h-193l291 407h155l291 -407h-195z
" />
    <glyph glyph-name="atilde" unicode="&#xe3;" horiz-adv-x="1417" 
d="M1045 0c-24 75.333 -36 139.665 -36 192.998c-102 -100.667 -188.833 -164.334 -260.5 -191.001s-140.834 -40 -207.501 -40c-110 0 -204.833 33.833 -284.5 101.5s-119.5 161.167 -119.5 280.5c0 135.333 55.833 239.5 167.5 312.5s304.834 136.167 579.501 189.5
l125 24v157c0 85.333 -28.833 145.5 -86.5 180.5s-126.834 52.5 -207.501 52.5c-96 0 -171.167 -21.167 -225.5 -63.5s-81.5 -92.166 -81.5 -149.499v-20h-253v20c0 61.333 26 124.833 78 190.5s121.333 115.334 208 149.001s180.667 50.5 282 50.5
c102 0 194.5 -16.167 277.5 -48.5s144 -75.166 183 -128.499s58.5 -154 58.5 -302v-542c0 -60 1.33301 -122.5 4 -187.5s17.334 -141.167 44.001 -228.5h-245zM1009 704.999l-70.998 -18.001c-235.333 -57.333 -385.833 -111.833 -451.5 -163.5
s-98.5 -112.834 -98.5 -183.501c0 -38 9.66699 -72.667 29 -104s48.166 -55.666 86.499 -72.999s76.166 -26 113.499 -26c65.333 0 129.5 18.667 192.5 56s112 87.833 147 151.5s52.5 137.834 52.5 222.501v138zM462.002 1610l-157 0.000976562
c0 109.333 21.5 189.833 64.5 241.5s96.5 77.5 160.5 77.5c52.667 0 105.667 -16 159 -48l52 -32c70 -43.333 118.333 -65 145 -65c50 0 75 48.333 75 145h158c-4 -84.667 -14.667 -146.334 -32 -185.001s-44.5 -70.667 -81.5 -96s-76.833 -38 -119.5 -38
c-56 0 -115 20 -177 60l-54 36c-49.333 32 -84 48 -104 48c-59.333 0 -89 -48 -89 -144z" />
    <glyph glyph-name="adieresis" unicode="&#xe4;" horiz-adv-x="1417" 
d="M1045 0c-24 75.333 -36 139.665 -36 192.998c-102 -100.667 -188.833 -164.334 -260.5 -191.001s-140.834 -40 -207.501 -40c-110 0 -204.833 33.833 -284.5 101.5s-119.5 161.167 -119.5 280.5c0 135.333 55.833 239.5 167.5 312.5s304.834 136.167 579.501 189.5
l125 24v157c0 85.333 -28.833 145.5 -86.5 180.5s-126.834 52.5 -207.501 52.5c-96 0 -171.167 -21.167 -225.5 -63.5s-81.5 -92.166 -81.5 -149.499v-20h-253v20c0 61.333 26 124.833 78 190.5s121.333 115.334 208 149.001s180.667 50.5 282 50.5
c102 0 194.5 -16.167 277.5 -48.5s144 -75.166 183 -128.499s58.5 -154 58.5 -302v-542c0 -60 1.33301 -122.5 4 -187.5s17.334 -141.167 44.001 -228.5h-245zM1009 704.999l-70.998 -18.001c-235.333 -57.333 -385.833 -111.833 -451.5 -163.5
s-98.5 -112.834 -98.5 -183.501c0 -38 9.66699 -72.667 29 -104s48.166 -55.666 86.499 -72.999s76.166 -26 113.499 -26c65.333 0 129.5 18.667 192.5 56s112 87.833 147 151.5s52.5 137.834 52.5 222.501v138zM326.002 1610v233h231v-233h-231zM868.002 1610v233h233v-233
h-233z" />
    <glyph glyph-name="aring" unicode="&#xe5;" horiz-adv-x="1417" 
d="M1045 0c-24 75.333 -36 139.665 -36 192.998c-102 -100.667 -188.833 -164.334 -260.5 -191.001s-140.834 -40 -207.501 -40c-110 0 -204.833 33.833 -284.5 101.5s-119.5 161.167 -119.5 280.5c0 135.333 55.833 239.5 167.5 312.5s304.834 136.167 579.501 189.5
l125 24v157c0 85.333 -28.833 145.5 -86.5 180.5s-126.834 52.5 -207.501 52.5c-96 0 -171.167 -21.167 -225.5 -63.5s-81.5 -92.166 -81.5 -149.499v-20h-253v20c0 61.333 26 124.833 78 190.5s121.333 115.334 208 149.001s180.667 50.5 282 50.5
c102 0 194.5 -16.167 277.5 -48.5s144 -75.166 183 -128.499s58.5 -154 58.5 -302v-542c0 -60 1.33301 -122.5 4 -187.5s17.334 -141.167 44.001 -228.5h-245zM1009 704.999l-70.998 -18.001c-235.333 -57.333 -385.833 -111.833 -451.5 -163.5
s-98.5 -112.834 -98.5 -183.501c0 -38 9.66699 -72.667 29 -104s48.166 -55.666 86.499 -72.999s76.166 -26 113.499 -26c65.333 0 129.5 18.667 192.5 56s112 87.833 147 151.5s52.5 137.834 52.5 222.501v138zM713.002 1726c32.667 0 60 11.333 82 34s33 50.334 33 83.001
c0 32 -11 59.333 -33 82s-49.333 34 -82 34c-32 0 -59.333 -11.333 -82 -34s-34 -50 -34 -82c0 -32.667 11.333 -60.334 34 -83.001s50 -34 82 -34zM713.002 1610c-65.333 0 -120.5 23.333 -165.5 70s-67.5 101 -67.5 163c0 62.667 22.833 117.167 68.5 163.5
s100.5 69.5 164.5 69.5c64.667 0 119.334 -23.167 164.001 -69.5s67 -100.833 67 -163.5c0 -62 -22.333 -116.333 -67 -163s-99.334 -70 -164.001 -70z" />
    <glyph glyph-name="ae" unicode="&#xe6;" horiz-adv-x="2377" 
d="M1202 1180c38.667 68 79.8252 118.333 123.492 151s95.834 58.167 156.501 76.5s124.667 27.5 192 27.5c164.667 0 300.334 -54.333 407.001 -163s160 -284.334 160 -527.001v-76h-991l-2 -44c0 -116.667 40.833 -224.167 122.5 -322.5s192.834 -147.5 333.501 -147.5
c107.333 0 183 23 227 69s66 86.667 66 122v14h244v-14c0 -60.667 -25.833 -123.5 -77.5 -188.5s-119.667 -113.833 -204 -146.5s-173.5 -49 -267.5 -49c-103.333 0 -205.166 21.333 -305.499 64s-182.166 131.667 -245.499 267c-84 -121.333 -173.667 -206.833 -269 -256.5
s-198.333 -74.5 -309 -74.5c-131.333 0 -235.166 35.5 -311.499 106.5s-114.5 162.833 -114.5 275.5c0 76 18.667 142.833 56 200.5s102.833 109.334 196.5 155.001s259.834 93.834 498.501 144.501l149 30v58c0 131.333 -29.833 219.166 -89.5 263.499
s-134.5 66.5 -224.5 66.5c-101.333 0 -179.166 -21.5 -233.499 -64.5s-81.5 -93.167 -81.5 -150.5v-20h-251v18c0 62.667 25.333 125.5 76 188.5s119.667 112.333 207 148s179 53.5 275 53.5c91.333 0 180.833 -16.5 268.5 -49.5s160.5 -101.5 218.5 -205.5zM1036.99 707
l-87.001 -22.0039c-192.667 -49.333 -319.167 -89.166 -379.5 -119.499s-104.166 -65.166 -131.499 -104.499s-41 -80.333 -41 -123c0 -67.333 25.5 -117.666 76.5 -150.999s105.167 -50 162.5 -50c64 0 129.5 21.333 196.5 64s117.667 103.834 152 183.501
s51.5 166.5 51.5 260.5v62zM1265.99 843.996h751v30c0 56 -16 116.5 -48 181.5s-76.833 112.333 -134.5 142s-119.167 44.5 -184.5 44.5c-91.333 0 -173.833 -36.833 -247.5 -110.5s-119.167 -169.5 -136.5 -287.5z" />
    <glyph glyph-name="ccedilla" unicode="&#xe7;" horiz-adv-x="1397" 
d="M733 -163c90 -18.667 148.665 -46.3271 175.998 -82.9941s41 -75.334 41 -116.001c0 -45.333 -18.333 -87.166 -55 -125.499s-94 -57.5 -172 -57.5c-69.333 0 -135.666 12.333 -198.999 37v110c48.667 -25.333 98.334 -38 149.001 -38c28 0 53.833 8.66699 77.5 26
s35.5 35.333 35.5 54c0 58 -77 94.333 -231 109l114 211c-180.667 26.667 -317.834 97.667 -411.501 213s-140.5 282.666 -140.5 501.999c0 249.333 56.5 437.666 169.5 564.999s270.833 191 473.5 191c106.667 0 198.167 -16.833 274.5 -50.5s138 -82.334 185 -146.001
s70.5 -126.167 70.5 -187.5v-14h-233v14c0 49.333 -24.167 93.5 -72.5 132.5s-119.166 58.5 -212.499 58.5c-116.667 0 -214.5 -42.833 -293.5 -128.5s-118.5 -223.834 -118.5 -414.501c0 -191.333 39.5 -329.833 118.5 -415.5s176.833 -128.5 293.5 -128.5
c93.333 0 164.166 19 212.499 57s72.5 82.667 72.5 134v14h231v-14c0 -59.333 -20.833 -118.833 -62.5 -178.5s-96.667 -106.834 -165 -141.501s-153.166 -55.334 -254.499 -62.001z" />
    <glyph glyph-name="egrave" unicode="&#xe8;" horiz-adv-x="1473" 
d="M1115 360h233v-14c0 -62 -24.667 -125.167 -74 -189.5s-114.333 -112.833 -195 -145.5s-173.667 -49 -279 -49c-213.333 0 -377.5 68.667 -492.5 206s-172.5 311 -172.5 521c0 214.667 60.833 392.667 182.5 534s279.167 212 472.5 212c105.333 0 201 -22.833 287 -68.5
s154 -117 204 -214s75 -232.833 75 -407.5v-76h-990c0 -150 40.167 -273.167 120.5 -369.5s191.5 -144.5 333.5 -144.5c103.333 0 178.333 19.667 225 59s70 83.333 70 132v14zM380 844h753.001v28c0 64.667 -15.333 127.667 -46 189s-73.834 106.833 -129.501 136.5
s-119.5 44.5 -191.5 44.5c-87.333 0 -167.5 -34.833 -240.5 -104.5s-121.5 -167.5 -145.5 -293.5zM1117 1610h-213l-428 407h269z" />
    <glyph glyph-name="eacute" unicode="&#xe9;" horiz-adv-x="1473" 
d="M1115 360h233v-14c0 -62 -24.667 -125.167 -74 -189.5s-114.333 -112.833 -195 -145.5s-173.667 -49 -279 -49c-213.333 0 -377.5 68.667 -492.5 206s-172.5 311 -172.5 521c0 214.667 60.833 392.667 182.5 534s279.167 212 472.5 212c105.333 0 201 -22.833 287 -68.5
s154 -117 204 -214s75 -232.833 75 -407.5v-76h-990c0 -150 40.167 -273.167 120.5 -369.5s191.5 -144.5 333.5 -144.5c103.333 0 178.333 19.667 225 59s70 83.333 70 132v14zM380 844h753.001v28c0 64.667 -15.333 127.667 -46 189s-73.834 106.833 -129.501 136.5
s-119.5 44.5 -191.5 44.5c-87.333 0 -167.5 -34.833 -240.5 -104.5s-121.5 -167.5 -145.5 -293.5zM514.001 1610l370 407h271l-428 -407h-213z" />
    <glyph glyph-name="ecircumflex" unicode="&#xea;" horiz-adv-x="1473" 
d="M1115 360h233v-14c0 -62 -24.667 -125.167 -74 -189.5s-114.333 -112.833 -195 -145.5s-173.667 -49 -279 -49c-213.333 0 -377.5 68.667 -492.5 206s-172.5 311 -172.5 521c0 214.667 60.833 392.667 182.5 534s279.167 212 472.5 212c105.333 0 201 -22.833 287 -68.5
s154 -117 204 -214s75 -232.833 75 -407.5v-76h-990c0 -150 40.167 -273.167 120.5 -369.5s191.5 -144.5 333.5 -144.5c103.333 0 178.333 19.667 225 59s70 83.333 70 132v14zM380 844h753.001v28c0 64.667 -15.333 127.667 -46 189s-73.834 106.833 -129.501 136.5
s-119.5 44.5 -191.5 44.5c-87.333 0 -167.5 -34.833 -240.5 -104.5s-121.5 -167.5 -145.5 -293.5zM748.001 1821l-175 -211h-195l291 407h157l291 -407h-197z" />
    <glyph glyph-name="edieresis" unicode="&#xeb;" horiz-adv-x="1473" 
d="M1115 360h233v-14c0 -62 -24.667 -125.167 -74 -189.5s-114.333 -112.833 -195 -145.5s-173.667 -49 -279 -49c-213.333 0 -377.5 68.667 -492.5 206s-172.5 311 -172.5 521c0 214.667 60.833 392.667 182.5 534s279.167 212 472.5 212c105.333 0 201 -22.833 287 -68.5
s154 -117 204 -214s75 -232.833 75 -407.5v-76h-990c0 -150 40.167 -273.167 120.5 -369.5s191.5 -144.5 333.5 -144.5c103.333 0 178.333 19.667 225 59s70 83.333 70 132v14zM380 844h753.001v28c0 64.667 -15.333 127.667 -46 189s-73.834 106.833 -129.501 136.5
s-119.5 44.5 -191.5 44.5c-87.333 0 -167.5 -34.833 -240.5 -104.5s-121.5 -167.5 -145.5 -293.5zM360.001 1610v233h233v-233h-233zM902.001 1610v233h233v-233h-233z" />
    <glyph glyph-name="igrave" unicode="&#xec;" horiz-adv-x="601" 
d="M183 1397h233v-1397h-233v1397zM669 1610h-213l-428 407h271z" />
    <glyph glyph-name="iacute" unicode="&#xed;" horiz-adv-x="601" 
d="M183 1397h233v-1397h-233v1397zM28 1610l370 407h271l-428 -407h-213z" />
    <glyph glyph-name="icircumflex" unicode="&#xee;" horiz-adv-x="601" 
d="M185 1397h233v-1397h-233v1397zM301 1821l-174 -211h-195l291 407h155l291 -407h-195z" />
    <glyph glyph-name="idieresis" unicode="&#xef;" horiz-adv-x="601" 
d="M183 1397h233v-1397h-233v1397zM-88 1610v233h233v-233h-233zM454 1610v233h235v-233h-235z" />
    <glyph glyph-name="eth" unicode="&#xf0;" horiz-adv-x="1523" 
d="M1097 1238c-32 81.333 -72.498 156.497 -121.498 225.497s-123.5 141.167 -223.5 216.5l-282 -255l-128 146l225 201c-106 34 -216.667 51 -332 51h-32v194h44c99.333 0 187.166 -4.66699 263.499 -14s156.833 -31.333 241.5 -66l269 243l128 -144l-223 -201
c124.667 -100.667 220.167 -203.667 286.5 -309s117 -225.166 152 -359.499s52.5 -267.833 52.5 -400.5c0 -245.333 -57.667 -440.666 -173 -585.999s-278.666 -218 -489.999 -218c-197.333 0 -356 66 -476 198s-180 301.667 -180 509c0 139.333 27.5 260.333 82.5 363
s133.167 182.667 234.5 240s208 86 320 86c47.333 0 97.166 -5.66699 149.499 -17s123.166 -45.666 212.499 -102.999zM758.002 154.997c121.333 0 221 47.167 299 141.5s117 215.166 117 362.499s-39 268.166 -117 362.499s-177.667 141.5 -299 141.5
c-123.333 0 -223.833 -47.167 -301.5 -141.5s-116.5 -215.166 -116.5 -362.499s38.833 -268.166 116.5 -362.499s178.167 -141.5 301.5 -141.5z" />
    <glyph glyph-name="ntilde" unicode="&#xf1;" horiz-adv-x="1493" 
d="M416 0l-232.996 0.00195312v1397h233v-242c49.333 75.333 97.166 131.333 143.499 168s94.666 64.5 144.999 83.5s106.166 28.5 167.499 28.5c88.667 0 167.5 -17.833 236.5 -53.5s122.833 -88.334 161.5 -158.001s58 -181.5 58 -335.5v-888h-233v790
c0 124.667 -8.33301 213 -25 265s-49.167 92.833 -97.5 122.5s-100.5 44.5 -156.5 44.5c-68.667 0 -133.834 -20.167 -195.501 -60.5s-111.167 -96.333 -148.5 -168s-56 -173.834 -56 -306.501v-687zM504.004 1610l-154.003 0.000976562c0 109.333 21.333 189.833 64 241.5
s96.334 77.5 161.001 77.5c52 0 104.667 -16 158 -48l53 -32c68 -43.333 116 -65 144 -65c50 0 75 48.333 75 145h158c-5.33301 -84.667 -16.666 -146.334 -33.999 -185.001s-44 -70.667 -80 -96s-75.667 -38 -119 -38c-56 0 -114.667 20 -176 60l-55 36
c-49.333 32 -84.666 48 -105.999 48c-59.333 0 -89 -48 -89 -144z" />
    <glyph glyph-name="ograve" unicode="&#xf2;" horiz-adv-x="1551" 
d="M776 -38c-182.667 0 -338.167 61.667 -466.5 185s-192.5 307.333 -192.5 552c0 242.667 64.167 426 192.5 550s283.833 186 466.5 186c182 0 337.333 -62 466 -186s193 -307.333 193 -550c0 -244.667 -64.333 -428.667 -193 -552s-284 -185 -466 -185zM776 155
c126 0 226.833 49.833 302.5 149.5s113.5 231.167 113.5 394.5c0 162 -37.833 293 -113.5 393s-176.5 150 -302.5 150s-226.833 -50 -302.5 -150s-113.5 -231 -113.5 -393c0 -163.333 37.833 -294.833 113.5 -394.5s176.5 -149.5 302.5 -149.5zM1143 1610h-213l-426 407h270
z" />
    <glyph glyph-name="oacute" unicode="&#xf3;" horiz-adv-x="1551" 
d="M776 -38c-182.667 0 -338.167 61.667 -466.5 185s-192.5 307.333 -192.5 552c0 242.667 64.167 426 192.5 550s283.833 186 466.5 186c182 0 337.333 -62 466 -186s193 -307.333 193 -550c0 -244.667 -64.333 -428.667 -193 -552s-284 -185 -466 -185zM776 155
c126 0 226.833 49.833 302.5 149.5s113.5 231.167 113.5 394.5c0 162 -37.833 293 -113.5 393s-176.5 150 -302.5 150s-226.833 -50 -302.5 -150s-113.5 -231 -113.5 -393c0 -163.333 37.833 -294.833 113.5 -394.5s176.5 -149.5 302.5 -149.5zM543 1610l369 407h270
l-426 -407h-213z" />
    <glyph glyph-name="ocircumflex" unicode="&#xf4;" horiz-adv-x="1551" 
d="M776 -38c-182.667 0 -338.167 61.667 -466.5 185s-192.5 307.333 -192.5 552c0 242.667 64.167 426 192.5 550s283.833 186 466.5 186c182 0 337.333 -62 466 -186s193 -307.333 193 -550c0 -244.667 -64.333 -428.667 -193 -552s-284 -185 -466 -185zM776 155
c126 0 226.833 49.833 302.5 149.5s113.5 231.167 113.5 394.5c0 162 -37.833 293 -113.5 393s-176.5 150 -302.5 150s-226.833 -50 -302.5 -150s-113.5 -231 -113.5 -393c0 -163.333 37.833 -294.833 113.5 -394.5s176.5 -149.5 302.5 -149.5zM776 1821l-175 -211h-193
l291 407h155l291 -407h-195z" />
    <glyph glyph-name="otilde" unicode="&#xf5;" horiz-adv-x="1551" 
d="M776 -38c-182.667 0 -338.167 61.667 -466.5 185s-192.5 307.333 -192.5 552c0 242.667 64.167 426 192.5 550s283.833 186 466.5 186c182 0 337.333 -62 466 -186s193 -307.333 193 -550c0 -244.667 -64.333 -428.667 -193 -552s-284 -185 -466 -185zM776 155
c126 0 226.833 49.833 302.5 149.5s113.5 231.167 113.5 394.5c0 162 -37.833 293 -113.5 393s-176.5 150 -302.5 150s-226.833 -50 -302.5 -150s-113.5 -231 -113.5 -393c0 -163.333 37.833 -294.833 113.5 -394.5s176.5 -149.5 302.5 -149.5zM524 1610
l-154.002 0.000976562c0 109.333 21.333 189.833 64 241.5s96.334 77.5 161.001 77.5c52 0 104.333 -16 157 -48l54 -32c68 -43.333 116 -65 144 -65c50 0 75 48.333 75 145h159c-5.33301 -84.667 -16.833 -146.334 -34.5 -185.001s-44.5 -70.667 -80.5 -96
s-75.667 -38 -119 -38c-57.333 0 -116 20 -176 60l-55 36c-49.333 32 -84.666 48 -105.999 48c-59.333 0 -89 -48 -89 -144z" />
    <glyph glyph-name="odieresis" unicode="&#xf6;" horiz-adv-x="1551" 
d="M776 -38c-182.667 0 -338.167 61.667 -466.5 185s-192.5 307.333 -192.5 552c0 242.667 64.167 426 192.5 550s283.833 186 466.5 186c182 0 337.333 -62 466 -186s193 -307.333 193 -550c0 -244.667 -64.333 -428.667 -193 -552s-284 -185 -466 -185zM776 155
c126 0 226.833 49.833 302.5 149.5s113.5 231.167 113.5 394.5c0 162 -37.833 293 -113.5 393s-176.5 150 -302.5 150s-226.833 -50 -302.5 -150s-113.5 -231 -113.5 -393c0 -163.333 37.833 -294.833 113.5 -394.5s176.5 -149.5 302.5 -149.5zM388 1610v233h233v-233h-233z
M930 1610v233h235v-233h-235z" />
    <glyph glyph-name="divide" unicode="&#xf7;" 
d="M1551 796v-195h-1396v195h1396zM975 1222v-233h-234v233h234zM975 398v-223h-234v223h234z" />
    <glyph glyph-name="oslash" unicode="&#xf8;" horiz-adv-x="1551" 
d="M340 -38h-223l164 215c-70.667 89.333 -115.667 176.333 -135 261s-29 173.667 -29 267c0 240 64.5 421.667 193.5 545s284.833 185 467.5 185c131.333 0 253 -35 365 -105l77 105h215l-161 -221c64 -80.667 106.833 -163.5 128.5 -248.5s32.5 -175.167 32.5 -270.5
c0 -247.333 -66 -431.333 -198 -552s-283.667 -181 -455 -181c-136.667 0 -258.667 32.667 -366 98zM428 376l585 782.999c-70 55.333 -149 83 -237 83c-126 0 -226.833 -50.667 -302.5 -152s-113.5 -231 -113.5 -389c0 -123.333 22.667 -231.666 68 -324.999zM1125 1017
l-583.999 -783.999c69.333 -52 147.666 -78 234.999 -78c126 0 226.833 50.167 302.5 150.5s113.5 230.166 113.5 389.499c0 120.667 -22.333 228 -67 322z" />
    <glyph glyph-name="ugrave" unicode="&#xf9;" horiz-adv-x="1493" 
d="M1077 1397l231 0.00195312v-1397h-231v243c-48 -74.667 -95.5 -130.834 -142.5 -168.501s-95.333 -65.834 -145 -84.501s-103.167 -28 -160.5 -28c-130 0 -239.833 36.5 -329.5 109.5s-134.5 219.167 -134.5 438.5v887h233v-788c0 -204 27.167 -327.333 81.5 -370
s120.833 -64 199.5 -64c70 0 135.5 20 196.5 60s109.833 96.5 146.5 169.5s55 174.5 55 304.5v688zM1067 1610h-213l-428 407h269z" />
    <glyph glyph-name="uacute" unicode="&#xfa;" horiz-adv-x="1493" 
d="M1077 1397l231 0.00195312v-1397h-231v243c-48 -74.667 -95.5 -130.834 -142.5 -168.501s-95.333 -65.834 -145 -84.501s-103.167 -28 -160.5 -28c-130 0 -239.833 36.5 -329.5 109.5s-134.5 219.167 -134.5 438.5v887h233v-788c0 -204 27.167 -327.333 81.5 -370
s120.833 -64 199.5 -64c70 0 135.5 20 196.5 60s109.833 96.5 146.5 169.5s55 174.5 55 304.5v688zM504 1610l370 407h269l-428 -407h-211z" />
    <glyph glyph-name="ucircumflex" unicode="&#xfb;" horiz-adv-x="1493" 
d="M1077 1397l231 0.00195312v-1397h-231v243c-48 -74.667 -95.5 -130.834 -142.5 -168.501s-95.333 -65.834 -145 -84.501s-103.167 -28 -160.5 -28c-130 0 -239.833 36.5 -329.5 109.5s-134.5 219.167 -134.5 438.5v887h233v-788c0 -204 27.167 -327.333 81.5 -370
s120.833 -64 199.5 -64c70 0 135.5 20 196.5 60s109.833 96.5 146.5 169.5s55 174.5 55 304.5v688zM735 1821l-174 -211h-193l291 407h155l291 -407h-195z" />
    <glyph glyph-name="udieresis" unicode="&#xfc;" horiz-adv-x="1493" 
d="M1077 1397l231 0.00195312v-1397h-231v243c-48 -74.667 -95.5 -130.834 -142.5 -168.501s-95.333 -65.834 -145 -84.501s-103.167 -28 -160.5 -28c-130 0 -239.833 36.5 -329.5 109.5s-134.5 219.167 -134.5 438.5v887h233v-788c0 -204 27.167 -327.333 81.5 -370
s120.833 -64 199.5 -64c70 0 135.5 20 196.5 60s109.833 96.5 146.5 169.5s55 174.5 55 304.5v688zM350 1610v233h231v-233h-231zM892 1610v233h233v-233h-233z" />
    <glyph glyph-name="yacute" unicode="&#xfd;" horiz-adv-x="1463" 
d="M639 60l-600.999 1337h257l469 -1037l438 1037h233l-589 -1399c-79.333 -187.333 -145.666 -311.833 -198.999 -373.5s-109.833 -105 -169.5 -130s-139.167 -37.5 -238.5 -37.5h-175v193h133c64 0 120.167 8.83301 168.5 26.5s88.666 45.167 120.999 82.5
s75.166 119.666 128.499 246.999zM601.001 1610l370 407h269l-428 -407h-211z" />
    <glyph glyph-name="thorn" unicode="&#xfe;" horiz-adv-x="1541" 
d="M398 -543h-233v2482h233v-786c48 83.333 93.833 142 137.5 176s93 60.167 148 78.5s111.833 27.5 170.5 27.5c106 0 203.167 -28.833 291.5 -86.5s157 -144.167 206 -259.5s73.5 -244.666 73.5 -387.999c0 -212.667 -51 -389 -153 -529s-245.333 -210 -430 -210
c-58.667 0 -114.5 8.33301 -167.5 25s-100 42.167 -141 76.5s-86.167 94.166 -135.5 179.499v-786zM398 697c0 -158 34.166 -287.832 102.499 -389.499s164.833 -152.5 289.5 -152.5c112 0 205.667 45.167 281 135.5s113 224.5 113 402.5
c0 209.333 -39.667 354.833 -119 436.5s-169.666 122.5 -270.999 122.5c-74 0 -142.833 -22.5 -206.5 -67.5s-111.167 -111.333 -142.5 -199s-47 -183.834 -47 -288.501z" />
    <glyph glyph-name="ydieresis" unicode="&#xff;" horiz-adv-x="1463" 
d="M639 60l-600.999 1337h257l469 -1037l438 1037h233l-589 -1399c-79.333 -187.333 -145.666 -311.833 -198.999 -373.5s-109.833 -105 -169.5 -130s-139.167 -37.5 -238.5 -37.5h-175v193h133c64 0 120.167 8.83301 168.5 26.5s88.666 45.167 120.999 82.5
s75.166 119.666 128.499 246.999zM370.001 1610v233h231v-233h-231zM910.001 1610v233h235v-233h-235z" />
    <glyph glyph-name="Amacron" unicode="&#x100;" horiz-adv-x="1861" 
d="M273 0h-235l796 1939h255l734 -1939h-274l-201 535h-856zM569 727h705l-340 903zM581 2068v154h699v-154h-699z" />
    <glyph glyph-name="amacron" unicode="&#x101;" horiz-adv-x="1417" 
d="M1045 0c-24 75.333 -36 139.665 -36 192.998c-102 -100.667 -188.833 -164.334 -260.5 -191.001s-140.834 -40 -207.501 -40c-110 0 -204.833 33.833 -284.5 101.5s-119.5 161.167 -119.5 280.5c0 135.333 55.833 239.5 167.5 312.5s304.834 136.167 579.501 189.5
l125 24v157c0 85.333 -28.833 145.5 -86.5 180.5s-126.834 52.5 -207.501 52.5c-96 0 -171.167 -21.167 -225.5 -63.5s-81.5 -92.166 -81.5 -149.499v-20h-253v20c0 61.333 26 124.833 78 190.5s121.333 115.334 208 149.001s180.667 50.5 282 50.5
c102 0 194.5 -16.167 277.5 -48.5s144 -75.166 183 -128.499s58.5 -154 58.5 -302v-542c0 -60 1.33301 -122.5 4 -187.5s17.334 -141.167 44.001 -228.5h-245zM1009 704.999l-70.998 -18.001c-235.333 -57.333 -385.833 -111.833 -451.5 -163.5
s-98.5 -112.834 -98.5 -183.501c0 -38 9.66699 -72.667 29 -104s48.166 -55.666 86.499 -72.999s76.166 -26 113.499 -26c65.333 0 129.5 18.667 192.5 56s112 87.833 147 151.5s52.5 137.834 52.5 222.501v138zM364.002 1563v155h699v-155h-699z" />
    <glyph glyph-name="Abreve" unicode="&#x102;" horiz-adv-x="1861" 
d="M273 0h-235l796 1939h255l734 -1939h-274l-201 535h-856zM569 727h705l-340 903zM721 2476c8 -64.667 32.167 -121.5 72.5 -170.5s85.833 -73.5 136.5 -73.5c51.333 0 97 24.833 137 74.5s64 106.167 72 169.5h159c-9.33301 -92.667 -32.333 -167.834 -69 -225.5
c-36.667 -57.667 -81.5 -102.5 -134.5 -134.5s-107.833 -48 -164.5 -48c-54.667 0 -108.5 16 -161.5 48s-98.167 76.833 -135.5 134.5s-61.333 132.834 -72 225.5h160z" />
    <glyph glyph-name="abreve" unicode="&#x103;" horiz-adv-x="1417" 
d="M1045 0c-24 75.333 -36 139.665 -36 192.998c-102 -100.667 -188.833 -164.334 -260.5 -191.001s-140.834 -40 -207.501 -40c-110 0 -204.833 33.833 -284.5 101.5s-119.5 161.167 -119.5 280.5c0 135.333 55.833 239.5 167.5 312.5s304.834 136.167 579.501 189.5
l125 24v157c0 85.333 -28.833 145.5 -86.5 180.5s-126.834 52.5 -207.501 52.5c-96 0 -171.167 -21.167 -225.5 -63.5s-81.5 -92.166 -81.5 -149.499v-20h-253v20c0 61.333 26 124.833 78 190.5s121.333 115.334 208 149.001s180.667 50.5 282 50.5
c102 0 194.5 -16.167 277.5 -48.5s144 -75.166 183 -128.499s58.5 -154 58.5 -302v-542c0 -60 1.33301 -122.5 4 -187.5s17.334 -141.167 44.001 -228.5h-245zM1009 704.999l-70.998 -18.001c-235.333 -57.333 -385.833 -111.833 -451.5 -163.5
s-98.5 -112.834 -98.5 -183.501c0 -38 9.66699 -72.667 29 -104s48.166 -55.666 86.499 -72.999s76.166 -26 113.499 -26c65.333 0 129.5 18.667 192.5 56s112 87.833 147 151.5s52.5 137.834 52.5 222.501v138zM504.002 1971c6.66699 -64 30.5 -120.501 71.5 -169.501
s86.833 -73.5 137.5 -73.5c51.333 0 97 24.833 137 74.5s63.333 105.834 70 168.501h161c-9.33301 -92 -32.833 -166.5 -70.5 -223.5s-82.5 -102 -134.5 -135s-106.333 -49.5 -163 -49.5c-54.667 0 -108.5 16.5 -161.5 49.5s-98.167 78 -135.5 135s-61.333 131.5 -72 223.5
h160z" />
    <glyph glyph-name="Aogonek" unicode="&#x104;" horiz-adv-x="1861" 
d="M273 0h-234.998l796 1939h255l734 -1939h-59c-54 -32 -99.333 -72.333 -136 -121c-46 -62.667 -69 -114 -69 -154c0 -25.333 11.833 -49.833 35.5 -73.5s62.167 -35.5 115.5 -35.5c29.333 0 62.666 8 99.999 24v-120c-54.667 -25.333 -107.334 -38 -158.001 -38
c-78 0 -142.167 21 -192.5 63s-75.5 95.333 -75.5 160c0 94 54.333 193.667 163 299l-199 531h-856zM569.002 727h705l-340 903z" />
    <glyph glyph-name="aogonek" unicode="&#x105;" horiz-adv-x="1417" 
d="M1290 24c-2.66699 -1.33301 -4.99902 -2.33398 -6.99902 -3.00098c2.66699 -7.33301 5 -14.333 7 -21h-46c-54 -32 -99.333 -72.667 -136 -122c-46 -63.333 -69 -114.333 -69 -153c0 -26.667 11.667 -51.834 35 -75.501s62 -35.5 116 -35.5c29.333 0 62.666 8 99.999 24
v-120c-54.667 -24 -107.667 -36 -159 -36c-77.333 0 -141.166 20.667 -191.499 62s-75.5 94.333 -75.5 159c0 97.333 58.667 201.333 176 312c-20.667 68.667 -31 128 -31 178c-102 -100.667 -188.833 -164.334 -260.5 -191.001s-140.834 -40 -207.501 -40
c-110 0 -204.833 33.833 -284.5 101.5s-119.5 161.167 -119.5 280.5c0 135.333 55.833 239.5 167.5 312.5s304.834 136.167 579.501 189.5l125 24v157c0 85.333 -28.833 145.5 -86.5 180.5s-126.834 52.5 -207.501 52.5c-96 0 -171.167 -21.167 -225.5 -63.5
s-81.5 -92.166 -81.5 -149.499v-20h-253v20c0 61.333 26 124.833 78 190.5s121.333 115.334 208 149.001s180.667 50.5 282 50.5c102 0 194.5 -16.167 277.5 -48.5s144 -75.166 183 -128.499s58.5 -154 58.5 -302v-542c0 -60 1.33301 -122.667 4 -188
c2 -58.667 14 -126.667 36 -204h8zM1009 704.999l-70.998 -18.001c-235.333 -57.333 -385.833 -111.833 -451.5 -163.5s-98.5 -112.834 -98.5 -183.501c0 -38 9.66699 -72.667 29 -104s48.166 -55.666 86.499 -72.999s76.166 -26 113.499 -26
c65.333 0 129.5 18.667 192.5 56s112 87.833 147 151.5s52.5 137.834 52.5 222.501v138z" />
    <glyph glyph-name="Cacute" unicode="&#x106;" horiz-adv-x="1650" 
d="M1338 418h233v-12c0 -78 -26.333 -156.5 -79 -235.5s-124.667 -136.833 -216 -173.5s-198 -55 -320 -55c-246 0 -447.333 85.667 -604 257s-235 428.666 -235 771.999c0 340 78 596.333 234 769s358.333 259 607 259c120.667 0 226.667 -18.667 318 -56
s163.333 -96.166 216 -176.499s79 -157.5 79 -231.5v-12h-233v12c0 47.333 -15 93 -45 137s-72.5 77 -127.5 99s-121.167 33 -198.5 33c-198.667 0 -346.5 -78.333 -443.5 -235s-145.5 -356 -145.5 -598c0 -245.333 48.5 -446 145.5 -602s244.167 -234 441.5 -234
c134.667 0 230.5 28 287.5 84s85.5 118.333 85.5 187v12zM538 2152l388 253h408l-495 -253h-301z" />
    <glyph glyph-name="cacute" unicode="&#x107;" horiz-adv-x="1397" 
d="M1057 360l233.001 0.000976562v-14c0 -62 -23.5 -124.833 -70.5 -188.5s-108.667 -112.167 -185 -145.5s-167.833 -50 -274.5 -50c-206.667 0 -365.5 65 -476.5 195s-166.5 310.667 -166.5 542c0 229.333 55.5 409.333 166.5 540s269.833 196 476.5 196
c106.667 0 198.167 -16.833 274.5 -50.5s138 -80 185 -139s70.5 -123.833 70.5 -194.5v-14h-233v14c2.66699 49.333 -19.833 93.5 -67.5 132.5s-120.167 58.5 -217.5 58.5c-116.667 0 -214.5 -42.833 -293.5 -128.5s-118.5 -223.834 -118.5 -414.501
c0 -191.333 39.5 -329.833 118.5 -415.5s176.833 -128.5 293.5 -128.5c97.333 0 169.166 19 215.499 57s69.5 82.667 69.5 134v14zM399.001 1610l370 407h269l-426 -407h-213z" />
    <glyph glyph-name="Ccircumflex" unicode="&#x108;" horiz-adv-x="1668" 
d="M1338 418h233v-12c0 -78 -26.333 -156.5 -79 -235.5s-124.667 -136.833 -216 -173.5s-198 -55 -320 -55c-246 0 -447.333 85.667 -604 257s-235 428.666 -235 771.999c0 340 78 596.333 234 769s358.333 259 607 259c120.667 0 226.667 -18.667 318 -56
s163.333 -96.166 216 -176.499s79 -157.5 79 -231.5v-12h-233v12c0 47.333 -15 93 -45 137s-72.5 77 -127.5 99s-121.167 33 -198.5 33c-198.667 0 -346.5 -78.333 -443.5 -235s-145.5 -356 -145.5 -598c0 -245.333 48.5 -446 145.5 -602s244.167 -234 441.5 -234
c134.667 0 230.5 28 287.5 84s85.5 118.333 85.5 187v12zM930 2337l-174 -211h-193l291 408h155l291 -408h-195z" />
    <glyph glyph-name="ccircumflex" unicode="&#x109;" horiz-adv-x="1397" 
d="M1057 360l233.001 0.000976562v-14c0 -62 -23.5 -124.833 -70.5 -188.5s-108.667 -112.167 -185 -145.5s-167.833 -50 -274.5 -50c-206.667 0 -365.5 65 -476.5 195s-166.5 310.667 -166.5 542c0 229.333 55.5 409.333 166.5 540s269.833 196 476.5 196
c106.667 0 198.167 -16.833 274.5 -50.5s138 -80 185 -139s70.5 -123.833 70.5 -194.5v-14h-233v14c2.66699 49.333 -19.833 93.5 -67.5 132.5s-120.167 58.5 -217.5 58.5c-116.667 0 -214.5 -42.833 -293.5 -128.5s-118.5 -223.834 -118.5 -414.501
c0 -191.333 39.5 -329.833 118.5 -415.5s176.833 -128.5 293.5 -128.5c97.333 0 169.166 19 215.499 57s69.5 82.667 69.5 134v14zM766.001 1772l-175 -209h-195l291 406h155l291 -406h-195z" />
    <glyph glyph-name="Cdotaccent" unicode="&#x10a;" horiz-adv-x="1668" 
d="M1338 418h233v-12c0 -78 -26.333 -156.5 -79 -235.5s-124.667 -136.833 -216 -173.5s-198 -55 -320 -55c-246 0 -447.333 85.667 -604 257s-235 428.666 -235 771.999c0 340 78 596.333 234 769s358.333 259 607 259c120.667 0 226.667 -18.667 318 -56
s163.333 -96.166 216 -176.499s79 -157.5 79 -231.5v-12h-233v12c0 47.333 -15 93 -45 137s-72.5 77 -127.5 99s-121.167 33 -198.5 33c-198.667 0 -346.5 -78.333 -443.5 -235s-145.5 -356 -145.5 -598c0 -245.333 48.5 -446 145.5 -602s244.167 -234 441.5 -234
c134.667 0 230.5 28 287.5 84s85.5 118.333 85.5 187v12zM816 2126v233h231v-233h-231z" />
    <glyph glyph-name="cdotaccent" unicode="&#x10b;" horiz-adv-x="1397" 
d="M1057 360l233.001 0.000976562v-14c0 -62 -23.5 -124.833 -70.5 -188.5s-108.667 -112.167 -185 -145.5s-167.833 -50 -274.5 -50c-206.667 0 -365.5 65 -476.5 195s-166.5 310.667 -166.5 542c0 229.333 55.5 409.333 166.5 540s269.833 196 476.5 196
c106.667 0 198.167 -16.833 274.5 -50.5s138 -80 185 -139s70.5 -123.833 70.5 -194.5v-14h-233v14c2.66699 49.333 -19.833 93.5 -67.5 132.5s-120.167 58.5 -217.5 58.5c-116.667 0 -214.5 -42.833 -293.5 -128.5s-118.5 -223.834 -118.5 -414.501
c0 -191.333 39.5 -329.833 118.5 -415.5s176.833 -128.5 293.5 -128.5c97.333 0 169.166 19 215.499 57s69.5 82.667 69.5 134v14zM637.001 1563v231h231v-231h-231z" />
    <glyph glyph-name="Ccaron" unicode="&#x10c;" horiz-adv-x="1650" 
d="M1338 418h233v-12c0 -78 -26.333 -156.5 -79 -235.5s-124.667 -136.833 -216 -173.5s-198 -55 -320 -55c-246 0 -447.333 85.667 -604 257s-235 428.666 -235 771.999c0 340 78 596.333 234 769s358.333 259 607 259c120.667 0 226.667 -18.667 318 -56
s163.333 -96.166 216 -176.499s79 -157.5 79 -231.5v-12h-233v12c0 47.333 -15 93 -45 137s-72.5 77 -127.5 99s-121.167 33 -198.5 33c-198.667 0 -346.5 -78.333 -443.5 -235s-145.5 -356 -145.5 -598c0 -245.333 48.5 -446 145.5 -602s244.167 -234 441.5 -234
c134.667 0 230.5 28 287.5 84s85.5 118.333 85.5 187v12zM976 2327l174 78h272l-370 -253h-155l-367 253h271z" />
    <glyph glyph-name="ccaron" unicode="&#x10d;" horiz-adv-x="1397" 
d="M1057 360l233.001 0.000976562v-14c0 -62 -23.5 -124.833 -70.5 -188.5s-108.667 -112.167 -185 -145.5s-167.833 -50 -274.5 -50c-206.667 0 -365.5 65 -476.5 195s-166.5 310.667 -166.5 542c0 229.333 55.5 409.333 166.5 540s269.833 196 476.5 196
c106.667 0 198.167 -16.833 274.5 -50.5s138 -80 185 -139s70.5 -123.833 70.5 -194.5v-14h-233v14c2.66699 49.333 -19.833 93.5 -67.5 132.5s-120.167 58.5 -217.5 58.5c-116.667 0 -214.5 -42.833 -293.5 -128.5s-118.5 -223.834 -118.5 -414.501
c0 -191.333 39.5 -329.833 118.5 -415.5s176.833 -128.5 293.5 -128.5c97.333 0 169.166 19 215.499 57s69.5 82.667 69.5 134v14zM762.001 1808l172 209h195l-291 -407h-155l-291 407h195z" />
    <glyph glyph-name="Dcaron" unicode="&#x10e;" horiz-adv-x="1794" 
d="M183 0v1939h536c261.333 0 452.333 -35.167 573 -105.5s215.167 -178.166 283.5 -323.499s102.5 -323 102.5 -533c0 -196 -30.833 -365.667 -92.5 -509s-154.5 -257.166 -278.5 -341.499s-307.667 -126.5 -551 -126.5h-573zM436 212.998h297.001
c178.667 0 313.167 26.167 403.5 78.5s159.333 134 207 245s71.5 250.833 71.5 419.5c0 169.333 -21.833 314.5 -65.5 435.5s-110.334 210 -200.001 267s-230.5 85.5 -422.5 85.5h-291v-1531zM854.001 2265l175 211h195l-292 -408h-154l-292 408h193z" />
    <glyph glyph-name="dcaron" unicode="&#x10f;" horiz-adv-x="1887" 
d="M1143 2017h233.001v-2017h-233v243c-46.667 -91.333 -92.5 -154.333 -137.5 -189s-95.5 -58.667 -151.5 -72s-111.667 -20 -167 -20c-106 0 -203.167 28.833 -291.5 86.5s-156.833 144 -205.5 259s-73 244.167 -73 387.5c0 212 51.167 388.333 153.5 529
s245.166 211 428.499 211c60.667 0 117 -8.5 169 -25.5s98.5 -42.5 139.5 -76.5s86.167 -94 135.5 -180v864zM1143 699c0 158 -34.166 288 -102.499 390s-163.833 153 -286.5 153c-112.667 0 -206.5 -45.167 -281.5 -135.5s-112.5 -224.833 -112.5 -403.5
c0 -210 36.167 -355.5 108.5 -436.5s165.5 -121.5 279.5 -121.5c73.333 0 142.166 22.333 206.499 67s111.833 111 142.5 199s46 184 46 288zM1503 1684l-0.000976562 150.999c40 22.667 70.833 50.667 92.5 84s37.834 68.5 48.501 105.5s16 78.167 16 123.5h-157v332h332
v-205c0 -124.667 -12.167 -219.167 -36.5 -283.5s-60.5 -123.666 -108.5 -177.999s-110.333 -97.5 -187 -129.5z" />
    <glyph glyph-name="Dcroat" unicode="&#x110;" horiz-adv-x="1794" 
d="M183 0l-0.00195312 891.998h-231v195h231v852h536c262.667 0 454.334 -35.167 575.001 -105.5s214.834 -178.166 282.501 -323.499s101.5 -323 101.5 -533c0 -196 -30.833 -365.667 -92.5 -509s-154.167 -257.166 -277.5 -341.499s-307.333 -126.5 -552 -126.5h-573z
M435.998 212.998h297.002c178.667 0 313.167 26.167 403.5 78.5s159.333 134 207 245s71.5 250.833 71.5 419.5c0 169.333 -21.833 314.5 -65.5 435.5s-110.334 210 -200.001 267s-229.834 85.5 -420.501 85.5h-293v-657h350v-195h-350v-679z" />
    <glyph glyph-name="dcroat" unicode="&#x111;" horiz-adv-x="1541" 
d="M1143 2017h233.001v-291h234v-193h-234v-1533h-233v243c-56 -88 -104.167 -148.5 -144.5 -181.5s-88.5 -57.833 -144.5 -74.5s-111.667 -25 -167 -25c-106 0 -203.167 28.833 -291.5 86.5s-156.833 144 -205.5 259s-73 244.167 -73 387.5c0 212 51.167 388.333 153.5 529
s245.166 211 428.499 211c60.667 0 117 -8.5 169 -25.5s98.5 -42.5 139.5 -76.5s86.167 -94 135.5 -180v380h-347v193h347v291zM1143 699c0 158 -34.166 288 -102.499 390s-163.833 153 -286.5 153c-112.667 0 -206.5 -45.167 -281.5 -135.5s-112.5 -224.833 -112.5 -403.5
c0 -210 39.5 -355.5 118.5 -436.5s168.833 -121.5 269.5 -121.5c73.333 0 142.166 22.333 206.499 67s111.833 111 142.5 199s46 184 46 288z" />
    <glyph glyph-name="Emacron" unicode="&#x112;" horiz-adv-x="1473" 
d="M183 0v1939h1097v-213h-844v-611h738v-195h-738v-707h912v-213h-1165zM416 2068v154h699v-154h-699z" />
    <glyph glyph-name="emacron" unicode="&#x113;" horiz-adv-x="1473" 
d="M1097 360h231.001v-14c0 -62 -24.333 -125.167 -73 -189.5s-113.667 -112.833 -195 -145.5s-174 -49 -278 -49c-213.333 0 -377.5 68.667 -492.5 206s-172.5 311 -172.5 521c0 214.667 60.833 392.667 182.5 534s279.167 212 472.5 212c105.333 0 201 -22.833 287 -68.5
s154 -117 204 -214s75 -232.833 75 -407.5v-76h-992c0 -150 40.167 -273.167 120.5 -369.5s192.166 -144.5 335.499 -144.5c101.333 0 175.833 19.667 223.5 59s71.5 83.333 71.5 132v14zM362.001 844h753.001v28c0 64.667 -15.667 127.667 -47 189
s-74.5 106.833 -129.5 136.5s-119.5 44.5 -193.5 44.5c-85.333 0 -164.833 -34.833 -238.5 -104.5s-121.834 -167.5 -144.501 -293.5zM416.002 1563v155h697v-155h-697z" />
    <glyph glyph-name="Ebreve" unicode="&#x114;" horiz-adv-x="1473" 
d="M183 0v1939h1097v-213h-844v-611h738v-195h-738v-707h912v-213h-1165zM557 2476c6.66699 -64.667 30.3311 -121.5 70.998 -170.5s86.667 -73.5 138 -73.5c50.667 0 96.167 24.833 136.5 74.5s64.5 106.167 72.5 169.5h158
c-9.33301 -92.667 -32.666 -167.834 -69.999 -225.5c-37.333 -57.667 -82.166 -102.5 -134.499 -134.5s-106.5 -48 -162.5 -48c-55.333 0 -109.5 16 -162.5 48s-98.167 76.833 -135.5 134.5s-61.333 132.834 -72 225.5h161z" />
    <glyph glyph-name="ebreve" unicode="&#x115;" horiz-adv-x="1473" 
d="M1097 360h231.001v-14c0 -62 -24.333 -125.167 -73 -189.5s-113.667 -112.833 -195 -145.5s-174 -49 -278 -49c-213.333 0 -377.5 68.667 -492.5 206s-172.5 311 -172.5 521c0 214.667 60.833 392.667 182.5 534s279.167 212 472.5 212c105.333 0 201 -22.833 287 -68.5
s154 -117 204 -214s75 -232.833 75 -407.5v-76h-992c0 -150 40.167 -273.167 120.5 -369.5s192.166 -144.5 335.499 -144.5c101.333 0 175.833 19.667 223.5 59s71.5 83.333 71.5 132v14zM362.001 844h753.001v28c0 64.667 -15.667 127.667 -47 189
s-74.5 106.833 -129.5 136.5s-119.5 44.5 -193.5 44.5c-85.333 0 -164.833 -34.833 -238.5 -104.5s-121.834 -167.5 -144.501 -293.5zM543.002 1969c8 -64 32.333 -120.167 73 -168.5s86 -72.5 136 -72.5c50.667 0 96 24.833 136 74.5s64.333 105.167 73 166.5h158
c-9.33301 -92 -32.333 -166.5 -69 -223.5s-81.5 -101.667 -134.5 -134s-107.5 -48.5 -163.5 -48.5c-55.333 0 -109.5 16.167 -162.5 48.5s-98.167 77 -135.5 134s-61.333 131.5 -72 223.5h161z" />
    <glyph glyph-name="Edotaccent" unicode="&#x116;" horiz-adv-x="1473" 
d="M183 0v1939h1097v-213h-844v-611h738v-195h-738v-707h912v-213h-1165zM649 2068v233h233v-233h-233z" />
    <glyph glyph-name="edotaccent" unicode="&#x117;" horiz-adv-x="1473" 
d="M1097 360h231.001v-14c0 -62 -24.333 -125.167 -73 -189.5s-113.667 -112.833 -195 -145.5s-174 -49 -278 -49c-213.333 0 -377.5 68.667 -492.5 206s-172.5 311 -172.5 521c0 214.667 60.833 392.667 182.5 534s279.167 212 472.5 212c105.333 0 201 -22.833 287 -68.5
s154 -117 204 -214s75 -232.833 75 -407.5v-76h-992c0 -150 40.167 -273.167 120.5 -369.5s192.166 -144.5 335.499 -144.5c101.333 0 175.833 19.667 223.5 59s71.5 83.333 71.5 132v14zM362.001 844h753.001v28c0 64.667 -15.667 127.667 -47 189
s-74.5 106.833 -129.5 136.5s-119.5 44.5 -193.5 44.5c-85.333 0 -164.833 -34.833 -238.5 -104.5s-121.834 -167.5 -144.501 -293.5zM647.002 1563v231h233v-231h-233z" />
    <glyph glyph-name="Eogonek" unicode="&#x118;" horiz-adv-x="1473" 
d="M183 0v1939h1097v-213h-844v-611h738v-195h-738v-707h912v-213h-394c-64 -33.333 -116.667 -77.666 -158 -132.999c-46 -62.667 -69 -114 -69 -154c0 -26 11.833 -50.667 35.5 -74s62.167 -35 115.5 -35c29.333 0 63 8 101 24v-122c-55.333 -24 -108.333 -36 -159 -36
c-78 0 -142 20.667 -192 62s-75 94.333 -75 159c0 98 57 201 171 309h-541z" />
    <glyph glyph-name="eogonek" unicode="&#x119;" horiz-adv-x="1473" 
d="M1097 360l231.002 -0.000976562v-14c0 -62 -24.333 -125.167 -73 -189.5s-113.667 -112.833 -195 -145.5c-34.667 -14 -71.334 -25 -110.001 -33c-58 -32 -106 -73.667 -144 -125c-46 -62.667 -69 -114 -69 -154c0 -26 11.833 -50.667 35.5 -74s62.167 -35 115.5 -35
c29.333 0 63 8 101 24v-122c-55.333 -24.667 -108.333 -37 -159 -37c-78 0 -142 21.167 -192 63.5s-75 95.5 -75 159.5c0 90.667 50 186.334 150 287.001c-180 13.333 -321.333 81 -424 203c-114.667 137.333 -172 311 -172 521c0 214.667 60.833 392.667 182.5 534
s279.167 212 472.5 212c105.333 0 201 -22.833 287 -68.5s154 -117 204 -214s75 -232.833 75 -407.5v-76h-992c0 -150 40.167 -273.167 120.5 -369.5s192.166 -144.5 335.499 -144.5c101.333 0 175.833 19.667 223.5 59s71.5 83.333 71.5 132v14zM362.002 843.999h753.001
v28c0 64.667 -15.667 127.667 -47 189s-74.5 106.833 -129.5 136.5s-119.5 44.5 -193.5 44.5c-85.333 0 -164.833 -34.833 -238.5 -104.5s-121.834 -167.5 -144.501 -293.5z" />
    <glyph glyph-name="Ecaron" unicode="&#x11a;" horiz-adv-x="1473" 
d="M183 0v1939h1097v-213h-844v-611h738v-195h-738v-707h912v-213h-1165zM766 2265l172 211h195l-291 -408h-155l-291 408h195z" />
    <glyph glyph-name="ecaron" unicode="&#x11b;" horiz-adv-x="1473" 
d="M1097 360h231.001v-14c0 -62 -24.333 -125.167 -73 -189.5s-113.667 -112.833 -195 -145.5s-174 -49 -278 -49c-213.333 0 -377.5 68.667 -492.5 206s-172.5 311 -172.5 521c0 214.667 60.833 392.667 182.5 534s279.167 212 472.5 212c105.333 0 201 -22.833 287 -68.5
s154 -117 204 -214s75 -232.833 75 -407.5v-76h-992c0 -150 40.167 -273.167 120.5 -369.5s192.166 -144.5 335.499 -144.5c101.333 0 175.833 19.667 223.5 59s71.5 83.333 71.5 132v14zM362.001 844h753.001v28c0 64.667 -15.667 127.667 -47 189
s-74.5 106.833 -129.5 136.5s-119.5 44.5 -193.5 44.5c-85.333 0 -164.833 -34.833 -238.5 -104.5s-121.834 -167.5 -144.501 -293.5zM775.002 1760l175 209h195l-291 -406h-155l-291 406h193z" />
    <glyph glyph-name="Gcircumflex" unicode="&#x11c;" horiz-adv-x="1726" 
d="M1571 88c-206 -97.333 -401.997 -145.999 -587.997 -145.999c-194.667 0 -351.834 38.5 -471.501 115.5s-215.334 187.833 -287.001 332.5s-107.5 330.667 -107.5 558c0 256 33.667 454.667 101 596s162.666 252.166 285.999 332.499s270 120.5 440 120.5
c115.333 0 220.666 -18.333 315.999 -55s171 -92.167 227 -166.5s84 -148.5 84 -222.5v-12h-233v12c0 46 -17.333 88.333 -52 127s-80.167 69 -136.5 91s-120.166 33 -191.499 33c-188.667 0 -332.5 -74 -431.5 -222s-148.5 -351 -148.5 -609
c0 -258.667 50.833 -463 152.5 -613s245.167 -225 430.5 -225c108 0 233.667 26 377 78v553h-436v195h669v-873zM930.003 2335l-174 -209h-193l291 406h155l291 -406h-195z" />
    <glyph glyph-name="gcircumflex" unicode="&#x11d;" horiz-adv-x="1561" 
d="M1143 295c-46.667 -98.667 -107.834 -172.499 -183.501 -221.499s-165.834 -73.5 -270.501 -73.5c-166 0 -302.833 65.333 -410.5 196s-161.5 301.667 -161.5 513c0 140.667 24 268.667 72 384s115.833 201.166 203.5 257.499s189.834 84.5 306.501 84.5
c88.667 0 167.5 -17.167 236.5 -51.5s138.167 -104.166 207.5 -209.499v223h233v-1142c0 -286.667 -30 -475.834 -90 -567.501s-136 -159.667 -228 -204s-200.333 -66.5 -325 -66.5c-114.667 0 -217.667 17.167 -309 51.5s-160.666 81.333 -207.999 141s-71 121.5 -71 185.5
v22h233v-20c0 -61.333 33.167 -110.833 99.5 -148.5s150.833 -56.5 253.5 -56.5c83.333 0 154.833 14.333 214.5 43s107.5 75.5 143.5 140.5s54 182.167 54 351.5v168zM1143 739.001c0 150.667 -38.166 272.167 -114.499 364.5s-167.833 138.5 -274.5 138.5
c-112.667 0 -206.5 -46.833 -281.5 -140.5s-112.5 -225.167 -112.5 -394.5c0 -106.667 14.667 -200 44 -280s76.166 -140.667 140.499 -182s132.833 -62 205.5 -62c116 0 210.5 51.833 283.5 155.5s109.5 237.167 109.5 400.5zM745.001 1772l-174 -209h-193l291 406h155
l291 -406h-195z" />
    <glyph glyph-name="Gbreve" unicode="&#x11e;" horiz-adv-x="1726" 
d="M1571 88c-206 -97.333 -401.997 -145.999 -587.997 -145.999c-194.667 0 -351.834 38.5 -471.501 115.5s-215.334 187.833 -287.001 332.5s-107.5 330.667 -107.5 558c0 256 33.667 454.667 101 596s162.666 252.166 285.999 332.499s270 120.5 440 120.5
c115.333 0 220.666 -18.333 315.999 -55s171 -92.167 227 -166.5s84 -148.5 84 -222.5v-12h-233v12c0 46 -17.333 88.333 -52 127s-80.167 69 -136.5 91s-120.166 33 -191.499 33c-188.667 0 -332.5 -74 -431.5 -222s-148.5 -351 -148.5 -609
c0 -258.667 50.833 -463 152.5 -613s245.167 -225 430.5 -225c108 0 233.667 26 377 78v553h-436v195h669v-873zM1374 2405c-44.667 -80 -103.497 -142.167 -176.497 -186.5s-153.5 -66.5 -241.5 -66.5c-88.667 0 -169.5 22.167 -242.5 66.5s-130.833 106.5 -173.5 186.5
h221c33.333 -41.333 64.666 -66.333 93.999 -75s63 -13 101 -13c37.333 0 70.666 4.33301 99.999 13s60.666 33.667 93.999 75h224z" />
    <glyph glyph-name="gbreve" unicode="&#x11f;" horiz-adv-x="1561" 
d="M1143 295c-46.667 -98.667 -107.834 -172.499 -183.501 -221.499s-165.834 -73.5 -270.501 -73.5c-166 0 -302.833 65.333 -410.5 196s-161.5 301.667 -161.5 513c0 140.667 24 268.667 72 384s115.833 201.166 203.5 257.499s189.834 84.5 306.501 84.5
c88.667 0 167.5 -17.167 236.5 -51.5s138.167 -104.166 207.5 -209.499v223h233v-1142c0 -286.667 -30 -475.834 -90 -567.501s-136 -159.667 -228 -204s-200.333 -66.5 -325 -66.5c-114.667 0 -217.667 17.167 -309 51.5s-160.666 81.333 -207.999 141s-71 121.5 -71 185.5
v22h233v-20c0 -61.333 33.167 -110.833 99.5 -148.5s150.833 -56.5 253.5 -56.5c83.333 0 154.833 14.333 214.5 43s107.5 75.5 143.5 140.5s54 182.167 54 351.5v168zM1143 739.001c0 150.667 -38.166 272.167 -114.499 364.5s-167.833 138.5 -274.5 138.5
c-112.667 0 -206.5 -46.833 -281.5 -140.5s-112.5 -225.167 -112.5 -394.5c0 -106.667 14.667 -200 44 -280s76.166 -140.667 140.499 -182s132.833 -62 205.5 -62c116 0 210.5 51.833 283.5 155.5s109.5 237.167 109.5 400.5zM577.001 2017
c6.66699 -64 30.333 -120.501 71 -169.501s86.667 -73.5 138 -73.5c50.667 0 96.167 24.833 136.5 74.5s64.5 105.834 72.5 168.501h158c-9.33301 -92 -32.666 -166.5 -69.999 -223.5s-82.166 -101.833 -134.499 -134.5s-106.5 -49 -162.5 -49
c-55.333 0 -109.333 16.333 -162 49s-97.834 77.5 -135.501 134.5s-61.834 131.5 -72.501 223.5h161z" />
    <glyph glyph-name="Gdotaccent" unicode="&#x120;" horiz-adv-x="1726" 
d="M1571 88c-206 -97.333 -401.997 -145.999 -587.997 -145.999c-194.667 0 -351.834 38.5 -471.501 115.5s-215.334 187.833 -287.001 332.5s-107.5 330.667 -107.5 558c0 256 33.667 454.667 101 596s162.666 252.166 285.999 332.499s270 120.5 440 120.5
c115.333 0 220.666 -18.333 315.999 -55s171 -92.167 227 -166.5s84 -148.5 84 -222.5v-12h-233v12c0 46 -17.333 88.333 -52 127s-80.167 69 -136.5 91s-120.166 33 -191.499 33c-188.667 0 -332.5 -74 -431.5 -222s-148.5 -351 -148.5 -609
c0 -258.667 50.833 -463 152.5 -613s245.167 -225 430.5 -225c108 0 233.667 26 377 78v553h-436v195h669v-873zM816.003 2126v231h231v-231h-231z" />
    <glyph glyph-name="gdotaccent" unicode="&#x121;" horiz-adv-x="1561" 
d="M1143 295c-46.667 -98.667 -107.834 -172.499 -183.501 -221.499s-165.834 -73.5 -270.501 -73.5c-166 0 -302.833 65.333 -410.5 196s-161.5 301.667 -161.5 513c0 140.667 24 268.667 72 384s115.833 201.166 203.5 257.499s189.834 84.5 306.501 84.5
c88.667 0 167.5 -17.167 236.5 -51.5s138.167 -104.166 207.5 -209.499v223h233v-1142c0 -286.667 -30 -475.834 -90 -567.501s-136 -159.667 -228 -204s-200.333 -66.5 -325 -66.5c-114.667 0 -217.667 17.167 -309 51.5s-160.666 81.333 -207.999 141s-71 121.5 -71 185.5
v22h233v-20c0 -61.333 33.167 -110.833 99.5 -148.5s150.833 -56.5 253.5 -56.5c83.333 0 154.833 14.333 214.5 43s107.5 75.5 143.5 140.5s54 182.167 54 351.5v168zM1143 739.001c0 150.667 -38.166 272.167 -114.499 364.5s-167.833 138.5 -274.5 138.5
c-112.667 0 -206.5 -46.833 -281.5 -140.5s-112.5 -225.167 -112.5 -394.5c0 -106.667 14.667 -200 44 -280s76.166 -140.667 140.499 -182s132.833 -62 205.5 -62c116 0 210.5 51.833 283.5 155.5s109.5 237.167 109.5 400.5zM631.001 1563v231h231v-231h-231z" />
    <glyph glyph-name="Gcommaaccent" unicode="&#x122;" horiz-adv-x="1726" 
d="M1571 88c-206 -97.333 -401.997 -145.999 -587.997 -145.999c-194.667 0 -351.834 38.5 -471.501 115.5s-215.334 187.833 -287.001 332.5s-107.5 330.667 -107.5 558c0 256 33.667 454.667 101 596s162.666 252.166 285.999 332.499s270 120.5 440 120.5
c115.333 0 220.666 -18.333 315.999 -55s171 -92.167 227 -166.5s84 -148.5 84 -222.5v-12h-233v12c0 46 -17.333 88.333 -52 127s-80.167 69 -136.5 91s-120.166 33 -191.499 33c-188.667 0 -332.5 -74 -431.5 -222s-148.5 -351 -148.5 -609
c0 -258.667 50.833 -463 152.5 -613s245.167 -225 430.5 -225c108 0 233.667 26 377 78v553h-436v195h669v-873zM863.003 -717.999l0.000976562 97c26.667 14.667 46.667 33 60 55s23.666 45 30.999 69s11 51 11 81h-102v215h215v-133c0 -80.667 -7.66699 -142 -23 -184
s-38.833 -80.5 -70.5 -115.5s-72.167 -63.167 -121.5 -84.5z" />
    <glyph glyph-name="gcommaaccent" unicode="&#x123;" horiz-adv-x="1561" 
d="M1143 295c-46.667 -98.667 -107.834 -172.499 -183.501 -221.499s-165.834 -73.5 -270.501 -73.5c-166 0 -302.833 65.333 -410.5 196s-161.5 301.667 -161.5 513c0 140.667 24 268.667 72 384s115.833 201.166 203.5 257.499s189.834 84.5 306.501 84.5
c88.667 0 167.5 -17.167 236.5 -51.5s138.167 -104.166 207.5 -209.499v223h233v-1142c0 -286.667 -30 -475.834 -90 -567.501s-136 -159.667 -228 -204s-200.333 -66.5 -325 -66.5c-114.667 0 -217.667 17.167 -309 51.5s-160.666 81.333 -207.999 141s-71 121.5 -71 185.5
v22h233v-20c0 -61.333 33.167 -110.833 99.5 -148.5s150.833 -56.5 253.5 -56.5c83.333 0 154.833 14.333 214.5 43s107.5 75.5 143.5 140.5s54 182.167 54 351.5v168zM1143 739.001c0 150.667 -38.166 272.167 -114.499 364.5s-167.833 138.5 -274.5 138.5
c-112.667 0 -206.5 -46.833 -281.5 -140.5s-112.5 -225.167 -112.5 -394.5c0 -106.667 14.667 -200 44 -280s76.166 -140.667 140.499 -182s132.833 -62 205.5 -62c116 0 210.5 51.833 283.5 155.5s109.5 237.167 109.5 400.5zM910.001 2431v-150
c-38.667 -22.667 -68.667 -51.167 -90 -85.5s-37.333 -69.833 -48 -106.5s-16 -78 -16 -124h154v-329h-329v205c0 122.667 11.667 216.167 35 280.501c23.333 64.333 59.5 123.666 108.5 178c49 54.333 110.833 98.166 185.5 131.499z" />
    <glyph glyph-name="Hcircumflex" unicode="&#x124;" horiz-adv-x="1764" 
d="M436 0h-253v1939h253v-862h892v862h251v-1939h-251v882h-892v-882zM882 2277l-177 -209h-193l292 408h154l292 -408h-195z" />
    <glyph glyph-name="hcircumflex" unicode="&#x125;" horiz-adv-x="1493" 
d="M416 0l-232.996 0.00195312v2017h233v-862c49.333 75.333 97.166 131.333 143.499 168s94.666 64.5 144.999 83.5s106.166 28.5 167.499 28.5c88.667 0 167.5 -17.833 236.5 -53.5s122.833 -88.334 161.5 -158.001s58 -181.5 58 -335.5v-888h-233v790
c0 124.667 -8.33301 213 -25 265s-48.5 92.833 -95.5 122.5s-99.833 44.5 -158.5 44.5c-68.667 0 -133.834 -20.167 -195.501 -60.5s-111.167 -96.333 -148.5 -168s-56 -173.834 -56 -306.501v-687zM753.004 2355l-175 -211h-193l292 408h154l292 -408h-195z" />
    <glyph glyph-name="Hbar" unicode="&#x126;" horiz-adv-x="1764" 
d="M436 0h-253v1939h253v-436h892v436h251v-1939h-251v882h-892v-882zM1328 1077v233h-892v-233h892z" />
    <glyph glyph-name="hbar" unicode="&#x127;" horiz-adv-x="1493" 
d="M58 1610l0.00390625 154.002h125v253h233v-253h342v-154h-342v-455c49.333 75.333 97.166 131.333 143.499 168s94.666 64.5 144.999 83.5s106.166 28.5 167.499 28.5c88.667 0 167.5 -17.833 236.5 -53.5s122.833 -88.334 161.5 -158.001s58 -181.5 58 -335.5v-888h-233
v790c0 124.667 -8.33301 213 -25 265s-48.5 92.833 -95.5 122.5s-99.833 44.5 -158.5 44.5c-68.667 0 -133.834 -20.167 -195.501 -60.5s-111.167 -96.333 -148.5 -168s-56 -173.834 -56 -306.501v-687h-233v1610h-125z" />
    <glyph glyph-name="Itilde" unicode="&#x128;" horiz-adv-x="1073" 
d="M676 0h-253v1939h253v-1939zM298 2070h-156.002c0 109.333 21.667 189.833 65 241.5s97.333 77.5 162 77.5c52 0 104 -16.667 156 -50l55 -32c68 -42.667 116 -64 144 -64c50 0 75 48.667 75 146h158c-5.33301 -85.333 -16.666 -147.5 -33.999 -186.5
s-44 -71.167 -80 -96.5s-75.667 -38 -119 -38c-57.333 0 -116.333 20 -177 60l-54 36c-49.333 33.333 -84.666 50 -105.999 50c-59.333 0 -89 -48 -89 -144z" />
    <glyph glyph-name="itilde" unicode="&#x129;" horiz-adv-x="1041" 
d="M383 1397h233v-1397h-233v1397zM248 1525l-154.003 0.000976562c0 110 21.333 190.833 64 242.5s96.334 77.5 161.001 77.5c52 0 104 -17 156 -51l55 -30c68 -44 116 -66 144 -66c50 0 75 49 75 147h158c-5.33301 -84.667 -16.666 -146.834 -33.999 -186.501
s-44 -72.167 -80 -97.5s-75.667 -38 -119 -38c-57.333 0 -116.333 20.667 -177 62l-54 37c-49.333 32 -84.666 48 -105.999 48c-59.333 0 -89 -48.333 -89 -145z" />
    <glyph glyph-name="Imacron" unicode="&#x12a;" horiz-adv-x="880" 
d="M566 0h-253v1939h253v-1939zM92 2068v154h697v-154h-697z" />
    <glyph glyph-name="imacron" unicode="&#x12b;" horiz-adv-x="864" 
d="M313 1397h233v-1397h-233v1397zM82 1523v155h697v-155h-697z" />
    <glyph glyph-name="Ibreve" unicode="&#x12c;" horiz-adv-x="621" 
d="M436 0h-253v1939h253v-1939zM100 2476c8.66699 -64.667 33.334 -121.5 74.001 -170.5s86.334 -73.5 137.001 -73.5c51.333 0 97 24.833 137 74.5s63.333 106.167 70 169.5h161c-10.667 -92.667 -34.334 -167.834 -71.001 -225.5
c-36.667 -57.667 -81.167 -102.5 -133.5 -134.5s-106.833 -48 -163.5 -48c-56 0 -110.5 16 -163.5 48s-97.833 76.833 -134.5 134.5s-60.334 132.834 -71.001 225.5h158z" />
    <glyph glyph-name="ibreve" unicode="&#x12d;" horiz-adv-x="601" 
d="M183 1397h233v-1397h-233v1397zM90 1931c8 -64 32.502 -120.501 73.502 -169.501s86.833 -73.5 137.5 -73.5c51.333 0 97 24.833 137 74.5s63.333 105.834 70 168.501h161c-10.667 -92.667 -34.334 -167.334 -71.001 -224.001s-81.167 -101.5 -133.5 -134.5
s-106.833 -49.5 -163.5 -49.5c-56 0 -110.5 16.5 -163.5 49.5s-97.833 77.833 -134.5 134.5s-60.334 131.334 -71.001 224.001h158z" />
    <glyph glyph-name="Iogonek" unicode="&#x12e;" horiz-adv-x="621" 
d="M462 24c-9.33301 -4 -17.999 -8.33301 -25.999 -13v-11h-20c-54 -32 -99.333 -72.333 -136 -121c-46 -62.667 -69 -114 -69 -154c0 -25.333 11.333 -49.833 34 -73.5s61.667 -35.5 117 -35.5c29.333 0 62.666 8 99.999 24v-120c-56 -25.333 -109 -38 -159 -38
c-77.333 0 -141.5 21 -192.5 63s-76.5 95.333 -76.5 160c0 92.667 53 191 159 295h-10v1939h253v-1915h26z" />
    <glyph glyph-name="iogonek" unicode="&#x12f;" horiz-adv-x="601" 
d="M438 24c-7.33301 -3.33301 -14.667 -7 -22 -11v-13h-24c-54 -32 -99.333 -72.333 -136 -121c-46 -62.667 -69 -114 -69 -154c0 -25.333 11.667 -49.833 35 -73.5s62.666 -35.5 117.999 -35.5c28 0 60.667 8 98 24v-120c-54.667 -25.333 -107.667 -38 -159 -38
c-77.333 0 -141.166 21 -191.499 63s-75.5 95.333 -75.5 160c0 96 57 198 171 306v1386h233v-1373h22zM182.999 1706v233h233v-233h-233z" />
    <glyph glyph-name="Idotaccent" unicode="&#x130;" horiz-adv-x="621" 
d="M436 0h-253v1939h253v-1939zM185 2152v253h251v-253h-251z" />
    <glyph glyph-name="dotlessi" unicode="&#x131;" horiz-adv-x="601" 
d="M183 1397h233v-1397h-233v1397z" />
    <glyph glyph-name="IJ" unicode="&#x132;" horiz-adv-x="1881" 
d="M436 0h-253v1939h253v-1939zM669 330l250.999 0.000976562v-13c0 -36 9.83301 -68 29.5 -96s49.5 -49 89.5 -63s85 -21 135 -21c52 0 100 11.667 144 35s76.167 59.833 96.5 109.5s30.5 158.834 30.5 327.501v1330h251v-1336c0 -212 -22.833 -356.833 -68.5 -434.5
s-101.667 -134.834 -168 -171.501s-156.833 -55 -271.5 -55c-189.333 0 -323.166 39.167 -401.499 117.5s-117.5 164.166 -117.5 257.499v13z" />
    <glyph glyph-name="ij" unicode="&#x133;" horiz-adv-x="1308" 
d="M183 1397h233v-1397h-233v1397zM183 1706v233h233v-233h-233zM882 1397h235.001v-1397c0 -140.667 -17 -245.5 -51 -314.5s-88.5 -124.333 -163.5 -166s-156.167 -62.5 -243.5 -62.5c-62.667 0 -130.334 7.66699 -203.001 23v184l50 -6c46 -5.33301 83 -8 111 -8
c77.333 0 140.833 20.167 190.5 60.5s74.5 136.833 74.5 289.5v1397zM882.001 1716v223h235v-223h-235z" />
    <glyph glyph-name="Jcircumflex" unicode="&#x134;" horiz-adv-x="1260" 
d="M48 330l252.999 0.000976562v-13c0 -36 9.83301 -68 29.5 -96s49.5 -49 89.5 -63s85 -21 135 -21c50.667 0 98.5 11.667 143.5 35s77.5 59.833 97.5 109.5s30 158.834 30 327.501v1330h251v-1336c0 -212 -22.833 -356.833 -68.5 -434.5s-102 -134.834 -169 -171.501
s-157.833 -55 -272.5 -55c-189.333 0 -323.166 39.167 -401.499 117.5s-117.5 164.166 -117.5 257.499v13zM942.999 2277l-175 -209h-195l291 408h157l289 -408h-195z" />
    <glyph glyph-name="jcircumflex" unicode="&#x135;" horiz-adv-x="707" 
d="M281 1397h233.002v-1397c0 -140.667 -16.667 -245.5 -50 -314.5s-87.5 -124.333 -162.5 -166s-156.167 -62.5 -243.5 -62.5c-62.667 0 -130.334 7.66699 -203.001 23v184l51 -6c45.333 -5.33301 81.333 -8 108 -8c79.333 0 143.666 20.167 192.999 60.5
s74 136.833 74 289.5v1397zM385.002 1734l-175 -211h-193l289 408h157l292 -408h-195z" />
    <glyph glyph-name="Kcommaaccent" unicode="&#x136;" horiz-adv-x="1698" 
d="M436 0h-253v1939h253v-926l810 926h287l-800 -908l925 -1031h-318l-904 1013v-1013zM853 -760v97.001c25.333 14.667 45 33 59 55s24.333 45.167 31 69.5s10 51.166 10 80.499h-100v215h213v-133c0 -80 -7.66699 -141.167 -23 -183.5s-38.833 -80.833 -70.5 -115.5
s-71.5 -63 -119.5 -85z" />
    <glyph glyph-name="kcommaaccent" unicode="&#x137;" horiz-adv-x="1378" 
d="M426 0h-243v2017h243v-1286l621 666h267l-605 -649l629 -748h-291l-621 731v-731zM692 -760l0.000976562 97.001c25.333 14.667 45.166 33 59.499 55s25.166 45.167 32.499 69.5s11 51.166 11 80.499h-103v215h215v-133c0 -80 -7.66699 -141.167 -23 -183.5
s-38.666 -80.833 -69.999 -115.5s-72 -63 -122 -85z" />
    <glyph glyph-name="uni0138" unicode="&#x138;" horiz-adv-x="1378" 
d="M426 0h-243v1397h243v-666l621 666h267l-605 -649l629 -748h-291l-621 731v-731z" />
    <glyph glyph-name="Lacute" unicode="&#x139;" horiz-adv-x="1493" 
d="M183 0v1939h253v-1726h1017v-213h-1270zM233 2068l370 408h269l-428 -408h-211z" />
    <glyph glyph-name="lacute" unicode="&#x13a;" horiz-adv-x="816" 
d="M416 0h-233v2017h233v-2017zM28 2144l370 408h271l-428 -408h-213z" />
    <glyph glyph-name="Lcommaaccent" unicode="&#x13b;" horiz-adv-x="1640" 
d="M183 0v1939h253v-1726h1017v-213h-1270zM750 -660l0.000976562 97.001c27.333 14.667 47.666 33 60.999 55s23.666 45.167 30.999 69.5s11 51.166 11 80.499h-103v215h215v-133c0 -80 -7.66699 -141.167 -23 -183.5s-38.666 -80.833 -69.999 -115.5s-72 -63 -122 -85z
" />
    <glyph glyph-name="lcommaaccent" unicode="&#x13c;" horiz-adv-x="601" 
d="M416 0h-233v2017h233v-2017zM183 -760v97.001c25.333 14.667 45 33 59 55s24.333 45.167 31 69.5s10 51.166 10 80.499h-100v215h213v-133c0 -80 -7.66699 -141.167 -23 -183.5s-38.5 -80.833 -69.5 -115.5s-71.167 -63 -120.5 -85z" />
    <glyph glyph-name="Lcaron" unicode="&#x13d;" horiz-adv-x="1493" 
d="M183 0v1939h253v-1726h1017v-213h-1270zM848 1145l-0.000976562 148.998c40 24 70.833 52.833 92.5 86.5s37.834 68.834 48.501 105.501s16 78 16 124h-157v329h332v-205c0 -123.333 -12.167 -217.166 -36.5 -281.499s-60.5 -123.5 -108.5 -177.5
s-110.333 -97.333 -187 -130z" />
    <glyph glyph-name="lcaron" unicode="&#x13e;" horiz-adv-x="977" 
d="M416 0h-233v2017h233v-2017zM545 1222v149.998c38.667 23.333 68.667 52 90 86s37.333 69.5 48 106.5s16 78.167 16 123.5h-154v329h329v-205c0 -122.667 -12 -216.167 -36 -280.5s-60.167 -123.666 -108.5 -177.999s-109.833 -98.166 -184.5 -131.499z" />
    <glyph glyph-name="Ldotaccent" unicode="&#x13f;" horiz-adv-x="1493" 
d="M183 0v1939h253v-1726h1017v-213h-1270zM760 892v233h231v-233h-231z" />
    <glyph glyph-name="ldotaccent" unicode="&#x140;" horiz-adv-x="784" 
d="M416 0h-233v2017h233v-2017zM545 892v233h231v-233h-231z" />
    <glyph glyph-name="Lslash" unicode="&#x141;" horiz-adv-x="1493" 
d="M183 0l2 870l-233 -86v205l231 86v864h253v-765l233 82v-207l-233 -82v-754h1017v-213h-1270z" />
    <glyph glyph-name="lslash" unicode="&#x142;" horiz-adv-x="601" 
d="M416 0h-233v872l-231 -94v209l231 90v940h233v-852l233 87v-209l-233 -85v-958z" />
    <glyph glyph-name="Nacute" unicode="&#x143;" horiz-adv-x="1815" 
d="M416 0h-233v1939h251l886 -1378l81 -153l-4 153v1378h233v-1939h-250l-888 1384l-80 157l4 -157v-1384zM635 2068l370 408h271l-428 -408h-213z" />
    <glyph glyph-name="nacute" unicode="&#x144;" horiz-adv-x="1493" 
d="M416 0l-232.996 0.00195312v1397h233v-242c49.333 75.333 97.166 131.333 143.499 168s94.666 64.5 144.999 83.5s106.166 28.5 167.499 28.5c88.667 0 167.5 -17.833 236.5 -53.5s122.833 -88.334 161.5 -158.001s58 -181.5 58 -335.5v-888h-233v790
c0 124.667 -8.33301 213 -25 265s-49.167 92.833 -97.5 122.5s-100.5 44.5 -156.5 44.5c-68.667 0 -133.834 -20.167 -195.501 -60.5s-111.167 -96.333 -148.5 -168s-56 -173.834 -56 -306.501v-687zM484.004 1563l370 406h269l-428 -406h-211z" />
    <glyph glyph-name="Ncommaaccent" unicode="&#x145;" horiz-adv-x="1815" 
d="M416 0h-233v1939h251l886 -1378l81 -153l-4 153v1378h233v-1939h-250l-888 1384l-80 157l4 -157v-1384zM863 -760l-0.000976562 97.001c26 14.667 46 33 60 55s24.667 45.167 32 69.5s11 51.166 11 80.499h-103v215h215v-133c0 -80 -7.66699 -141.167 -23 -183.5
s-38.666 -80.833 -69.999 -115.5s-72 -63 -122 -85z" />
    <glyph glyph-name="ncommaaccent" unicode="&#x146;" horiz-adv-x="1493" 
d="M416 0l-232.996 0.00195312v1397h233v-242c49.333 75.333 97.166 131.333 143.499 168s94.666 64.5 144.999 83.5s106.166 28.5 167.499 28.5c88.667 0 167.5 -17.833 236.5 -53.5s122.833 -88.334 161.5 -158.001s58 -181.5 58 -335.5v-888h-233v790
c0 124.667 -8.33301 213 -25 265s-49.167 92.833 -97.5 122.5s-100.5 44.5 -156.5 44.5c-68.667 0 -133.834 -20.167 -195.501 -60.5s-111.167 -96.333 -148.5 -168s-56 -173.834 -56 -306.501v-687zM693.004 -759.998v97.001c26.667 14.667 46.667 33 60 55
s23.833 45.167 31.5 69.5s11.5 51.166 11.5 80.499h-103v215h215v-133c0 -80 -7.66699 -141.167 -23 -183.5s-38.833 -80.833 -70.5 -115.5s-72.167 -63 -121.5 -85z" />
    <glyph glyph-name="Ncaron" unicode="&#x147;" horiz-adv-x="1815" 
d="M416 0h-233v1939h251l886 -1378l81 -153l-4 153v1378h233v-1939h-250l-888 1384l-80 157l4 -157v-1384zM906 2265l173 211h197l-291 -408h-157l-291 408h194z" />
    <glyph glyph-name="ncaron" unicode="&#x148;" horiz-adv-x="1493" 
d="M416 0l-232.996 0.00195312v1397h233v-242c49.333 75.333 97.166 131.333 143.499 168s94.666 64.5 144.999 83.5s106.166 28.5 167.499 28.5c88.667 0 167.5 -17.833 236.5 -53.5s122.833 -88.334 161.5 -158.001s58 -181.5 58 -335.5v-888h-233v790
c0 124.667 -8.33301 213 -25 265s-49.167 92.833 -97.5 122.5s-100.5 44.5 -156.5 44.5c-68.667 0 -133.834 -20.167 -195.501 -60.5s-111.167 -96.333 -148.5 -168s-56 -173.834 -56 -306.501v-687zM756.004 1760l172 209h195l-291 -406h-155l-291 406h195z" />
    <glyph glyph-name="napostrophe" unicode="&#x149;" horiz-adv-x="2271" 
d="M223 1260v150.997c40 24 70.5 52.667 91.5 86s36.833 68.5 47.5 105.5s16 78.167 16 123.5h-155v330h330v-205c0 -123.333 -12.167 -217.166 -36.5 -281.499s-60.5 -123.666 -108.5 -177.999s-109.667 -98.166 -185 -131.499zM1192 -0.00292969l-231 0.00195312v1397h231
v-242c49.333 75.333 97.166 131.333 143.499 168s94.5 64.5 144.5 83.5s106.667 28.5 170 28.5c86.667 0 164.834 -17.833 234.501 -53.5s123.667 -88.334 162 -158.001s57.5 -181.5 57.5 -335.5v-888h-233v790c0 124.667 -8.33301 213 -25 265s-49.167 92.833 -97.5 122.5
s-100.833 44.5 -157.5 44.5c-68 0 -132.833 -20.167 -194.5 -60.5s-111.167 -96.333 -148.5 -168s-56 -173.834 -56 -306.501v-687z" />
    <glyph glyph-name="Eng" unicode="&#x14a;" horiz-adv-x="1815" 
d="M601 -193l253 0.000976562v-14c0 -34.667 9.33301 -66.5 28 -95.5s48.5 -50.5 89.5 -64.5s86.167 -21 135.5 -21c51.333 0 99.333 12.167 144 36.5s77 61.166 97 110.499c16 40 25.333 122.333 28 247l-884 1378l-80 157v-1541h-229v1939h251l886 -1378l58 -109v1487h252
v-1939h-2c-5.33301 -168.667 -28.333 -286.667 -69 -354c-44 -78.667 -99.5 -136.5 -166.5 -173.5s-158.167 -55.5 -273.5 -55.5c-188.667 0 -322.167 39.167 -400.5 117.5s-117.5 164.5 -117.5 258.5v14z" />
    <glyph glyph-name="eng" unicode="&#x14b;" horiz-adv-x="1493" 
d="M1093 647l2.00488 0.00195312v143c0 124.667 -8.33301 213 -25 265s-49.167 92.833 -97.5 122.5s-100.5 44.5 -156.5 44.5c-68.667 0 -133.834 -20.167 -195.501 -60.5s-111.167 -96.333 -148.5 -168s-56 -173.834 -56 -306.501v-687h-233v1397h233v-242
c49.333 75.333 97.166 131.333 143.499 168s94.666 64.5 144.999 83.5s106.166 28.5 167.499 28.5c88.667 0 167.5 -17.833 236.5 -53.5s122.833 -88.334 161.5 -158.001s58 -181.5 58 -335.5v-888c0 -140.667 -17 -245.5 -51 -314.5s-88.5 -124.333 -163.5 -166
s-156.167 -62.5 -243.5 -62.5c-62.667 0 -130.334 7.66699 -203.001 23v184l50 -6c46 -5.33301 83 -8 111 -8c77.333 0 140.833 20.167 190.5 60.5s74.5 136.833 74.5 289.5v647z" />
    <glyph glyph-name="Omacron" unicode="&#x14c;" horiz-adv-x="1881" 
d="M940 -58c-242 0 -439.667 89 -593 267s-230 432 -230 762c0 328 76.667 581 230 759s351 267 593 267c242.667 0 440.667 -89 594 -267s230 -431 230 -759c0 -330 -76.667 -584 -230 -762s-351.333 -267 -594 -267zM940 137c177.333 0 315.5 76 414.5 228
s148.5 354 148.5 606c0 250 -49.5 451.333 -148.5 604s-237.167 229 -414.5 229c-175.333 0 -312.833 -76.333 -412.5 -229s-149.5 -354 -149.5 -604c0 -252 49.833 -454 149.5 -606s237.167 -228 412.5 -228zM591 2126v155h699v-155h-699z" />
    <glyph glyph-name="omacron" unicode="&#x14d;" horiz-adv-x="1551" 
d="M776 -38c-182.667 0 -338.167 61.667 -466.5 185s-192.5 307.333 -192.5 552c0 242.667 64.167 426 192.5 550s283.833 186 466.5 186c182 0 337.333 -62 466 -186s193 -307.333 193 -550c0 -244.667 -64.333 -428.667 -193 -552s-284 -185 -466 -185zM776 155
c126 0 226.833 49.833 302.5 149.5s113.5 231.167 113.5 394.5c0 162 -37.833 293 -113.5 393s-176.5 150 -302.5 150s-226.833 -50 -302.5 -150s-113.5 -231 -113.5 -393c0 -163.333 37.833 -294.833 113.5 -394.5s176.5 -149.5 302.5 -149.5zM426 1563v155h699v-155h-699z
" />
    <glyph glyph-name="Obreve" unicode="&#x14e;" horiz-adv-x="1881" 
d="M940 -58c-242 0 -439.667 89 -593 267s-230 432 -230 762c0 328 76.667 581 230 759s351 267 593 267c242.667 0 440.667 -89 594 -267s230 -431 230 -759c0 -330 -76.667 -584 -230 -762s-351.333 -267 -594 -267zM940 137c177.333 0 315.5 76 414.5 228
s148.5 354 148.5 606c0 250 -49.5 451.333 -148.5 604s-237.167 229 -414.5 229c-175.333 0 -312.833 -76.333 -412.5 -229s-149.5 -354 -149.5 -604c0 -252 49.833 -454 149.5 -606s237.167 -228 412.5 -228zM731 2532c8 -64.667 32.165 -121 72.498 -169
s85.833 -72 136.5 -72c51.333 0 97 24.667 137 74s64 105 72 167h159c-9.33301 -92.667 -32.666 -167.5 -69.999 -224.5s-82.166 -101.5 -134.499 -133.5s-106.833 -48 -163.5 -48c-54.667 0 -108.5 16 -161.5 48s-98.167 76.5 -135.5 133.5s-61.333 131.833 -72 224.5h160z
" />
    <glyph glyph-name="obreve" unicode="&#x14f;" horiz-adv-x="1551" 
d="M776 -38c-182.667 0 -338.167 61.667 -466.5 185s-192.5 307.333 -192.5 552c0 242.667 64.167 426 192.5 550s283.833 186 466.5 186c182 0 337.333 -62 466 -186s193 -307.333 193 -550c0 -244.667 -64.333 -428.667 -193 -552s-284 -185 -466 -185zM776 155
c126 0 226.833 49.833 302.5 149.5s113.5 231.167 113.5 394.5c0 162 -37.833 293 -113.5 393s-176.5 150 -302.5 150s-226.833 -50 -302.5 -150s-113.5 -231 -113.5 -393c0 -163.333 37.833 -294.833 113.5 -394.5s176.5 -149.5 302.5 -149.5zM567 1969
c6.66699 -64 30.333 -120.167 71 -168.5s86.667 -72.5 138 -72.5c50.667 0 96.167 24.833 136.5 74.5s64.5 105.167 72.5 166.5h158c-9.33301 -92 -32.666 -166.5 -69.999 -223.5s-82.166 -101.667 -134.499 -134s-106.5 -48.5 -162.5 -48.5
c-55.333 0 -109.333 16.167 -162 48.5s-97.834 77 -135.501 134s-61.834 131.5 -72.501 223.5h161z" />
    <glyph glyph-name="Ohungarumlaut" unicode="&#x150;" horiz-adv-x="1881" 
d="M940 -58c-242 0 -439.667 89 -593 267s-230 432 -230 762c0 328 76.667 581 230 759s351 267 593 267c242.667 0 440.667 -89 594 -267s230 -431 230 -759c0 -330 -76.667 -584 -230 -762s-351.333 -267 -594 -267zM940 137c177.333 0 315.5 76 414.5 228
s148.5 354 148.5 606c0 250 -49.5 451.333 -148.5 604s-237.167 229 -414.5 229c-175.333 0 -312.833 -76.333 -412.5 -229s-149.5 -354 -149.5 -604c0 -252 49.833 -454 149.5 -606s237.167 -228 412.5 -228zM852 2126h-147l179 406h153zM1194 2126h-147l181 406h156z" />
    <glyph glyph-name="ohungarumlaut" unicode="&#x151;" horiz-adv-x="1551" 
d="M776 -38c-182.667 0 -338.167 61.667 -466.5 185s-192.5 307.333 -192.5 552c0 242.667 64.167 426 192.5 550s283.833 186 466.5 186c182 0 337.333 -62 466 -186s193 -307.333 193 -550c0 -244.667 -64.333 -428.667 -193 -552s-284 -185 -466 -185zM776 155
c126 0 226.833 49.833 302.5 149.5s113.5 231.167 113.5 394.5c0 162 -37.833 293 -113.5 393s-176.5 150 -302.5 150s-226.833 -50 -302.5 -150s-113.5 -231 -113.5 -393c0 -163.333 37.833 -294.833 113.5 -394.5s176.5 -149.5 302.5 -149.5zM667 1563h-147l179 406h153z
M1009 1563h-147l181 406h157z" />
    <glyph glyph-name="OE" unicode="&#x152;" horiz-adv-x="2793" 
d="M1507 0v213c-86 -110 -173.167 -182.667 -261.5 -218s-184.833 -53 -289.5 -53c-256.667 0 -460.667 90 -612 270s-227 433 -227 759c0 324 75.333 576 226 756s355.667 270 615 270c107.333 0 204.5 -19 291.5 -57s172.833 -109.333 257.5 -214v213h1095v-213h-844v-611
h738v-195h-738v-707h908v-213h-1159zM940 137c177.333 0 316.5 76 417.5 228s151.5 354 151.5 606c0 250 -50.5 451.333 -151.5 604s-240.167 229 -417.5 229c-175.333 0 -312.833 -76.333 -412.5 -229s-149.5 -354 -149.5 -604c0 -252 49.833 -454 149.5 -606
s237.167 -228 412.5 -228z" />
    <glyph glyph-name="oe" unicode="&#x153;" horiz-adv-x="2550" 
d="M1316 1163c76.667 99.333 158.499 169.501 245.499 210.501s181.5 61.5 283.5 61.5c106.667 0 203 -22.5 289 -67.5s154.333 -116.333 205 -214s76 -233.834 76 -408.501v-76h-988c0 -150 40.167 -273.167 120.5 -369.5s191.5 -144.5 333.5 -144.5
c103.333 0 178 22.333 224 67s69 86 69 124v14h235v-14c0 -62 -24.667 -125.167 -74 -189.5s-115 -112.833 -197 -145.5s-171 -49 -267 -49c-248 0 -433.667 93.667 -557 281c-53.333 -94 -129.666 -164.333 -228.999 -211s-203 -70 -311 -70
c-176 0 -329.5 60.667 -460.5 182s-196.5 306.333 -196.5 555c0 249.333 65.5 434.333 196.5 555s283.833 181 458.5 181c101.333 0 200 -20.5 296 -61.5s178.667 -111.167 248 -210.5zM775.999 155.001c126 0 226.833 49.833 302.5 149.5s113.5 231.167 113.5 394.5
c0 162 -37.833 293 -113.5 393s-176.5 150 -302.5 150s-226.833 -50 -302.5 -150s-113.5 -231 -113.5 -393c0 -163.333 37.833 -294.833 113.5 -394.5s176.5 -149.5 302.5 -149.5zM1443 844.001h754.999v28c0 54.667 -16 115.167 -48 181.5s-78.167 115.333 -138.5 147
s-121.166 45.5 -182.499 41.5c-87.333 0 -167.5 -34.833 -240.5 -104.5s-121.5 -167.5 -145.5 -293.5z" />
    <glyph glyph-name="Racute" unicode="&#x154;" horiz-adv-x="1551" 
d="M436 0h-252.998v1939h601c147.333 0 258.166 -21.167 332.499 -63.5s133.166 -103.666 176.499 -183.999s65 -167.166 65 -260.499c0 -76.667 -14.667 -149.834 -44 -219.501s-70.5 -132.667 -123.5 -189s-135.167 -106.5 -246.5 -150.5
c42 -22.667 73.333 -44.334 94 -65.001s46 -54.5 76 -101.5s56.667 -90.5 80 -130.5l309 -575h-289l-270 510c-64 123.333 -148.333 231.333 -253 324h-255v-834zM436.002 1027h247.002c103.333 0 182.166 16 236.499 48s97.166 78.833 128.499 140.5s47 127.5 47 197.5
c0 60 -12.333 114.167 -37 162.5s-61.5 88.5 -110.5 120.5s-131.167 48 -246.5 48h-265v-717zM371.004 2068l369 408h272l-428 -408h-213z" />
    <glyph glyph-name="racute" unicode="&#x155;" horiz-adv-x="989" 
d="M416 0l-233.003 0.00195312v1397h233v-248c38.667 71.333 80.834 126.666 126.501 165.999s94 69.166 145 89.499s103.167 30.5 156.5 30.5c48 0 89.667 -6.66699 125 -20v-241c-55.333 25.333 -113.666 38 -174.999 38c-87.333 0 -172.166 -38.167 -254.499 -114.5
s-123.5 -212.5 -123.5 -408.5v-689zM304.997 1563l370 406h269l-426 -406h-213z" />
    <glyph glyph-name="Rcommaaccent" unicode="&#x156;" horiz-adv-x="1551" 
d="M436 0h-252.998v1939h601c147.333 0 258.166 -21.167 332.499 -63.5s133.166 -103.666 176.499 -183.999s65 -167.166 65 -260.499c0 -76.667 -14.667 -149.834 -44 -219.501s-70.5 -132.667 -123.5 -189s-135.167 -106.5 -246.5 -150.5
c42 -22.667 73.333 -44.334 94 -65.001s46 -54.5 76 -101.5s56.667 -90.5 80 -130.5l309 -575h-289l-270 510c-64 123.333 -148.333 231.333 -253 324h-255v-834zM436.002 1027h247.002c103.333 0 182.166 16 236.499 48s97.166 78.833 128.499 140.5s47 127.5 47 197.5
c0 60 -12.333 114.167 -37 162.5s-61.5 88.5 -110.5 120.5s-131.167 48 -246.5 48h-265v-717zM705.004 -660l-0.000976562 97.001c25.333 14.667 45 33 59 55s24.667 45.167 32 69.5s11 51.166 11 80.499h-102v215h215v-133c0 -80 -7.83301 -141.167 -23.5 -183.5
s-39.167 -80.833 -70.5 -115.5s-71.666 -63 -120.999 -85z" />
    <glyph glyph-name="rcommaaccent" unicode="&#x157;" horiz-adv-x="989" 
d="M416 0l-233.003 0.00195312v1397h233v-248c38.667 71.333 80.834 126.666 126.501 165.999s94 69.166 145 89.499s103.167 30.5 156.5 30.5c48 0 89.667 -6.66699 125 -20v-241c-55.333 25.333 -113.666 38 -174.999 38c-87.333 0 -172.166 -38.167 -254.499 -114.5
s-123.5 -212.5 -123.5 -408.5v-689zM191.997 -659.998l-0.000976562 97.001c26.667 14.667 46.834 33 60.501 55s24.167 45.167 31.5 69.5s11 51.166 11 80.499h-103v215h215v-133c0 -80 -7.66699 -141.167 -23 -183.5s-38.833 -80.833 -70.5 -115.5s-72.167 -63 -121.5 -85
z" />
    <glyph glyph-name="Rcaron" unicode="&#x158;" horiz-adv-x="1551" 
d="M436 0h-252.998v1939h601c147.333 0 258.166 -21.167 332.499 -63.5s133.166 -103.666 176.499 -183.999s65 -167.166 65 -260.499c0 -76.667 -14.667 -149.834 -44 -219.501s-70.5 -132.667 -123.5 -189s-135.167 -106.5 -246.5 -150.5
c42 -22.667 73.333 -44.334 94 -65.001s46 -54.5 76 -101.5s56.667 -90.5 80 -130.5l309 -575h-289l-270 510c-64 123.333 -148.333 231.333 -253 324h-255v-834zM436.002 1027h247.002c103.333 0 182.166 16 236.499 48s97.166 78.833 128.499 140.5s47 127.5 47 197.5
c0 60 -12.333 114.167 -37 162.5s-61.5 88.5 -110.5 120.5s-131.167 48 -246.5 48h-265v-717zM697.004 2265l175 211h195l-291 -408h-155l-291 408h192z" />
    <glyph glyph-name="rcaron" unicode="&#x159;" horiz-adv-x="989" 
d="M416 0l-233.003 0.00195312v1397h233v-248c38.667 71.333 80.834 126.666 126.501 165.999s94 69.166 145 89.499s103.167 30.5 156.5 30.5c48 0 89.667 -6.66699 125 -20v-241c-55.333 25.333 -113.666 38 -174.999 38c-87.333 0 -172.166 -38.167 -254.499 -114.5
s-123.5 -212.5 -123.5 -408.5v-689zM576.997 1760l173 209h194l-291 -406h-155l-291 406h195z" />
    <glyph glyph-name="Sacute" unicode="&#x15a;" horiz-adv-x="1551" 
d="M137 436h251.003v-12c0 -107.333 38.167 -182 114.5 -224s177.5 -63 303.5 -63c110 0 202.167 32.167 276.5 96.5s111.5 148.5 111.5 252.5c0 84.667 -32.333 154.334 -97 209.001c-64 54 -161 107 -291 159l-103 42c-136.667 56.667 -239.167 112.667 -307.5 168
s-119.166 116.833 -152.499 184.5s-50 143.167 -50 226.5c0 147.333 51.833 271.166 155.5 371.499s266.167 150.5 487.5 150.5c202 0 344.167 -37.5 426.5 -112.5s123.5 -162.5 123.5 -262.5v-12h-251v12c0 32 -12.667 63.333 -38 94s-63.5 53 -114.5 67
s-106.5 21 -166.5 21c-124.667 0 -216.834 -31 -276.501 -93s-89.5 -132.667 -89.5 -212c0 -53.333 14.167 -103.5 42.5 -150.5s67.166 -85.833 116.499 -116.5s133 -72.334 251 -125.001l119 -50c190 -83.333 317 -170.333 381 -261c63.333 -91.333 95 -189.333 95 -294
c0 -97.333 -25.833 -191.666 -77.5 -282.999s-123.334 -160.333 -215.001 -207s-213.834 -70 -366.501 -70c-144.667 0 -265.667 17 -363 51s-171 90.833 -221 170.5s-75 166.5 -75 260.5v12zM524.003 2126l370 406h269l-428 -406h-211z" />
    <glyph glyph-name="sacute" unicode="&#x15b;" horiz-adv-x="1304" 
d="M98 370l231.999 -0.000976562v-6c0 -60.667 23 -110.667 69 -150s123.333 -59 232 -59c96.667 0 174.667 23.333 234 70s89 101.667 89 165c0 85.333 -58 146.333 -174 183l-121 36l-78 24l-161 50c-183.333 68.667 -275 181.334 -275 338.001
c0 110 44.5 206.5 133.5 289.5s221.167 124.5 396.5 124.5c172.667 0 295.834 -35.5 369.501 -106.5s110.5 -150.167 110.5 -237.5v-4h-235v4c0 46.667 -23.333 83.5 -70 110.5s-109 40.5 -187 40.5c-94 0 -165.667 -19.5 -215 -58.5s-74 -86.5 -74 -142.5
c0 -44 16 -79.5 48 -106.5s86.333 -51.167 163 -72.5l110 -32l83 -24c113.333 -32 183.833 -54.833 211.5 -68.5s55.5 -30.5 83.5 -50.5c40 -30.667 69.5 -67.167 88.5 -109.5s28.5 -92.166 28.5 -149.499c0 -131.333 -47.667 -241.833 -143 -331.5
s-233.333 -134.5 -414 -134.5c-115.333 0 -210.833 17 -286.5 51s-136 81.167 -181 141.5s-67.5 130.166 -67.5 209.499v6zM433.999 1563l370 406h269l-426 -406h-213z" />
    <glyph glyph-name="Scircumflex" unicode="&#x15c;" horiz-adv-x="1551" 
d="M137 436h251.003v-12c0 -107.333 38.167 -182 114.5 -224s177.5 -63 303.5 -63c110 0 202.167 32.167 276.5 96.5s111.5 148.5 111.5 252.5c0 84.667 -32.333 154.334 -97 209.001c-64 54 -161 107 -291 159l-103 42c-136.667 56.667 -239.167 112.667 -307.5 168
s-119.166 116.833 -152.499 184.5s-50 143.167 -50 226.5c0 147.333 51.833 271.166 155.5 371.499s266.167 150.5 487.5 150.5c202 0 344.167 -37.5 426.5 -112.5s123.5 -162.5 123.5 -262.5v-12h-251v12c0 32 -12.667 63.333 -38 94s-63.5 53 -114.5 67
s-106.5 21 -166.5 21c-124.667 0 -216.834 -31 -276.501 -93s-89.5 -132.667 -89.5 -212c0 -53.333 14.167 -103.5 42.5 -150.5s67.166 -85.833 116.499 -116.5s133 -72.334 251 -125.001l119 -50c190 -83.333 317 -170.333 381 -261c63.333 -91.333 95 -189.333 95 -294
c0 -97.333 -25.833 -191.666 -77.5 -282.999s-123.334 -160.333 -215.001 -207s-213.834 -70 -366.501 -70c-144.667 0 -265.667 17 -363 51s-171 90.833 -221 170.5s-75 166.5 -75 260.5v12zM796.003 2335l-175 -209h-195l291 406h155l291 -406h-194z" />
    <glyph glyph-name="scircumflex" unicode="&#x15d;" horiz-adv-x="1304" 
d="M98 370l231.999 -0.000976562v-6c0 -60.667 23 -110.667 69 -150s123.333 -59 232 -59c96.667 0 174.667 23.333 234 70s89 101.667 89 165c0 85.333 -58 146.333 -174 183l-121 36l-78 24l-161 50c-183.333 68.667 -275 181.334 -275 338.001
c0 110 44.5 206.5 133.5 289.5s221.167 124.5 396.5 124.5c172.667 0 295.834 -35.5 369.501 -106.5s110.5 -150.167 110.5 -237.5v-4h-235v4c0 46.667 -23.333 83.5 -70 110.5s-109 40.5 -187 40.5c-94 0 -165.667 -19.5 -215 -58.5s-74 -86.5 -74 -142.5
c0 -44 16 -79.5 48 -106.5s86.333 -51.167 163 -72.5l110 -32l83 -24c113.333 -32 183.833 -54.833 211.5 -68.5s55.5 -30.5 83.5 -50.5c40 -30.667 69.5 -67.167 88.5 -109.5s28.5 -92.166 28.5 -149.499c0 -131.333 -47.667 -241.833 -143 -331.5
s-233.333 -134.5 -414 -134.5c-115.333 0 -210.833 17 -286.5 51s-136 81.167 -181 141.5s-67.5 130.166 -67.5 209.499v6zM642.999 1772l-175 -209h-195l292 406h154l292 -406h-195z" />
    <glyph glyph-name="Scedilla" unicode="&#x15e;" horiz-adv-x="1551" 
d="M713 -56c-214 14.667 -363.501 64.1689 -448.501 148.502s-127.5 190.833 -127.5 319.5v24h251v-22c0 -100.667 42.167 -172 126.5 -214s181.5 -63 291.5 -63s202.167 32.167 276.5 96.5s111.5 148.5 111.5 252.5c0 84.667 -32.333 154.334 -97 209.001
c-64 54 -161 107 -291 159l-103 42c-136.667 56.667 -239.167 112.667 -307.5 168s-119.166 116.833 -152.499 184.5s-50 143.167 -50 226.5c0 147.333 51.833 271.166 155.5 371.499s266.167 150.5 487.5 150.5c202 0 344.167 -37.5 426.5 -112.5
s123.5 -159.833 123.5 -254.5v-20h-251v18c0 28 -12.667 57.333 -38 88s-63.5 53 -114.5 67s-106.5 21 -166.5 21c-122 0 -212.5 -31 -271.5 -93s-88.5 -132.667 -88.5 -212c0 -53.333 13.833 -103.5 41.5 -150.5s65.5 -85.833 113.5 -116.5s131 -72.334 249 -125.001
l119 -50c191.333 -84.667 318.333 -171.667 381 -261c63.333 -92.667 95 -190 95 -292c0 -126 -45.5 -247.167 -136.5 -363.5s-247.833 -182.5 -470.5 -198.5l-58 -105c89.333 -18.667 147.833 -46.334 175.5 -83.001s41.5 -75.334 41.5 -116.001
c0 -45.333 -18.5 -87.166 -55.5 -125.499s-94.167 -57.5 -171.5 -57.5c-70 0 -136.333 12.333 -199 37v110c48 -25.333 97.333 -38 148 -38c28.667 0 54.667 8.66699 78 26s35 35.333 35 54c0 58 -77 94.333 -231 109z" />
    <glyph glyph-name="scedilla" unicode="&#x15f;" horiz-adv-x="1300" 
d="M649 -163c90 -18.667 149.001 -46.335 177.001 -83.002s42 -75.334 42 -116.001c0 -45.333 -18.667 -87.166 -56 -125.499s-95 -57.5 -173 -57.5c-69.333 0 -135.666 12.333 -198.999 37v110c48 -25.333 97.667 -38 149 -38c29.333 0 55.666 8.66699 78.999 26
s35 35.333 35 54c0 58 -77.667 94.333 -233 109l117 209c-176.667 16 -302.334 58.5 -377.001 127.5s-112 144.833 -112 227.5v23h232v-21c0 -54.667 25.333 -95.667 76 -123s126.334 -41 227.001 -41c112.667 0 193.667 21.333 243 64s74 89.667 74 141
c0 44 -14 81.333 -42 112c-29.333 30.667 -106.333 71 -231 121l-126 50c-168 66.667 -280.667 127.667 -338 183c-57.333 56 -86 129.667 -86 221c0 127.333 47.833 223.833 143.5 289.5s221.167 98.5 376.5 98.5c98 0 186.833 -13.167 266.5 -39.5
s139.834 -66.166 180.501 -119.499s61 -104.333 61 -153v-18h-235v20c0 32.667 -21.333 60.334 -64 83.001s-111.667 34 -207 34c-92.667 0 -162.334 -13.5 -209.001 -40.5s-70 -67.833 -70 -122.5c0 -37.333 12.667 -69.333 38 -96c26.667 -28.667 73 -57 139 -85l86 -34
l155 -62l76 -32c123.333 -48.667 207.666 -104.334 252.999 -167.001c44.667 -64.667 67 -137 67 -217c0 -102 -34.833 -192.167 -104.5 -270.5s-189.167 -128.166 -358.5 -149.499z" />
    <glyph glyph-name="Scaron" unicode="&#x160;" horiz-adv-x="1551" 
d="M137 436h251.003v-12c0 -107.333 38.167 -182 114.5 -224s177.5 -63 303.5 -63c110 0 202.167 32.167 276.5 96.5s111.5 148.5 111.5 252.5c0 84.667 -32.333 154.334 -97 209.001c-64 54 -161 107 -291 159l-103 42c-136.667 56.667 -239.167 112.667 -307.5 168
s-119.166 116.833 -152.499 184.5s-50 143.167 -50 226.5c0 147.333 51.833 271.166 155.5 371.499s266.167 150.5 487.5 150.5c202 0 344.167 -37.5 426.5 -112.5s123.5 -162.5 123.5 -262.5v-12h-251v12c0 32 -12.667 63.333 -38 94s-63.5 53 -114.5 67
s-106.5 21 -166.5 21c-124.667 0 -216.834 -31 -276.501 -93s-89.5 -132.667 -89.5 -212c0 -53.333 14.167 -103.5 42.5 -150.5s67.166 -85.833 116.499 -116.5s133 -72.334 251 -125.001l119 -50c190 -83.333 317 -170.333 381 -261c63.333 -91.333 95 -189.333 95 -294
c0 -97.333 -25.833 -191.666 -77.5 -282.999s-123.334 -160.333 -215.001 -207s-213.834 -70 -366.501 -70c-144.667 0 -265.667 17 -363 51s-171 90.833 -221 170.5s-75 166.5 -75 260.5v12zM849.003 2327l174 78h272l-368 -253h-155l-370 253h272z" />
    <glyph glyph-name="scaron" unicode="&#x161;" horiz-adv-x="1304" 
d="M98 370l231.999 -0.000976562v-6c0 -60.667 23 -110.667 69 -150s123.333 -59 232 -59c96.667 0 174.667 23.333 234 70s89 101.667 89 165c0 85.333 -58 146.333 -174 183l-121 36l-78 24l-161 50c-183.333 68.667 -275 181.334 -275 338.001
c0 110 44.5 206.5 133.5 289.5s221.167 124.5 396.5 124.5c172.667 0 295.834 -35.5 369.501 -106.5s110.5 -150.167 110.5 -237.5v-4h-235v4c0 46.667 -23.333 83.5 -70 110.5s-109 40.5 -187 40.5c-94 0 -165.667 -19.5 -215 -58.5s-74 -86.5 -74 -142.5
c0 -44 16 -79.5 48 -106.5s86.333 -51.167 163 -72.5l110 -32l83 -24c113.333 -32 183.833 -54.833 211.5 -68.5s55.5 -30.5 83.5 -50.5c40 -30.667 69.5 -67.167 88.5 -109.5s28.5 -92.166 28.5 -149.499c0 -131.333 -47.667 -241.833 -143 -331.5
s-233.333 -134.5 -414 -134.5c-115.333 0 -210.833 17 -286.5 51s-136 81.167 -181 141.5s-67.5 130.166 -67.5 209.499v6zM642.999 1808l175 209h195l-292 -407h-154l-292 407h193z" />
    <glyph glyph-name="Tcedilla" unicode="&#x162;" horiz-adv-x="1640" 
d="M699 0v1744h-661v195h1561v-195h-649v-1744h-56l-78 -139c89.333 -17.333 147.833 -44.333 175.5 -81s41.5 -75.334 41.5 -116.001c0 -46.667 -18.5 -88.667 -55.5 -126s-94.167 -56 -171.5 -56c-70 0 -136.333 11.333 -199 34v112c48 -26.667 97.667 -40 149 -40
c29.333 0 55.333 8.66699 78 26s34 36 34 56c0 56.667 -77 93 -231 109l122 221h-60z" />
    <glyph glyph-name="tcedilla" unicode="&#x163;" horiz-adv-x="1135" 
d="M1037 197l-0.000976562 -195c-96 -22.667 -173 -35.667 -231 -39l-71 -128c88.667 -17.333 146.667 -44.666 174 -81.999s41 -75.666 41 -114.999c0 -46.667 -18 -88.834 -54 -126.501s-93.667 -56.5 -173 -56.5c-68 0 -134.333 11.667 -199 35v112
c48.667 -26.667 98.334 -40 149.001 -40c29.333 0 55.833 8.66699 79.5 26s35.5 36 35.5 56c0 56.667 -77.667 93 -233 109l121 218c-48 8 -92.667 22.333 -134 43c-69.333 34.667 -122 85.5 -158 152.5s-54 172.833 -54 317.5v718h-242v195h242v329h233v-329h408v-195h-408
v-651c0 -123.333 9.66699 -208.833 29 -256.5s49.333 -82.834 90 -105.501s90 -34 148 -34c45.333 0 114.333 14 207 42z" />
    <glyph glyph-name="Tcaron" unicode="&#x164;" horiz-adv-x="1640" 
d="M699 0v1744h-661v195h1561v-195h-649v-1744h-251zM818 2265l175 211h195l-292 -408h-155l-291 408h193z" />
    <glyph glyph-name="tcaron" unicode="&#x165;" horiz-adv-x="1519" 
d="M1037 197v-194.999c-112.667 -26.667 -199 -40 -259 -40c-87.333 0 -165.833 17.333 -235.5 52s-122.5 85.5 -158.5 152.5s-54 172.833 -54 317.5v718h-242v195h242v329h233v-329h408v-195h-408v-651c0 -123.333 9.66699 -208.833 29 -256.5s49.333 -82.834 90 -105.501
s90 -34 148 -34c45.333 0 114.333 14 207 42zM1037 1328v151c40 22.667 70.667 51.167 92 85.5s37.5 69.5 48.5 105.5s16.5 77.333 16.5 124h-157v330h331v-205c0 -123.333 -12 -217.5 -36 -282.5s-60.167 -124.333 -108.5 -178s-110.5 -97.167 -186.5 -130.5z" />
    <glyph glyph-name="Tbar" unicode="&#x166;" horiz-adv-x="1640" 
d="M699 0v892h-229v155h229v697h-661v195h1561v-195h-649v-697h219v-155h-219v-892h-251z" />
    <glyph glyph-name="tbar" unicode="&#x167;" horiz-adv-x="1135" 
d="M213 766v154.001h117v282h-242v195h242v329h233v-329h408v-195h-408v-282h349v-154h-349v-215c0 -123.333 9.66699 -208.833 29 -256.5s49.333 -82.834 90 -105.501s90 -34 148 -34c45.333 0 114.333 14 207 42v-195c-112.667 -26.667 -199 -40 -259 -40
c-87.333 0 -165.833 17.333 -235.5 52s-122.5 85.5 -158.5 152.5s-54 172.833 -54 317.5v282h-117z" />
    <glyph glyph-name="Utilde" unicode="&#x168;" 
d="M155 1939l253.001 0.000976562v-1246c0 -182 17.667 -304.167 53 -366.5s90.5 -109.5 165.5 -141.5s158.833 -48 251.5 -48c88.667 0 167.5 16 236.5 48s120.167 83.167 153.5 153.5s50 218.166 50 443.499v1157h233v-1224c0 -226 -26 -385 -78 -477
s-127.333 -164.333 -226 -217s-222.334 -79 -371.001 -79c-138 0 -264.5 21 -379.5 63s-200.667 108 -257 198s-84.5 242 -84.5 456v1280zM601.001 2070h-157.002c0 109.333 21.833 189.833 65.5 241.5s97.5 77.5 161.5 77.5c52.667 0 105 -16.667 157 -50l54 -32
c68.667 -42.667 117 -64 145 -64c49.333 0 74 48.667 74 146h159c-5.33301 -85.333 -16.666 -147.5 -33.999 -186.5s-44.166 -71.167 -80.499 -96.5s-75.833 -38 -118.5 -38c-58 0 -117 20 -177 60l-54 36c-50 33.333 -85.667 50 -107 50c-58.667 0 -88 -48 -88 -144z" />
    <glyph glyph-name="utilde" unicode="&#x169;" horiz-adv-x="1493" 
d="M1077 1397l231 0.00195312v-1397h-231v243c-48 -74.667 -95.5 -130.834 -142.5 -168.501s-95.333 -65.834 -145 -84.501s-103.167 -28 -160.5 -28c-130 0 -239.833 36.5 -329.5 109.5s-134.5 219.167 -134.5 438.5v887h233v-788c0 -204 27.167 -327.333 81.5 -370
s120.833 -64 199.5 -64c70 0 135.5 20 196.5 60s109.833 96.5 146.5 169.5s55 174.5 55 304.5v688zM484 1525l-154.002 0.000976562c0 110 21.333 190.833 64 242.5s96.334 77.5 161.001 77.5c52 0 104.667 -17 158 -51l53 -30c68 -44 116 -66 144 -66c50 0 75 49 75 147
h158c-5.33301 -84.667 -16.666 -146.834 -33.999 -186.501s-44 -72.167 -80 -97.5s-75.667 -38 -119 -38c-56 0 -115 20.667 -177 62l-54 37c-49.333 32 -84 48 -104 48c-60.667 0 -91 -48.333 -91 -145z" />
    <glyph glyph-name="Umacron" unicode="&#x16a;" 
d="M155 1939l253.001 0.000976562v-1246c0 -182 17.667 -304.167 53 -366.5s90.5 -109.5 165.5 -141.5s158.833 -48 251.5 -48c88.667 0 167.5 16 236.5 48s120.167 83.167 153.5 153.5s50 218.166 50 443.499v1157h233v-1224c0 -226 -26 -385 -78 -477
s-127.333 -164.333 -226 -217s-222.334 -79 -371.001 -79c-138 0 -264.5 21 -379.5 63s-200.667 108 -257 198s-84.5 242 -84.5 456v1280zM504.001 2068v154h698v-154h-698z" />
    <glyph glyph-name="umacron" unicode="&#x16b;" horiz-adv-x="1493" 
d="M1077 1397l231 0.00195312v-1397h-231v243c-48 -74.667 -95.5 -130.834 -142.5 -168.501s-95.333 -65.834 -145 -84.501s-103.167 -28 -160.5 -28c-130 0 -239.833 36.5 -329.5 109.5s-134.5 219.167 -134.5 438.5v887h233v-788c0 -204 27.167 -327.333 81.5 -370
s120.833 -64 199.5 -64c70 0 135.5 20 196.5 60s109.833 96.5 146.5 169.5s55 174.5 55 304.5v688zM388 1523v155h699v-155h-699z" />
    <glyph glyph-name="Ubreve" unicode="&#x16c;" 
d="M155 1939l253.001 0.000976562v-1246c0 -182 17.667 -304.167 53 -366.5s90.5 -109.5 165.5 -141.5s158.833 -48 251.5 -48c88.667 0 167.5 16 236.5 48s120.167 83.167 153.5 153.5s50 218.166 50 443.499v1157h233v-1224c0 -226 -26 -385 -78 -477
s-127.333 -164.333 -226 -217s-222.334 -79 -371.001 -79c-138 0 -264.5 21 -379.5 63s-200.667 108 -257 198s-84.5 242 -84.5 456v1280zM643.001 2476c8 -64.667 32.5 -121.501 73.5 -170.501s86.833 -73.5 137.5 -73.5s96.167 24.833 136.5 74.5
s63.833 106.167 70.5 169.5h161c-10.667 -92.667 -34.5 -167.834 -71.5 -225.5c-37 -57.667 -81.667 -102.5 -134 -134.5s-106.5 -48 -162.5 -48s-110.5 16 -163.5 48s-98 76.833 -135 134.5s-60.833 132.834 -71.5 225.501h159z" />
    <glyph glyph-name="ubreve" unicode="&#x16d;" horiz-adv-x="1493" 
d="M1077 1397l231 0.00195312v-1397h-231v243c-48 -74.667 -95.5 -130.834 -142.5 -168.501s-95.333 -65.834 -145 -84.501s-103.167 -28 -160.5 -28c-130 0 -239.833 36.5 -329.5 109.5s-134.5 219.167 -134.5 438.5v887h233v-788c0 -204 27.167 -327.333 81.5 -370
s120.833 -64 199.5 -64c70 0 135.5 20 196.5 60s109.833 96.5 146.5 169.5s55 174.5 55 304.5v688zM528 1931c7.33301 -64 31.334 -120.501 72.001 -169.501s86.334 -73.5 137.001 -73.5c51.333 0 97 24.833 137 74.5s63.333 105.834 70 168.501h161
c-10.667 -92.667 -34.334 -167.334 -71.001 -224.001s-81.167 -101.5 -133.5 -134.5s-106.833 -49.5 -163.5 -49.5c-56 0 -110.5 16.5 -163.5 49.5s-97.833 77.833 -134.5 134.5s-60.334 131.334 -71.001 224.001h160z" />
    <glyph glyph-name="Uring" unicode="&#x16e;" 
d="M155 1939l253.001 0.000976562v-1246c0 -182 17.667 -304.167 53 -366.5s90.5 -109.5 165.5 -141.5s158.833 -48 251.5 -48c88.667 0 167.5 16 236.5 48s120.167 83.167 153.5 153.5s50 218.166 50 443.499v1157h233v-1224c0 -226 -26 -385 -78 -477
s-127.333 -164.333 -226 -217s-222.334 -79 -371.001 -79c-138 0 -264.5 21 -379.5 63s-200.667 108 -257 198s-84.5 242 -84.5 456v1280zM852.001 2184c33.333 0 61.166 11.501 83.499 34.501s33.5 50.5 33.5 82.5c0 30.667 -11.167 57.334 -33.5 80
c-22.333 22.667 -50.166 34 -83.499 34c-30.667 0 -57.834 -11.333 -81.501 -34s-35.5 -49.334 -35.5 -80.001c0 -32 11.833 -59.5 35.5 -82.5s50.834 -34.5 81.501 -34.5zM852.001 2068c-64 0 -118.5 23.333 -163.5 70s-67.5 101 -67.5 163
c0 61.333 22.5 115.166 67.5 161.5c45 46.333 99.5 69.5 163.5 69.5c65.333 0 120.5 -23.167 165.5 -69.5s67.5 -100.166 67.5 -161.5c0 -62 -22.5 -116.333 -67.5 -163s-100.167 -70 -165.5 -70z" />
    <glyph glyph-name="uring" unicode="&#x16f;" horiz-adv-x="1493" 
d="M1077 1397l231 0.00195312v-1397h-231v243c-48 -74.667 -95.5 -130.834 -142.5 -168.501s-95.333 -65.834 -145 -84.501s-103.167 -28 -160.5 -28c-130 0 -239.833 36.5 -329.5 109.5s-134.5 219.167 -134.5 438.5v887h233v-788c0 -204 27.167 -327.333 81.5 -370
s120.833 -64 199.5 -64c70 0 135.5 20 196.5 60s109.833 96.5 146.5 169.5s55 174.5 55 304.5v688zM735 1640c34 0 62 11.333 84 34s33 50 33 82s-11 59.5 -33 82.5s-50 34.5 -84 34.5c-30.667 0 -57.334 -11.5 -80.001 -34.5s-34 -50.5 -34 -82.5s11.333 -59.333 34 -82
s49.334 -34 80.001 -34zM735 1523c-64 0 -118.501 23.5 -163.501 70.5s-67.5 101.167 -67.5 162.5c0 63.333 22.833 118 68.5 164s99.834 69 162.501 69c66 0 121.5 -23 166.5 -69s67.5 -100.667 67.5 -164c0 -61.333 -22.5 -115.5 -67.5 -162.5s-100.5 -70.5 -166.5 -70.5z
" />
    <glyph glyph-name="Uhungarumlaut" unicode="&#x170;" 
d="M155 1939l253.001 0.000976562v-1246c0 -182 17.667 -304.167 53 -366.5s90.5 -109.5 165.5 -141.5s158.833 -48 251.5 -48c88.667 0 167.5 16 236.5 48s120.167 83.167 153.5 153.5s50 218.166 50 443.499v1157h233v-1224c0 -226 -26 -385 -78 -477
s-127.333 -164.333 -226 -217s-222.334 -79 -371.001 -79c-138 0 -264.5 21 -379.5 63s-200.667 108 -257 198s-84.5 242 -84.5 456v1280zM776.001 2068h-145l177 408h153zM1117 2068h-146l180 408h157z" />
    <glyph glyph-name="uhungarumlaut" unicode="&#x171;" horiz-adv-x="1493" 
d="M1077 1397l231 0.00195312v-1397h-231v243c-48 -74.667 -95.5 -130.834 -142.5 -168.501s-95.333 -65.834 -145 -84.501s-103.167 -28 -160.5 -28c-130 0 -239.833 36.5 -329.5 109.5s-134.5 219.167 -134.5 438.5v887h233v-788c0 -204 27.167 -327.333 81.5 -370
s120.833 -64 199.5 -64c70 0 135.5 20 196.5 60s109.833 96.5 146.5 169.5s55 174.5 55 304.5v688zM633 1523h-145l179 408h153zM977 1523h-149l183 408h156z" />
    <glyph glyph-name="Uogonek" unicode="&#x172;" 
d="M155 1939l253 -0.00195312v-1246c0 -182 17.667 -304.167 53 -366.5s90.5 -109.5 165.5 -141.5s158.833 -48 251.5 -48c88.667 0 167.5 16 236.5 48s120.167 83.167 153.5 153.5s50 218.166 50 443.499v1157h233v-1224c0 -226 -26 -385 -78 -477
s-127.333 -164.333 -226 -217c-66.667 -35.333 -144.334 -58.666 -233.001 -69.999c-51.333 -31.333 -94.333 -70.666 -129 -117.999c-46 -62.667 -69 -114.334 -69 -155.001c0 -25.333 11.333 -49.666 34 -72.999s61.667 -35 117 -35c29.333 0 62.666 8 99.999 24v-122
c-54.667 -24.667 -107.667 -37 -159 -37c-77.333 0 -141.166 21.167 -191.499 63.5s-75.5 95.5 -75.5 159.5c0 90.667 50 186.334 150 287.001c-105.333 6.66699 -203.666 26.667 -294.999 60c-114.667 42 -200.167 108 -256.5 198s-84.5 242 -84.5 456v1280z" />
    <glyph glyph-name="uogonek" unicode="&#x173;" horiz-adv-x="1493" 
d="M1346 24c-13.333 -6 -25.998 -12.6641 -37.998 -19.9971v-4h-8c-54 -32 -99.333 -72.667 -136 -122c-46 -63.333 -69 -114.333 -69 -153c0 -26.667 11.667 -51.834 35 -75.501s62 -35.5 116 -35.5c29.333 0 62.666 8 99.999 24v-120
c-54.667 -24 -107.334 -36 -158.001 -36c-78 0 -142.167 20.667 -192.5 62s-75.5 94.333 -75.5 159c0 93.333 53.333 192.333 160 297h-3v243c-48 -74.667 -95.5 -130.834 -142.5 -168.501s-95.333 -65.834 -145 -84.501s-103.167 -28 -160.5 -28
c-130 0 -239.833 36.5 -329.5 109.5s-134.5 219.167 -134.5 438.5v887h233v-788c0 -204 27.167 -327.333 81.5 -370s120.833 -64 199.5 -64c70 0 135.5 20 196.5 60s109.833 96.5 146.5 169.5s55 174.5 55 304.5v688h231v-1373h38z" />
    <glyph glyph-name="Wcircumflex" unicode="&#x174;" horiz-adv-x="2423" 
d="M794 0h-257l-439 1939h242l307 -1364l42 -235h12l42 235l356 1364h249l348 -1368l38 -231h12l42 231l318 1368h221l-450 -1939h-257l-358 1391l-46 239h-14l-43 -239zM1212 2277l-175 -209h-193l291 408h155l291 -408h-195z" />
    <glyph glyph-name="wcircumflex" unicode="&#x175;" horiz-adv-x="1997" 
d="M438 0l-400 1397h245l245 -869l33 -209h26l36 209l249 869h235l277 -867l47 -211h26l36 211l245 867h221l-400 -1397h-235l-287 912l-38 203h-20l-41 -203l-265 -912h-235zM999 1734l-175 -211h-193l289 408h157l291 -408h-194z" />
    <glyph glyph-name="Ycircumflex" unicode="&#x176;" horiz-adv-x="1561" 
d="M908 0h-251v914l-629 1025h294l486 -784l478 784h245l-623 -1025v-914zM780 2277l-175 -209h-193l291 408h155l291 -408h-195z" />
    <glyph glyph-name="ycircumflex" unicode="&#x177;" horiz-adv-x="1463" 
d="M639 60l-600.999 1337h257l469 -1037l438 1037h233l-589 -1399c-79.333 -187.333 -145.666 -311.833 -198.999 -373.5s-109.833 -105 -169.5 -130s-139.167 -37.5 -238.5 -37.5h-175v193h133c64 0 120.167 8.83301 168.5 26.5s88.666 45.167 120.999 82.5
s75.166 119.666 128.499 246.999zM735.001 1734l-174 -211h-193l291 408h155l291 -408h-195z" />
    <glyph glyph-name="Ydieresis" unicode="&#x178;" horiz-adv-x="1561" 
d="M908 0h-251v914l-629 1025h294l486 -784l478 784h245l-623 -1025v-914zM368 2152v233h233v-233h-233zM910 2152v233h233v-233h-233z" />
    <glyph glyph-name="Zacute" unicode="&#x179;" horiz-adv-x="1473" 
d="M1358 233v-233h-1260v233l963 1493h-896v213h1173v-213l-958 -1493h978zM456 2068l370 408h271l-428 -408h-213z" />
    <glyph glyph-name="zacute" unicode="&#x17a;" horiz-adv-x="1417" 
d="M1280 193v-193h-1135v193l830 1009h-810v195h1085v-195l-814 -1009h844zM442 1523l370 408h269l-428 -408h-211z" />
    <glyph glyph-name="Zdotaccent" unicode="&#x17b;" horiz-adv-x="1473" 
d="M1358 233v-233h-1260v233l963 1493h-896v213h1173v-213l-958 -1493h978zM611 2068v233h233v-233h-233z" />
    <glyph glyph-name="zdotaccent" unicode="&#x17c;" horiz-adv-x="1417" 
d="M1280 193v-193h-1135v193l830 1009h-810v195h1085v-195l-814 -1009h844zM597 1523v233h231v-233h-231z" />
    <glyph glyph-name="Zcaron" unicode="&#x17d;" horiz-adv-x="1473" 
d="M1358 233v-233h-1260v233l963 1493h-896v213h1173v-213l-958 -1493h978zM787 2327l175 78h271l-370 -253h-155l-367 253h271z" />
    <glyph glyph-name="zcaron" unicode="&#x17e;" horiz-adv-x="1417" 
d="M1280 193v-193h-1135v193l830 1009h-810v195h1085v-195l-814 -1009h844zM713 1808l173 209h195l-291 -407h-155l-291 407h193z" />
    <glyph glyph-name="uni017F" unicode="&#x17f;" horiz-adv-x="999" 
d="M543 0h-234v1202h-203v195h203v64c0 202 43 345.167 129 429.5s197.333 126.5 334 126.5c52 0 117.667 -6 197 -18v-189c-64.667 8.66699 -117 13 -157 13c-75.333 0 -139 -18.5 -191 -55.5s-78 -124.5 -78 -262.5v-1505z" />
    <glyph glyph-name="Oopen" unicode="&#x186;" horiz-adv-x="1668" 
d="M350 1523h-233.002v12c0 76.667 26.333 154.5 79 233.5s124.334 137.167 215.001 174.5s197.334 56 320.001 56c246.667 0 448.334 -86 605.001 -258s235 -428.667 235 -770c0 -342 -78 -599 -234 -771s-358.667 -258 -608 -258c-121.333 0 -227.333 18.333 -318 55
s-162.334 95.167 -215.001 175.5s-79 158.166 -79 233.499v12h233v-12c0 -48 14.667 -93.833 44 -137.5s71.833 -76.5 127.5 -98.5s122.167 -33 199.5 -33c198.667 0 346.5 78.333 443.5 235s145.5 356.334 145.5 599.001c0 244.667 -48.833 444.667 -146.5 600
s-244.5 233 -440.5 233c-135.333 0 -231.333 -27.667 -288 -83s-85 -117.333 -85 -186v-12z" />
    <glyph glyph-name="uni0189" unicode="&#x189;" horiz-adv-x="1794" 
d="M183 0l-0.00195312 891.998h-231v195h231v852h536c262.667 0 454.334 -35.167 575.001 -105.5s214.834 -178.166 282.501 -323.499s101.5 -323 101.5 -533c0 -196 -30.833 -365.667 -92.5 -509s-154.167 -257.166 -277.5 -341.499s-307.333 -126.5 -552 -126.5h-573z
M435.998 212.998h297.002c178.667 0 313.167 26.167 403.5 78.5s159.333 134 207 245s71.5 250.833 71.5 419.5c0 169.333 -21.833 314.5 -65.5 435.5s-110.334 210 -200.001 267s-229.834 85.5 -420.501 85.5h-293v-657h350v-195h-350v-679z" />
    <glyph glyph-name="Ereversed" unicode="&#x18e;" horiz-adv-x="1473" 
d="M1346 1939v-1939h-1097v213h844v613h-735v193h735v707h-910v213h1163z" />
    <glyph glyph-name="florin" unicode="&#x192;" 
d="M575 -465l-235 -0.000976562l316 1570h-203l38 195h204l33 161c73.333 371.333 264.333 557 573 557c51.333 0 115.666 -6 192.999 -18l-38 -190c-64 8.66699 -114.333 13 -151 13c-78 0 -146.667 -18.667 -206 -56s-102.666 -124.666 -129.999 -261.999l-41 -205h407
l-39 -195h-407z" />
    <glyph glyph-name="Ohorn" unicode="&#x1a0;" horiz-adv-x="1881" 
d="M940 -58c-242 0 -439.668 89 -593.001 267s-230 432 -230 762c0 328 76.667 581 230 759s351 267 593 267c242.667 0 440.334 -89 593.001 -267l28 -32c2.66699 0 5.33398 1.33301 8.00098 4c23.333 12 44 26.333 62 43s34.333 38.334 49 65.001l-87 51l107 187l185 -109
l-68 -114c-39.333 -70 -76.333 -119.667 -111 -149c-26.667 -22.667 -57.334 -41.334 -92.001 -56.001c100 -166.667 150 -383 150 -649c0 -330 -76.667 -584 -230 -762s-351.333 -267 -594 -267zM939.999 137c177.333 0 315.5 76 414.5 228s148.5 354 148.5 606
c0 250 -49.5 451.333 -148.5 604s-237.167 229 -414.5 229c-175.333 0 -312.833 -76.333 -412.5 -229s-149.5 -354 -149.5 -604c0 -252 49.833 -454 149.5 -606s237.167 -228 412.5 -228z" />
    <glyph glyph-name="ohorn" unicode="&#x1a1;" horiz-adv-x="1602" 
d="M776 -38c-182.667 0 -338.166 61.668 -466.499 185.001s-192.5 307.333 -192.5 552c0 242.667 64.167 426 192.5 550s283.833 186 466.5 186c182 0 337.333 -62.333 466 -187c21.333 -20 41.333 -42 60 -66c13.333 9.33301 25.333 19.333 36 30
c18.667 17.333 35.667 38.666 51 63.999l-87 52l107 185l184 -106l-66 -115c-40 -70.667 -77.333 -120.334 -112 -149.001c-20.667 -16 -42.334 -30.667 -65.001 -44c56.667 -107.333 85 -240.666 85 -399.999c0 -244.667 -64.333 -428.667 -193 -552s-284 -185 -466 -185z
M776.001 155.001c126 0 226.833 49.833 302.5 149.5s113.5 231.167 113.5 394.5c0 162 -37.833 293 -113.5 393s-176.5 150 -302.5 150s-226.833 -50 -302.5 -150s-113.5 -231 -113.5 -393c0 -163.333 37.833 -294.833 113.5 -394.5s176.5 -149.5 302.5 -149.5z" />
    <glyph glyph-name="Tonetwo" unicode="&#x1a7;" horiz-adv-x="1551" 
d="M1457 424c0 -94 -25.5 -180.833 -76.5 -260.5s-125 -136.5 -222 -170.5s-217.833 -51 -362.5 -51c-152.667 0 -274.667 23.333 -366 70s-163 115.667 -215 207s-78 185.666 -78 282.999c0 104.667 32 202.667 96 294c64.667 90.667 191.334 177.667 380.001 261l120 50
c116.667 52.667 199.834 94.334 249.501 125.001s88.834 69.5 117.501 116.5s43 97.167 43 150.5c0 79.333 -29.667 150 -89 212s-151.333 93 -276 93c-60.667 0 -116.334 -7 -167.001 -21s-88.834 -36.333 -114.501 -67s-38.5 -62 -38.5 -94v-12h-253v12
c0 100 41.167 187.5 123.5 262.5s224.833 112.5 427.5 112.5c220.667 0 383 -50.167 487 -150.5s156 -224.166 156 -371.499c0 -83.333 -16.833 -158.833 -50.5 -226.5s-84.334 -129.167 -152.001 -184.5s-170.5 -111.333 -308.5 -168l-100 -42
c-131.333 -52 -229.333 -105 -294 -159c-64 -54.667 -96 -124.334 -96 -209.001c0 -104 37.5 -188.167 112.5 -252.5s167.5 -96.5 277.5 -96.5c126 0 226.833 21 302.5 63s113.5 116.667 113.5 224v12h253v-12z" />
    <glyph glyph-name="tonetwo" unicode="&#x1a8;" horiz-adv-x="1304" 
d="M1190 364c0 -79.333 -22.5 -149.165 -67.5 -209.498s-105.333 -107.5 -181 -141.5s-171.167 -51 -286.5 -51c-182 0 -320.333 44.833 -415 134.5s-142 200.167 -142 331.5c0 57.333 9.5 107.166 28.5 149.499s47.833 78.833 86.5 109.5
c29.333 20 57.833 36.833 85.5 50.5s98.167 36.5 211.5 68.5l81 24l112 32c76.667 21.333 131 45.5 163 72.5s48 62.5 48 106.5c0 56 -24.667 103.5 -74 142.5s-121 58.5 -215 58.5c-78 0 -140.667 -13.5 -188 -40.5s-71 -63.833 -71 -110.5v-4h-233v4
c0 87.333 36.5 166.5 109.5 237.5s196.5 106.5 370.5 106.5c175.333 0 307.5 -41.5 396.5 -124.5s133.5 -179.5 133.5 -289.5c0 -156.667 -91.667 -269.334 -275 -338.001l-163 -50l-78 -24l-119 -36c-116 -36.667 -174 -97.667 -174 -183
c0 -63.333 29.667 -118.333 89 -165s137.333 -70 234 -70c108.667 0 186 19.667 232 59s69 89.333 69 150v6h232v-6z" />
    <glyph glyph-name="Uhorn" unicode="&#x1af;" horiz-adv-x="2030" 
d="M155 1939l253.001 0.00292969v-1246c0 -182 17.667 -304.167 53 -366.5s90.5 -109.5 165.5 -141.5s158.833 -48 251.5 -48c88.667 0 167.5 16 236.5 48s120.167 83.167 153.5 153.5s50 218.166 50 443.499v1157h233v-12l32 12c22 13.333 42 28.333 60 45
s34.333 38.667 49 66l-86 50l106 187l185 -109l-66 -114c-40.667 -70 -78 -119.333 -112 -148s-74 -50.334 -120 -65.001c-16 -6.66699 -32 -11.334 -48 -14.001v-1122c0 -226 -26 -385 -78 -477s-127.333 -164.333 -226 -217s-222.334 -79 -371.001 -79
c-138 0 -264.5 21 -379.5 63s-200.667 108 -257 198s-84.5 242 -84.5 456v1280z" />
    <glyph glyph-name="uhorn" unicode="&#x1b0;" horiz-adv-x="1738" 
d="M1077 1397l230.998 -0.000976562v-25c8 2.66699 15.333 5.33398 22 8.00098c22.667 14 42.834 29.333 60.501 46s34.5 38.334 50.5 65.001l-87 50l107 187l185 -108l-69 -115c-40 -69.333 -77 -118.5 -111 -147.5s-73.333 -50.833 -118 -65.5
c-13.333 -5.33301 -26.666 -8.66602 -39.999 -9.99902v-1282h-231v243c-48 -74.667 -95.5 -130.834 -142.5 -168.501s-95.333 -65.834 -145 -84.501s-103.167 -28 -160.5 -28c-130 0 -239.833 36.5 -329.5 109.5s-134.5 219.167 -134.5 438.5v887h233v-788
c0 -204 27.167 -327.333 81.5 -370s120.833 -64 199.5 -64c70 0 135.5 20 196.5 60s109.833 96.5 146.5 169.5s55 174.5 55 304.5v688z" />
    <glyph glyph-name="clickdental" unicode="&#x1c0;" horiz-adv-x="631" 
d="M213 -58v2055h205v-2055h-205z" />
    <glyph glyph-name="clicklateral" unicode="&#x1c1;" horiz-adv-x="1260" 
d="M213 -58v2055h205v-2055h-205zM844 -58v2055h203v-2055h-203z" />
    <glyph glyph-name="clickretroflex" unicode="&#x1c3;" horiz-adv-x="776" 
d="M506 0h-233v233h233v-233zM486 484h-191l-62 1455h310z" />
    <glyph glyph-name="DZcaron" unicode="&#x1c4;" horiz-adv-x="3314" 
d="M183 0v1939h536c261.333 0 452.333 -35.167 573 -105.5s215.167 -178.166 283.5 -323.499s102.5 -323 102.5 -533c0 -196 -30.833 -365.667 -92.5 -509s-154.5 -257.166 -278.5 -341.499s-307.667 -126.5 -551 -126.5h-573zM436 212.998h297.001
c178.667 0 313.167 26.167 403.5 78.5s159.333 134 207 245s71.5 250.833 71.5 419.5c0 169.333 -21.833 314.5 -65.5 435.5s-110.334 210 -200.001 267s-230.5 85.5 -422.5 85.5h-291v-1531zM3151 232.998v-233h-1260v233l964 1493h-896v213h1174v-213l-959 -1493h977z
M2622 2265l173 211h195l-292 -408h-155l-291 408h195z" />
    <glyph glyph-name="Dzcaron" unicode="&#x1c5;" horiz-adv-x="3217" 
d="M183 0v1939h536c261.333 0 452.333 -35.167 573 -105.5s215.167 -178.166 283.5 -323.499s102.5 -323 102.5 -533c0 -196 -30.833 -365.667 -92.5 -509s-154.5 -257.166 -278.5 -341.499s-307.667 -126.5 -551 -126.5h-573zM436 212.998h297.001
c178.667 0 313.167 26.167 403.5 78.5s159.333 134 207 245s71.5 250.833 71.5 419.5c0 169.333 -21.833 314.5 -65.5 435.5s-110.334 210 -200.001 267s-230.5 85.5 -422.5 85.5h-291v-1531zM3074 192.998v-193h-1135v193l828 1009h-808v195h1085v-195l-814 -1009h844z
M2506 1722l175 209h194l-291 -408h-155l-291 408h193z" />
    <glyph glyph-name="dzcaron" unicode="&#x1c6;" horiz-adv-x="2996" 
d="M1143 2017h233.001v-2017h-233v243c-46.667 -91.333 -92.5 -154.333 -137.5 -189s-95.5 -58.667 -151.5 -72s-111.667 -20 -167 -20c-106 0 -203.167 28.833 -291.5 86.5s-156.833 144 -205.5 259s-73 244.167 -73 387.5c0 212 51.167 388.333 153.5 529
s245.166 211 428.499 211c60.667 0 117 -8.5 169 -25.5s98.5 -42.5 139.5 -76.5s86.167 -94 135.5 -180v864zM1143 699c0 158 -34.166 288 -102.499 390s-163.833 153 -286.5 153c-112.667 0 -206.5 -45.167 -281.5 -135.5s-112.5 -224.833 -112.5 -403.5
c0 -210 36.167 -355.5 108.5 -436.5s165.5 -121.5 279.5 -121.5c73.333 0 142.166 22.333 206.499 67s111.833 111 142.5 199s46 184 46 288zM2821 193v-193h-1135v193l830 1009h-810v195h1085v-195l-814 -1009h844zM2255 1722l172 209h195l-291 -408h-155l-291 408h195z
" />
    <glyph glyph-name="LJ" unicode="&#x1c7;" horiz-adv-x="2812" 
d="M183 0v1939h253v-1726h1017v-213h-1270zM1543 330l250.999 0.000976562v-13c0 -36 9.83301 -68 29.5 -96s49.5 -49 89.5 -63s85 -21 135 -21c52 0 100.167 11.667 144.5 35s76.5 59.833 96.5 109.5s30 158.834 30 327.501v1330h251v-1336
c0 -212 -22.833 -356.833 -68.5 -434.5s-101.667 -134.834 -168 -171.501s-156.833 -55 -271.5 -55c-189.333 0 -323.166 39.167 -401.499 117.5s-117.5 164.166 -117.5 257.499v13z" />
    <glyph glyph-name="Lj" unicode="&#x1c8;" horiz-adv-x="2257" 
d="M183 0v1939h253v-1726h1017v-213h-1270zM1774 1397h235.001v-1397c0 -140.667 -17 -245.5 -51 -314.5s-88.5 -124.333 -163.5 -166s-156.167 -62.5 -243.5 -62.5c-62.667 0 -130.334 7.66699 -203.001 23v184l51 -6c45.333 -5.33301 82 -8 110 -8
c78 0 141.667 20.167 191 60.5s74 136.833 74 289.5v1397zM1774 1716v223h235v-223h-235z" />
    <glyph glyph-name="lj" unicode="&#x1c9;" horiz-adv-x="1331" 
d="M416 0h-233v2017h233v-2017zM882 1397h235.001v-1397c0 -140.667 -17 -245.5 -51 -314.5s-88.5 -124.333 -163.5 -166s-156.167 -62.5 -243.5 -62.5c-62.667 0 -130.334 7.66699 -203.001 23v184l50 -6c46 -5.33301 83 -8 111 -8c77.333 0 140.833 20.167 190.5 60.5
s74.5 136.833 74.5 289.5v1397zM882.001 1716v223h235v-223h-235z" />
    <glyph glyph-name="NJ" unicode="&#x1ca;" horiz-adv-x="3150" 
d="M416 0h-233v1939h251l886 -1378l81 -153l-4 153v1378h233v-1939h-250l-888 1384l-80 157l4 -157v-1384zM1863 330l253 0.000976562v-13c0 -36 9.33301 -68 28 -96s48.167 -49 88.5 -63s85.166 -21 134.5 -21c52 0 100.167 11.667 144.5 35s76.5 59.833 96.5 109.5
s30 158.834 30 327.501v1330h252v-1336c0 -212 -22.833 -356.833 -68.5 -434.5s-101.667 -134.834 -168 -171.501s-157.166 -55 -272.5 -55c-188.667 0 -322.167 39.167 -400.5 117.5s-117.5 164.166 -117.5 257.499v13z" />
    <glyph glyph-name="Nj" unicode="&#x1cb;" horiz-adv-x="2576" 
d="M416 0h-233v1939h251l886 -1378l81 -153l-4 153v1378h233v-1939h-250l-888 1384l-80 157l4 -157v-1384zM2096 1397h232.999v-1397c0 -140.667 -16.833 -245.5 -50.5 -314.5s-88 -124.333 -163 -166s-156.5 -62.5 -244.5 -62.5c-62 0 -129.667 7.66699 -203 23v184l50 -6
c46.667 -5.33301 83.667 -8 111 -8c78.667 0 142.834 20.167 192.501 60.5s74.5 136.833 74.5 289.5v1397zM2096 1716v223h233v-223h-233z" />
    <glyph glyph-name="nj" unicode="&#x1cc;" horiz-adv-x="2219" 
d="M416 0l-232.996 0.00195312v1397h233v-242c49.333 75.333 97.166 131.333 143.499 168s94.666 64.5 144.999 83.5s106.166 28.5 167.499 28.5c88.667 0 167.5 -17.833 236.5 -53.5s122.833 -88.334 161.5 -158.001s58 -181.5 58 -335.5v-888h-233v790
c0 124.667 -8.33301 213 -25 265s-49.167 92.833 -97.5 122.5s-100.5 44.5 -156.5 44.5c-68.667 0 -133.834 -20.167 -195.501 -60.5s-111.167 -96.333 -148.5 -168s-56 -173.834 -56 -306.501v-687zM1774 1397h235.001v-1397c0 -140.667 -17 -245.5 -51 -314.5
s-88.5 -124.333 -163.5 -166s-156.167 -62.5 -243.5 -62.5c-62.667 0 -130.334 7.66699 -203.001 23v184l51 -6c45.333 -5.33301 82 -8 110 -8c78 0 141.667 20.167 191 60.5s74 136.833 74 289.5v1397zM1774 1716v223h235v-223h-235z" />
    <glyph glyph-name="Acaron" unicode="&#x1cd;" horiz-adv-x="1861" 
d="M273 0h-235l796 1939h255l734 -1939h-274l-201 535h-856zM569 727h705l-340 903zM930 2265l173 211h195l-291 -408h-155l-291 408h195z" />
    <glyph glyph-name="acaron" unicode="&#x1ce;" horiz-adv-x="1417" 
d="M1045 0c-24 75.333 -36 139.665 -36 192.998c-102 -100.667 -188.833 -164.334 -260.5 -191.001s-140.834 -40 -207.501 -40c-110 0 -204.833 33.833 -284.5 101.5s-119.5 161.167 -119.5 280.5c0 135.333 55.833 239.5 167.5 312.5s304.834 136.167 579.501 189.5
l125 24v157c0 85.333 -28.833 145.5 -86.5 180.5s-126.834 52.5 -207.501 52.5c-96 0 -171.167 -21.167 -225.5 -63.5s-81.5 -92.166 -81.5 -149.499v-20h-253v20c0 61.333 26 124.833 78 190.5s121.333 115.334 208 149.001s180.667 50.5 282 50.5
c102 0 194.5 -16.167 277.5 -48.5s144 -75.166 183 -128.499s58.5 -154 58.5 -302v-542c0 -60 1.33301 -122.5 4 -187.5s17.334 -141.167 44.001 -228.5h-245zM1009 704.999l-70.998 -18.001c-235.333 -57.333 -385.833 -111.833 -451.5 -163.5
s-98.5 -112.834 -98.5 -183.501c0 -38 9.66699 -72.667 29 -104s48.166 -55.666 86.499 -72.999s76.166 -26 113.499 -26c65.333 0 129.5 18.667 192.5 56s112 87.833 147 151.5s52.5 137.834 52.5 222.501v138zM713.002 1760l173 211h195l-291 -408h-155l-291 408h193z" />
    <glyph glyph-name="Icaron" unicode="&#x1cf;" horiz-adv-x="621" 
d="M436 0h-253v1939h253v-1939zM309 2265l175 211h195l-291 -408h-155l-291 408h193z" />
    <glyph glyph-name="icaron" unicode="&#x1d0;" horiz-adv-x="601" 
d="M183 1397h233v-1397h-233v1397zM299 1722l175 209h195l-291 -408h-155l-291 408h193z" />
    <glyph glyph-name="Ocaron" unicode="&#x1d1;" horiz-adv-x="1881" 
d="M940 -58c-242 0 -439.667 89 -593 267s-230 432 -230 762c0 328 76.667 581 230 759s351 267 593 267c242.667 0 440.667 -89 594 -267s230 -431 230 -759c0 -330 -76.667 -584 -230 -762s-351.333 -267 -594 -267zM940 137c177.333 0 315.5 76 414.5 228
s148.5 354 148.5 606c0 250 -49.5 451.333 -148.5 604s-237.167 229 -414.5 229c-175.333 0 -312.833 -76.333 -412.5 -229s-149.5 -354 -149.5 -604c0 -252 49.833 -454 149.5 -606s237.167 -228 412.5 -228zM940 2323l173 209h195l-291 -406h-155l-291 406h195z" />
    <glyph glyph-name="ocaron" unicode="&#x1d2;" horiz-adv-x="1551" 
d="M776 -38c-182.667 0 -338.167 61.667 -466.5 185s-192.5 307.333 -192.5 552c0 242.667 64.167 426 192.5 550s283.833 186 466.5 186c182 0 337.333 -62 466 -186s193 -307.333 193 -550c0 -244.667 -64.333 -428.667 -193 -552s-284 -185 -466 -185zM776 155
c126 0 226.833 49.833 302.5 149.5s113.5 231.167 113.5 394.5c0 162 -37.833 293 -113.5 393s-176.5 150 -302.5 150s-226.833 -50 -302.5 -150s-113.5 -231 -113.5 -393c0 -163.333 37.833 -294.833 113.5 -394.5s176.5 -149.5 302.5 -149.5zM776 1760l172 209h195
l-291 -406h-155l-291 406h195z" />
    <glyph glyph-name="Ucaron" unicode="&#x1d3;" 
d="M155 1939l253.001 0.000976562v-1246c0 -182 17.667 -304.167 53 -366.5s90.5 -109.5 165.5 -141.5s158.833 -48 251.5 -48c88.667 0 167.5 16 236.5 48s120.167 83.167 153.5 153.5s50 218.166 50 443.499v1157h233v-1224c0 -226 -26 -385 -78 -477
s-127.333 -164.333 -226 -217s-222.334 -79 -371.001 -79c-138 0 -264.5 21 -379.5 63s-200.667 108 -257 198s-84.5 242 -84.5 456v1280zM852.001 2265l175 211h195l-292 -408h-154l-292 408h193z" />
    <glyph glyph-name="ucaron" unicode="&#x1d4;" horiz-adv-x="1493" 
d="M1077 1397l231 0.00195312v-1397h-231v243c-48 -74.667 -95.5 -130.834 -142.5 -168.501s-95.333 -65.834 -145 -84.501s-103.167 -28 -160.5 -28c-130 0 -239.833 36.5 -329.5 109.5s-134.5 219.167 -134.5 438.5v887h233v-788c0 -204 27.167 -327.333 81.5 -370
s120.833 -64 199.5 -64c70 0 135.5 20 196.5 60s109.833 96.5 146.5 169.5s55 174.5 55 304.5v688zM735 1722l175 209h195l-291 -408h-155l-291 408h193z" />
    <glyph glyph-name="Udieresismacron" unicode="&#x1d5;" 
d="M155 1939l253.001 0.000976562v-1246c0 -182 17.667 -304.167 53 -366.5s90.5 -109.5 165.5 -141.5s158.833 -48 251.5 -48c88.667 0 167.5 16 236.5 48s120.167 83.167 153.5 153.5s50 218.166 50 443.499v1157h233v-1224c0 -226 -26 -385 -78 -477
s-127.333 -164.333 -226 -217s-222.334 -79 -371.001 -79c-138 0 -264.5 21 -379.5 63s-200.667 108 -257 198s-84.5 242 -84.5 456v1280zM464.001 2068v233h233v-233h-233zM1007 2068v233h235v-233h-235zM504.001 2427v155h698v-155h-698z" />
    <glyph glyph-name="udieresismacron" unicode="&#x1d6;" horiz-adv-x="1493" 
d="M1077 1397l231 0.00195312v-1397h-231v243c-48 -74.667 -95.5 -130.834 -142.5 -168.501s-95.333 -65.834 -145 -84.501s-103.167 -28 -160.5 -28c-130 0 -239.833 36.5 -329.5 109.5s-134.5 219.167 -134.5 438.5v887h233v-788c0 -204 27.167 -327.333 81.5 -370
s120.833 -64 199.5 -64c70 0 135.5 20 196.5 60s109.833 96.5 146.5 169.5s55 174.5 55 304.5v688zM350 1523v233h231v-233h-231zM892 1523v233h233v-233h-233zM388 1883v157h699v-157h-699z" />
    <glyph glyph-name="Udieresisacute" unicode="&#x1d7;" 
d="M155 1939l253.001 0.000976562v-1246c0 -182 17.667 -304.167 53 -366.5s90.5 -109.5 165.5 -141.5s158.833 -48 251.5 -48c88.667 0 167.5 16 236.5 48s120.167 83.167 153.5 153.5s50 218.166 50 443.499v1157h233v-1224c0 -226 -26 -385 -78 -477
s-127.333 -164.333 -226 -217s-222.334 -79 -371.001 -79c-138 0 -264.5 21 -379.5 63s-200.667 108 -257 198s-84.5 242 -84.5 456v1280zM464.001 2068v233h233v-233h-233zM1007 2068v233h235v-233h-235zM532.001 2427l370 408h272l-429 -408h-213z" />
    <glyph glyph-name="udieresisacute" unicode="&#x1d8;" horiz-adv-x="1493" 
d="M1077 1397l231 0.00195312v-1397h-231v243c-48 -74.667 -95.5 -130.834 -142.5 -168.501s-95.333 -65.834 -145 -84.501s-103.167 -28 -160.5 -28c-130 0 -239.833 36.5 -329.5 109.5s-134.5 219.167 -134.5 438.5v887h233v-788c0 -204 27.167 -327.333 81.5 -370
s120.833 -64 199.5 -64c70 0 135.5 20 196.5 60s109.833 96.5 146.5 169.5s55 174.5 55 304.5v688zM350 1523v233h231v-233h-231zM892 1523v233h233v-233h-233zM416 1883l370 408h271l-428 -408h-213z" />
    <glyph glyph-name="Udieresiscaron" unicode="&#x1d9;" 
d="M155 1939l253.001 0.000976562v-1246c0 -182 17.667 -304.167 53 -366.5s90.5 -109.5 165.5 -141.5s158.833 -48 251.5 -48c88.667 0 167.5 16 236.5 48s120.167 83.167 153.5 153.5s50 218.166 50 443.499v1157h233v-1224c0 -226 -26 -385 -78 -477
s-127.333 -164.333 -226 -217s-222.334 -79 -371.001 -79c-138 0 -264.5 21 -379.5 63s-200.667 108 -257 198s-84.5 242 -84.5 456v1280zM464.001 2068v233h233v-233h-233zM1007 2068v233h235v-233h-235zM852.001 2624l175 211h195l-292 -408h-154l-292 408h193z" />
    <glyph glyph-name="udieresiscaron" unicode="&#x1da;" horiz-adv-x="1493" 
d="M1077 1397l231 0.00195312v-1397h-231v243c-48 -74.667 -95.5 -130.834 -142.5 -168.501s-95.333 -65.834 -145 -84.501s-103.167 -28 -160.5 -28c-130 0 -239.833 36.5 -329.5 109.5s-134.5 219.167 -134.5 438.5v887h233v-788c0 -204 27.167 -327.333 81.5 -370
s120.833 -64 199.5 -64c70 0 135.5 20 196.5 60s109.833 96.5 146.5 169.5s55 174.5 55 304.5v688zM350 1523v233h231v-233h-231zM892 1523v233h233v-233h-233zM735 2082l175 209h195l-291 -408h-155l-291 408h193z" />
    <glyph glyph-name="Udieresisgrave" unicode="&#x1db;" 
d="M155 1939l253.001 0.000976562v-1246c0 -182 17.667 -304.167 53 -366.5s90.5 -109.5 165.5 -141.5s158.833 -48 251.5 -48c88.667 0 167.5 16 236.5 48s120.167 83.167 153.5 153.5s50 218.166 50 443.499v1157h233v-1224c0 -226 -26 -385 -78 -477
s-127.333 -164.333 -226 -217s-222.334 -79 -371.001 -79c-138 0 -264.5 21 -379.5 63s-200.667 108 -257 198s-84.5 242 -84.5 456v1280zM464.001 2068v233h233v-233h-233zM1007 2068v233h235v-233h-235zM1174 2427h-213l-429 408h270z" />
    <glyph glyph-name="udieresisgrave" unicode="&#x1dc;" horiz-adv-x="1493" 
d="M1077 1397l231 0.00195312v-1397h-231v243c-48 -74.667 -95.5 -130.834 -142.5 -168.501s-95.333 -65.834 -145 -84.501s-103.167 -28 -160.5 -28c-130 0 -239.833 36.5 -329.5 109.5s-134.5 219.167 -134.5 438.5v887h233v-788c0 -204 27.167 -327.333 81.5 -370
s120.833 -64 199.5 -64c70 0 135.5 20 196.5 60s109.833 96.5 146.5 169.5s55 174.5 55 304.5v688zM350 1523v233h231v-233h-231zM892 1523v233h233v-233h-233zM1057 1883h-213l-428 408h271z" />
    <glyph glyph-name="uni01DD" unicode="&#x1dd;" horiz-adv-x="1473" 
d="M356 1037l-231 0.000976562v12c0 61.333 24.333 124.166 73 188.499s113.5 113.333 194.5 147s173.833 50.5 278.5 50.5c213.333 0 377.5 -69 492.5 -207s172.5 -312.333 172.5 -523c0 -214 -60.833 -391.667 -182.5 -533s-279.167 -212 -472.5 -212
c-106 0 -201.833 23 -287.5 69s-153.5 117.333 -203.5 214s-75 232 -75 406v76h992c0 150 -40.5 273.333 -121.5 370s-192.5 145 -334.5 145c-102 0 -176.667 -19.833 -224 -59.5s-71 -83.5 -71 -131.5v-12zM1091 551.001h-753.001v-27c0 -65.333 15.667 -128.5 47 -189.5
s74.5 -106.167 129.5 -135.5s118.5 -44 190.5 -44c87.333 0 167.833 34.5 241.5 103.5s121.834 166.5 144.501 292.5z" />
    <glyph glyph-name="Adieresismacron" unicode="&#x1de;" horiz-adv-x="1861" 
d="M273 0h-235l796 1939h255l734 -1939h-274l-201 535h-856zM569 727h705l-340 903zM543 2068v233h233v-233h-233zM1085 2068v233h233v-233h-233zM581 2427v155h699v-155h-699z" />
    <glyph glyph-name="adieresismacron" unicode="&#x1df;" horiz-adv-x="1417" 
d="M1045 0c-24 75.333 -36 139.665 -36 192.998c-102 -100.667 -188.833 -164.334 -260.5 -191.001s-140.834 -40 -207.501 -40c-110 0 -204.833 33.833 -284.5 101.5s-119.5 161.167 -119.5 280.5c0 135.333 55.833 239.5 167.5 312.5s304.834 136.167 579.501 189.5
l125 24v157c0 85.333 -28.833 145.5 -86.5 180.5s-126.834 52.5 -207.501 52.5c-96 0 -171.167 -21.167 -225.5 -63.5s-81.5 -92.166 -81.5 -149.499v-20h-253v20c0 61.333 26 124.833 78 190.5s121.333 115.334 208 149.001s180.667 50.5 282 50.5
c102 0 194.5 -16.167 277.5 -48.5s144 -75.166 183 -128.499s58.5 -154 58.5 -302v-542c0 -60 1.33301 -122.5 4 -187.5s17.334 -141.167 44.001 -228.5h-245zM1009 704.999l-70.998 -18.001c-235.333 -57.333 -385.833 -111.833 -451.5 -163.5
s-98.5 -112.834 -98.5 -183.501c0 -38 9.66699 -72.667 29 -104s48.166 -55.666 86.499 -72.999s76.166 -26 113.499 -26c65.333 0 129.5 18.667 192.5 56s112 87.833 147 151.5s52.5 137.834 52.5 222.501v138zM326.002 1563v233h231v-233h-231zM868.002 1563v233h233v-233
h-233zM364.002 1923v157h699v-157h-699z" />
    <glyph glyph-name="Adotmacron" unicode="&#x1e0;" horiz-adv-x="1861" 
d="M273 0h-235l796 1939h255l734 -1939h-274l-201 535h-856zM569 727h705l-340 903zM814 2068v233h233v-233h-233zM581 2427v155h699v-155h-699z" />
    <glyph glyph-name="adotmacron" unicode="&#x1e1;" horiz-adv-x="1417" 
d="M1045 0c-24 75.333 -36 139.665 -36 192.998c-102 -100.667 -188.833 -164.334 -260.5 -191.001s-140.834 -40 -207.501 -40c-110 0 -204.833 33.833 -284.5 101.5s-119.5 161.167 -119.5 280.5c0 135.333 55.833 239.5 167.5 312.5s304.834 136.167 579.501 189.5
l125 24v157c0 85.333 -28.833 145.5 -86.5 180.5s-126.834 52.5 -207.501 52.5c-96 0 -171.167 -21.167 -225.5 -63.5s-81.5 -92.166 -81.5 -149.499v-20h-253v20c0 61.333 26 124.833 78 190.5s121.333 115.334 208 149.001s180.667 50.5 282 50.5
c102 0 194.5 -16.167 277.5 -48.5s144 -75.166 183 -128.499s58.5 -154 58.5 -302v-542c0 -60 1.33301 -122.5 4 -187.5s17.334 -141.167 44.001 -228.5h-245zM1009 704.999l-70.998 -18.001c-235.333 -57.333 -385.833 -111.833 -451.5 -163.5
s-98.5 -112.834 -98.5 -183.501c0 -38 9.66699 -72.667 29 -104s48.166 -55.666 86.499 -72.999s76.166 -26 113.499 -26c65.333 0 129.5 18.667 192.5 56s112 87.833 147 151.5s52.5 137.834 52.5 222.501v138zM597.002 1563v233h231v-233h-231zM364.002 1923v157h699v-157
h-699z" />
    <glyph glyph-name="AEmacron" unicode="&#x1e2;" horiz-adv-x="2540" 
d="M1252 0v535h-645l-350 -535h-257l1252 1939h1095v-213h-844v-611h738v-195h-738v-707h912v-213h-1163zM1252 727v806l-523 -806h523zM1458 2068v154h699v-154h-699z" />
    <glyph glyph-name="aemacron" unicode="&#x1e3;" horiz-adv-x="2377" 
d="M1202 1180c38.667 68 79.8252 118.333 123.492 151s95.834 58.167 156.501 76.5s124.667 27.5 192 27.5c164.667 0 300.334 -54.333 407.001 -163s160 -284.334 160 -527.001v-76h-991l-2 -44c0 -116.667 40.833 -224.167 122.5 -322.5s192.834 -147.5 333.501 -147.5
c107.333 0 183 23 227 69s66 86.667 66 122v14h244v-14c0 -60.667 -25.833 -123.5 -77.5 -188.5s-119.667 -113.833 -204 -146.5s-173.5 -49 -267.5 -49c-103.333 0 -205.166 21.333 -305.499 64s-182.166 131.667 -245.499 267c-84 -121.333 -173.667 -206.833 -269 -256.5
s-198.333 -74.5 -309 -74.5c-131.333 0 -235.166 35.5 -311.499 106.5s-114.5 162.833 -114.5 275.5c0 76 18.667 142.833 56 200.5s102.833 109.334 196.5 155.001s259.834 93.834 498.501 144.501l149 30v58c0 131.333 -29.833 219.166 -89.5 263.499
s-134.5 66.5 -224.5 66.5c-101.333 0 -179.166 -21.5 -233.499 -64.5s-81.5 -93.167 -81.5 -150.5v-20h-251v18c0 62.667 25.333 125.5 76 188.5s119.667 112.333 207 148s179 53.5 275 53.5c91.333 0 180.833 -16.5 268.5 -49.5s160.5 -101.5 218.5 -205.5zM1036.99 707
l-87.001 -22.0039c-192.667 -49.333 -319.167 -89.166 -379.5 -119.499s-104.166 -65.166 -131.499 -104.499s-41 -80.333 -41 -123c0 -67.333 25.5 -117.666 76.5 -150.999s105.167 -50 162.5 -50c64 0 129.5 21.333 196.5 64s117.667 103.834 152 183.501
s51.5 166.5 51.5 260.5v62zM1265.99 843.996h751v30c0 56 -16 116.5 -48 181.5s-76.833 112.333 -134.5 142s-119.167 44.5 -184.5 44.5c-91.333 0 -173.833 -36.833 -247.5 -110.5s-119.167 -169.5 -136.5 -287.5zM837.99 1563v155h699v-155h-699z" />
    <glyph glyph-name="Gcaron" unicode="&#x1e6;" horiz-adv-x="1726" 
d="M1571 88c-206 -97.333 -401.997 -145.999 -587.997 -145.999c-194.667 0 -351.834 38.5 -471.501 115.5s-215.334 187.833 -287.001 332.5s-107.5 330.667 -107.5 558c0 256 33.667 454.667 101 596s162.666 252.166 285.999 332.499s270 120.5 440 120.5
c115.333 0 220.666 -18.333 315.999 -55s171 -92.167 227 -166.5s84 -148.5 84 -222.5v-12h-233v12c0 46 -17.333 88.333 -52 127s-80.167 69 -136.5 91s-120.166 33 -191.499 33c-188.667 0 -332.5 -74 -431.5 -222s-148.5 -351 -148.5 -609
c0 -258.667 50.833 -463 152.5 -613s245.167 -225 430.5 -225c108 0 233.667 26 377 78v553h-436v195h669v-873zM844.003 2323l173 209h195l-292 -406h-154l-292 406h195z" />
    <glyph glyph-name="gcaron" unicode="&#x1e7;" horiz-adv-x="1561" 
d="M1143 295c-46.667 -98.667 -107.834 -172.499 -183.501 -221.499s-165.834 -73.5 -270.501 -73.5c-166 0 -302.833 65.333 -410.5 196s-161.5 301.667 -161.5 513c0 140.667 24 268.667 72 384s115.833 201.166 203.5 257.499s189.834 84.5 306.501 84.5
c88.667 0 167.5 -17.167 236.5 -51.5s138.167 -104.166 207.5 -209.499v223h233v-1142c0 -286.667 -30 -475.834 -90 -567.501s-136 -159.667 -228 -204s-200.333 -66.5 -325 -66.5c-114.667 0 -217.667 17.167 -309 51.5s-160.666 81.333 -207.999 141s-71 121.5 -71 185.5
v22h233v-20c0 -61.333 33.167 -110.833 99.5 -148.5s150.833 -56.5 253.5 -56.5c83.333 0 154.833 14.333 214.5 43s107.5 75.5 143.5 140.5s54 182.167 54 351.5v168zM1143 739.001c0 150.667 -38.166 272.167 -114.499 364.5s-167.833 138.5 -274.5 138.5
c-112.667 0 -206.5 -46.833 -281.5 -140.5s-112.5 -225.167 -112.5 -394.5c0 -106.667 14.667 -200 44 -280s76.166 -140.667 140.499 -182s132.833 -62 205.5 -62c116 0 210.5 51.833 283.5 155.5s109.5 237.167 109.5 400.5zM745.001 1760l175 209h195l-291 -406h-155
l-291 406h193z" />
    <glyph glyph-name="Kcaron" unicode="&#x1e8;" horiz-adv-x="1698" 
d="M436 0h-253v1939h253v-926l810 926h287l-800 -908l925 -1031h-318l-904 1013v-1013zM920 2265l173 211h195l-291 -408h-155l-291 408h194z" />
    <glyph glyph-name="kcaron" unicode="&#x1e9;" horiz-adv-x="1378" 
d="M426 0h-243v2017h243v-1286l621 666h267l-605 -649l629 -748h-291l-621 731v-731zM760 2343l174 209h195l-291 -408h-155l-291 408h193z" />
    <glyph glyph-name="Oogonek" unicode="&#x1ea;" horiz-adv-x="1881" 
d="M347 209c-153.333 178 -229.998 432 -229.998 762c0 328 76.667 581 230 759s351 267 593 267c242.667 0 440.667 -89 594 -267s230 -431 230 -759c0 -330 -76.667 -584 -230 -762c-120.667 -140 -269.334 -225 -446.001 -255l-117 -159
c-46 -62.667 -69 -114.334 -69 -155.001c0 -25.333 11.833 -49.666 35.5 -72.999s62.167 -35 115.5 -35c29.333 0 62.666 8 99.999 24v-121c-54.667 -24 -107.334 -36 -158.001 -36c-78 0 -142.167 20.833 -192.5 62.5s-75.5 94.5 -75.5 158.5c0 100.667 61.667 208 185 322
v1c-229.333 6 -417.666 94.667 -564.999 266zM940.002 137c177.333 0 315.5 76 414.5 228s148.5 354 148.5 606c0 250 -49.5 451.333 -148.5 604s-237.167 229 -414.5 229c-175.333 0 -312.833 -76.333 -412.5 -229s-149.5 -354 -149.5 -604c0 -252 49.833 -454 149.5 -606
s237.167 -228 412.5 -228z" />
    <glyph glyph-name="oogonek" unicode="&#x1eb;" horiz-adv-x="1551" 
d="M309 147c-128 123.333 -192 307.333 -192 552c0 242.667 64.167 426 192.5 550s283.833 186 466.5 186c182 0 337.333 -62 466 -186s193 -307.333 193 -550c0 -244.667 -64.333 -428.667 -193 -552c-92 -88 -197.667 -144.667 -317 -170l-119 -161
c-46 -63.333 -69 -115.333 -69 -156c0 -25.333 11.833 -49.666 35.5 -72.999s62.167 -35 115.5 -35c29.333 0 63 8 101 24v-121c-55.333 -24 -108.333 -36 -159 -36c-78 0 -142 20.833 -192 62.5s-75 94.5 -75 158.5c0 100.667 61.667 208 185 322l1 1
c-171.333 5.33301 -318 66.666 -440 183.999zM776 155c126 0 226.833 49.833 302.5 149.5s113.5 231.167 113.5 394.5c0 162 -37.833 293 -113.5 393s-176.5 150 -302.5 150s-226.833 -50 -302.5 -150s-113.5 -231 -113.5 -393c0 -163.333 37.833 -294.833 113.5 -394.5
s176.5 -149.5 302.5 -149.5z" />
    <glyph glyph-name="Oogonekmacron" unicode="&#x1ec;" horiz-adv-x="1881" 
d="M347 209c-153.333 178 -229.998 432 -229.998 762c0 328 76.667 581 230 759s351 267 593 267c242.667 0 440.667 -89 594 -267s230 -431 230 -759c0 -330 -76.667 -584 -230 -762c-120.667 -140 -269.334 -225 -446.001 -255l-117 -159
c-46 -62.667 -69 -114.334 -69 -155.001c0 -25.333 11.833 -49.666 35.5 -72.999s62.167 -35 115.5 -35c29.333 0 62.666 8 99.999 24v-121c-54.667 -24 -107.334 -36 -158.001 -36c-78 0 -142.167 20.833 -192.5 62.5s-75.5 94.5 -75.5 158.5c0 100.667 61.667 208 185 322
v1c-229.333 6 -417.666 94.667 -564.999 266zM940.002 137c177.333 0 315.5 76 414.5 228s148.5 354 148.5 606c0 250 -49.5 451.333 -148.5 604s-237.167 229 -414.5 229c-175.333 0 -312.833 -76.333 -412.5 -229s-149.5 -354 -149.5 -604c0 -252 49.833 -454 149.5 -606
s237.167 -228 412.5 -228zM591.002 2126v155h699v-155h-699z" />
    <glyph glyph-name="oogonekmacron" unicode="&#x1ed;" horiz-adv-x="1551" 
d="M309 147c-128 123.333 -192 307.333 -192 552c0 242.667 64.167 426 192.5 550s283.833 186 466.5 186c182 0 337.333 -62 466 -186s193 -307.333 193 -550c0 -244.667 -64.333 -428.667 -193 -552c-92 -88 -197.667 -144.667 -317 -170l-119 -161
c-46 -63.333 -69 -115.333 -69 -156c0 -25.333 11.833 -49.666 35.5 -72.999s62.167 -35 115.5 -35c29.333 0 63 8 101 24v-121c-55.333 -24 -108.333 -36 -159 -36c-78 0 -142 20.833 -192 62.5s-75 94.5 -75 158.5c0 100.667 61.667 208 185 322l1 1
c-171.333 5.33301 -318 66.666 -440 183.999zM776 155c126 0 226.833 49.833 302.5 149.5s113.5 231.167 113.5 394.5c0 162 -37.833 293 -113.5 393s-176.5 150 -302.5 150s-226.833 -50 -302.5 -150s-113.5 -231 -113.5 -393c0 -163.333 37.833 -294.833 113.5 -394.5
s176.5 -149.5 302.5 -149.5zM426 1563v155h699v-155h-699z" />
    <glyph glyph-name="jcaron" unicode="&#x1f0;" horiz-adv-x="707" 
d="M281 1397h233.002v-1397c0 -140.667 -16.667 -245.5 -50 -314.5s-87.5 -124.333 -162.5 -166s-156.167 -62.5 -243.5 -62.5c-62.667 0 -130.334 7.66699 -203.001 23v184l51 -6c45.333 -5.33301 81.333 -8 108 -8c79.333 0 143.666 20.167 192.999 60.5
s74 136.833 74 289.5v1397zM386.002 1722l173 209h195l-292 -408h-155l-291 408h195z" />
    <glyph glyph-name="DZ" unicode="&#x1f1;" horiz-adv-x="3295" 
d="M183 0v1939h536c261.333 0 452.333 -35.167 573 -105.5s215.167 -178.166 283.5 -323.499s102.5 -323 102.5 -533c0 -196 -30.833 -365.667 -92.5 -509s-154.5 -257.166 -278.5 -341.499s-307.667 -126.5 -551 -126.5h-573zM436 212.998h297.001
c178.667 0 313.167 26.167 403.5 78.5s159.333 134 207 245s71.5 250.833 71.5 419.5c0 169.333 -21.833 314.5 -65.5 435.5s-110.334 210 -200.001 267s-230.5 85.5 -422.5 85.5h-291v-1531zM3151 232.998v-233h-1260v233l964 1493h-896v213h1174v-213l-959 -1493h977z" />
    <glyph glyph-name="Dz" unicode="&#x1f2;" horiz-adv-x="3232" 
d="M183 0v1939h536c261.333 0 452.333 -35.167 573 -105.5s215.167 -178.166 283.5 -323.499s102.5 -323 102.5 -533c0 -196 -30.833 -365.667 -92.5 -509s-154.5 -257.166 -278.5 -341.499s-307.667 -126.5 -551 -126.5h-573zM436 212.998h297.001
c178.667 0 313.167 26.167 403.5 78.5s159.333 134 207 245s71.5 250.833 71.5 419.5c0 169.333 -21.833 314.5 -65.5 435.5s-110.334 210 -200.001 267s-230.5 85.5 -422.5 85.5h-291v-1531zM3074 192.998v-193h-1135v193l828 1009h-808v195h1085v-195l-814 -1009h844z" />
    <glyph glyph-name="dz" unicode="&#x1f3;" horiz-adv-x="2971" 
d="M1143 2017h233.001v-2017h-233v243c-46.667 -91.333 -92.5 -154.333 -137.5 -189s-95.5 -58.667 -151.5 -72s-111.667 -20 -167 -20c-106 0 -203.167 28.833 -291.5 86.5s-156.833 144 -205.5 259s-73 244.167 -73 387.5c0 212 51.167 388.333 153.5 529
s245.166 211 428.499 211c60.667 0 117 -8.5 169 -25.5s98.5 -42.5 139.5 -76.5s86.167 -94 135.5 -180v864zM1143 699c0 158 -34.166 288 -102.499 390s-163.833 153 -286.5 153c-112.667 0 -206.5 -45.167 -281.5 -135.5s-112.5 -224.833 -112.5 -403.5
c0 -210 36.167 -355.5 108.5 -436.5s165.5 -121.5 279.5 -121.5c73.333 0 142.166 22.333 206.499 67s111.833 111 142.5 199s46 184 46 288zM2821 193v-193h-1135v193l830 1009h-810v195h1085v-195l-814 -1009h844z" />
    <glyph glyph-name="Gacute" unicode="&#x1f4;" horiz-adv-x="1726" 
d="M1571 88c-206 -97.333 -401.997 -145.999 -587.997 -145.999c-194.667 0 -351.834 38.5 -471.501 115.5s-215.334 187.833 -287.001 332.5s-107.5 330.667 -107.5 558c0 256 33.667 454.667 101 596s162.666 252.166 285.999 332.499s270 120.5 440 120.5
c115.333 0 220.666 -18.333 315.999 -55s171 -92.167 227 -166.5s84 -148.5 84 -222.5v-12h-233v12c0 46 -17.333 88.333 -52 127s-80.167 69 -136.5 91s-120.166 33 -191.499 33c-188.667 0 -332.5 -74 -431.5 -222s-148.5 -351 -148.5 -609
c0 -258.667 50.833 -463 152.5 -613s245.167 -225 430.5 -225c108 0 233.667 26 377 78v553h-436v195h669v-873zM524.003 2126l370 406h269l-428 -406h-211z" />
    <glyph glyph-name="gacute" unicode="&#x1f5;" horiz-adv-x="1561" 
d="M1143 295c-46.667 -98.667 -107.834 -172.499 -183.501 -221.499s-165.834 -73.5 -270.501 -73.5c-166 0 -302.833 65.333 -410.5 196s-161.5 301.667 -161.5 513c0 140.667 24 268.667 72 384s115.833 201.166 203.5 257.499s189.834 84.5 306.501 84.5
c88.667 0 167.5 -17.167 236.5 -51.5s138.167 -104.166 207.5 -209.499v223h233v-1142c0 -286.667 -30 -475.834 -90 -567.501s-136 -159.667 -228 -204s-200.333 -66.5 -325 -66.5c-114.667 0 -217.667 17.167 -309 51.5s-160.666 81.333 -207.999 141s-71 121.5 -71 185.5
v22h233v-20c0 -61.333 33.167 -110.833 99.5 -148.5s150.833 -56.5 253.5 -56.5c83.333 0 154.833 14.333 214.5 43s107.5 75.5 143.5 140.5s54 182.167 54 351.5v168zM1143 739.001c0 150.667 -38.166 272.167 -114.499 364.5s-167.833 138.5 -274.5 138.5
c-112.667 0 -206.5 -46.833 -281.5 -140.5s-112.5 -225.167 -112.5 -394.5c0 -106.667 14.667 -200 44 -280s76.166 -140.667 140.499 -182s132.833 -62 205.5 -62c116 0 210.5 51.833 283.5 155.5s109.5 237.167 109.5 400.5zM631.001 1563l370 406h269l-428 -406h-211z
" />
    <glyph glyph-name="Ngrave" unicode="&#x1f8;" horiz-adv-x="1815" 
d="M416 0h-233v1939h251l886 -1378l81 -153l-4 153v1378h233v-1939h-250l-888 1384l-80 157l4 -157v-1384zM1226 2068h-213l-426 408h269z" />
    <glyph glyph-name="ngrave" unicode="&#x1f9;" horiz-adv-x="1493" 
d="M416 0l-232.996 0.00195312v1397h233v-242c49.333 75.333 97.166 131.333 143.499 168s94.666 64.5 144.999 83.5s106.166 28.5 167.499 28.5c88.667 0 167.5 -17.833 236.5 -53.5s122.833 -88.334 161.5 -158.001s58 -181.5 58 -335.5v-888h-233v790
c0 124.667 -8.33301 213 -25 265s-49.167 92.833 -97.5 122.5s-100.5 44.5 -156.5 44.5c-68.667 0 -133.834 -20.167 -195.501 -60.5s-111.167 -96.333 -148.5 -168s-56 -173.834 -56 -306.501v-687zM1075 1563h-213l-428 406h271z" />
    <glyph glyph-name="Aringacute" unicode="&#x1fa;" horiz-adv-x="1861" 
d="M273 0h-235l796 1939h255l734 -1939h-274l-201 535h-856zM569 727h705l-340 903zM930 2184c32.667 0 60.334 11.5 83.001 34.5s34 50.5 34 82.5c0 30.667 -11.333 57.334 -34 80c-22.667 22.667 -50.334 34 -83.001 34c-32 0 -59.333 -11.333 -82 -34
s-34 -49.334 -34 -80c0 -32 11.333 -59.5 34 -82.5s50 -34.5 82 -34.5zM930 2068c-65.333 0 -120.5 23.333 -165.5 70s-67.5 101 -67.5 163c0 61.333 22.833 115.166 68.5 161.5c45.667 46.333 100.5 69.5 164.5 69.5c64.667 0 119.667 -23.167 165 -69.5
s68 -100.166 68 -161.5c0 -62 -22.667 -116.333 -68 -163s-100.333 -70 -165 -70zM611 2660l370 408h269l-428 -408h-211z" />
    </font>
</defs>
</svg>
