<?xml version="1.0" encoding="UTF-8" standalone="no"?>
<svg
   xmlns:dc="http://purl.org/dc/elements/1.1/"
   xmlns:cc="http://creativecommons.org/ns#"
   xmlns:rdf="http://www.w3.org/1999/02/22-rdf-syntax-ns#"
   xmlns:svg="http://www.w3.org/2000/svg"
   xmlns="http://www.w3.org/2000/svg"
   height="496"
   width="496"
   id="svg4"
   version="1.1"
   viewBox="0 0 496 496">
  <metadata
     id="metadata10">
    <rdf:RDF>
      <cc:Work
         rdf:about="">
        <dc:format>image/svg+xml</dc:format>
        <dc:type
           rdf:resource="http://purl.org/dc/dcmitype/StillImage" />
        <dc:title></dc:title>
      </cc:Work>
    </rdf:RDF>
  </metadata>
  <defs
     id="defs8" />
  <!-- Font Awesome Free 5.15.3 by @fontawesome - https://fontawesome.com License - https://fontawesome.com/license/free (Icons: CC BY 4.0, Fonts: SIL OFL 1.1, Code: MIT License) -->
  <path
     style="fill:#2d583d;fill-opacity:1"
     id="path2"
     d="M 0,248 C 0,111 111,0 248,0 385,0 496,111 496,248 496,385 385,496 248,496 111,496 0,385 0,248 Z M 292,364 V 248 h 70.9 c 10.7,0 16.1,-13 8.5,-20.5 L 256.5,113.2 c -4.7,-4.7 -12.2,-4.7 -16.9,0 l -115,114.3 c -7.6,7.6 -2.2,20.5 8.5,20.5 H 204 v 116 c 0,6.6 5.4,12 12,12 h 64 c 6.6,0 12,-5.4 12,-12 z" />
</svg>
