<?xml version="1.0" encoding="UTF-8" standalone="no"?>
<svg
   version="1.1"
   width="496.4082"
   height="714.93652"
   id="svg35"
   sodipodi:docname="FF_MapPointer.svg"
   inkscape:version="1.1 (ce6663b3b7, 2021-05-25)"
   xmlns:inkscape="http://www.inkscape.org/namespaces/inkscape"
   xmlns:sodipodi="http://sodipodi.sourceforge.net/DTD/sodipodi-0.dtd"
   xmlns="http://www.w3.org/2000/svg"
   xmlns:svg="http://www.w3.org/2000/svg">
  <defs
     id="defs39">
    <rect
       x="243.24265"
       y="426.30377"
       width="459.08533"
       height="47.731239"
       id="rect52315" />
  </defs>
  <sodipodi:namedview
     id="namedview37"
     pagecolor="#ffffff"
     bordercolor="#666666"
     borderopacity="1.0"
     inkscape:pageshadow="2"
     inkscape:pageopacity="0.0"
     inkscape:pagecheckerboard="0"
     showgrid="false"
     inkscape:snap-global="false"
     inkscape:zoom="0.44723104"
     inkscape:cx="257.64498"
     inkscape:cy="451.86332"
     inkscape:window-width="1848"
     inkscape:window-height="1016"
     inkscape:window-x="72"
     inkscape:window-y="27"
     inkscape:window-maximized="1"
     inkscape:current-layer="svg35"
     fit-margin-top="0"
     fit-margin-left="0"
     fit-margin-right="0"
     fit-margin-bottom="0" />
  <path
     id="rect855"
     style="opacity:0.999;fill:#ffffff;fill-opacity:0.909804;stroke:#0d0d0d;stroke-width:2;stroke-opacity:1"
     d="M 1,1 V 436.46484 H 108.80078 L 248.20313,712.71679 387.60547,436.46484 H 495.40821 V 1 Z" />
  <path
     d="m 199.31285,199.24621 a 2.9932,3.1428 0 0 1 2.9932,3.1428 2.9932,3.1428 0 1 1 -2.9932,-3.1428 z"
     style="fill:#2d583d;fill-rule:evenodd"
     id="path29" />
  <path
     d="m 178.36075,196.35281 a 2.9932,2.8934 0 0 1 2.9932,2.8934 2.9932,2.8934 0 1 1 -2.9932,-2.8934 z"
     style="fill:#2d583d;fill-rule:evenodd"
     id="path27" />
  <path
     d="m 46.980947,134.63301 -0.009,1.5202 v 182.0839 h 34.2551 v -201.3732 z"
     style="fill:#2d583d;fill-rule:evenodd"
     id="path25" />
  <path
     d="m 86.759547,318.23711 h 23.546203 v -96.1849 H 87.956747 v -33.5236 l 22.349003,3.5919 v -4.3899 l -22.049603,-3.8914 v -27.4373 l 22.049603,5.5872 v -3.9908 l -22.249203,-5.6871 v -32.0767 l 26.539403,10.4761 v 97.8266 60.0631 29.9314 h 38.4128 v -96.5745 -106.6616 -65.051498 l 33.7231,23.9454 v 132.497398 81.0148 32.3262 h 4.3899 V 135.25001 77.781312 l 22.7481,17.5599 v 81.413998 l 16.3625,3.1927 v -25.9408 l 45.4961,19.1563 v -4.3899 l -49.886,-20.7527 v 27.138 l -7.1836,-1.5963 -1.1972,-80.615798 -64.2532,-48.6889 -47.8907,29.5326 v 48.688798 l -21.151603,-9.9772 v 183.1815 22.6483 z"
     style="fill:#2d583d;fill-rule:evenodd"
     id="path23" />
  <path
     d="m 294.99945,298.15291 c 4.9928,-1.9537 5.8611,-0.3962 6.5428,1.1658 0.6817,1.562 1.1768,3.1287 0.9597,4.6717 -0.2171,1.5431 -1.1463,3.0626 -1.9157,4.2927 -0.7695,1.2301 -1.3791,2.1708 -1.6839,1.3085 -0.3049,-0.8623 -0.3049,-3.5277 -2.1663,-7.3143"
     style="fill:#e30016;fill-rule:evenodd;stroke:#e30016;stroke-width:0.5669;stroke-linecap:butt;stroke-linejoin:miter;stroke-dasharray:none"
     id="path12" />
  <path
     d="m 259.39885,299.23821 c 8.2489,0 14.1099,0.5427 18.7047,0.7417 4.5948,0.199 7.9234,0.0543 9.66,-0.0905 1.7366,-0.1447 1.8814,-0.2894 1.809,0.1085 -0.0724,0.398 -0.3618,1.3387 -0.1809,2.2432 0.1809,0.9045 0.8321,1.7728 1.2662,2.6773 0.4342,0.9044 0.6513,1.8451 0.5789,2.822 -0.0724,0.9768 -0.4342,1.9899 -0.9769,2.822 -0.5427,0.8321 -1.2663,1.4833 -2.6049,1.8451 -1.3386,0.3618 -3.2923,0.4342 -6.8741,0.398 -3.5818,-0.0361 -8.7916,-0.1808 -12.0478,-0.3617 -3.2561,-0.1809 -4.5585,-0.398 -5.7163,-0.8322 -1.1577,-0.4341 -2.1707,-1.0854 -3.3285,-2.1165 -1.1577,-1.0311 -2.4602,-2.442 -1.8091,-6.5666"
     style="fill:#e30016;fill-rule:evenodd;stroke:#e30016;stroke-width:0.5669;stroke-linecap:butt;stroke-linejoin:miter;stroke-dasharray:none"
     id="path10" />
  <path
     d="m 300.84255,272.12161 c -6.0601,3.8894 -9.8591,4.9747 -13.2419,5.6622 -3.3828,0.6874 -6.3494,0.9768 -10.3292,1.013 -3.9797,0.0362 -8.9725,-0.1809 -13.3502,-0.5065 -4.3778,-0.3256 -8.1404,-0.7598 -10.275,-0.8321 -2.1346,-0.0724 -2.6411,0.217 -3.22,0.9044 -0.5789,0.6874 -1.2301,1.7728 -1.3024,2.7858 -0.0724,1.0131 0.4341,1.9537 1.3386,3.003 0.9045,1.0492 2.2069,2.2069 3.7989,3.3285 1.5919,1.1216 3.4732,2.207 5.6078,2.9306 2.1346,0.7236 4.5224,1.0853 7.3806,1.23 2.8581,0.1447 6.1866,0.0723 8.9725,0.0723 2.7858,0 5.029,0.0724 6.9465,-0.1085 1.9175,-0.1808 3.5094,-0.615 4.6671,-1.5195 1.1577,-0.9045 1.8813,-2.2793 2.1708,-3.6541 0.2894,-1.3748 0.1447,-2.7496 -0.181,-3.7627 -0.3256,-1.013 -0.8321,-1.6643 -0.6511,-2.0984 0.1809,-0.4342 1.0492,-0.6512 1.9537,-0.9768 0.9044,-0.3256 1.8451,-0.7598 3.096,-0.181 1.2509,0.5789 2.8121,2.1708 3.5927,3.618 0.7805,1.4471 0.7805,2.7496 0.7805,3.6179 0,0.8683 0,1.3025 0.4857,0.9045 0.4857,-0.398 1.4571,-1.628 2.496,-3.5455 1.0389,-1.9175 2.1453,-4.5224 1.018,-9.3808"
     style="fill:#e30016;fill-rule:evenodd;stroke:#e30016;stroke-width:0.5669;stroke-linecap:butt;stroke-linejoin:miter;stroke-dasharray:none"
     id="path8" />
  <path
     d="m 298.59745,248.87631 c -5.986,4.1246 -8.1567,4.5587 -10.6169,4.631 -2.4602,0.0724 -5.2098,-0.217 -9.1172,-0.5426 -3.9074,-0.3256 -8.9725,-0.6875 -13.9653,-1.0493 -4.9927,-0.3618 -9.9132,-0.7236 -13.4226,-0.5789 -3.5094,0.1447 -5.6078,0.796 -7.1273,1.592 -1.5195,0.796 -2.4602,1.7366 -2.9667,2.9667 -0.5065,1.2301 -0.5789,2.7496 -0.5789,4.3053 0,1.5557 0.0724,3.1476 0.3256,4.4863 0.2533,1.3386 0.6874,2.424 1.0854,3.1838 0.3979,0.7598 0.7598,1.194 1.0854,1.4834 0.3256,0.2894 0.6151,0.4341 1.809,0.4703 1.1939,0.0361 3.2923,-0.0363 5.246,-0.1086 1.9536,-0.0723 3.7626,-0.1446 5.6439,-0.0361 1.8814,0.1086 3.8351,0.398 6.2386,0.615 2.4035,0.2171 5.2569,0.3618 8.1151,0.5427 2.8582,0.1809 5.7212,0.398 8.3105,0.1448 2.5892,-0.2533 4.9047,-0.9769 6.3157,-2.2793 1.4109,-1.3025 1.9174,-3.1838 2.2792,-4.9566 0.3618,-1.7728 0.5789,-3.4371 0.7598,-4.4501 0.1809,-1.013 0.3256,-1.3748 1.0854,-1.9537 0.7598,-0.5789 2.1346,-1.3748 3.4008,-1.7005 1.2663,-0.3256 2.4241,-0.1808 3.1839,0.181 0.7597,0.3617 1.1216,0.9406 1.1939,1.7004 0.0724,0.7597 -0.1447,1.7004 -0.2532,2.7496 -0.1086,1.0492 -0.1086,2.207 -0.1448,3.0753 -0.0362,0.8683 -0.1085,1.4471 0.2379,1.5557 0.3464,0.1085 1.1116,-0.2533 2.3487,-1.0131 1.2371,-0.7598 2.9461,-1.9175 3.8006,-3.1837 0.8545,-1.2663 0.8545,-2.6412 0.8545,-4.3054 0,-1.6643 0,-3.6179 -1.9957,-5.7887"
     style="fill:#e30016;fill-rule:evenodd;stroke:#e30016;stroke-width:0.5669;stroke-linecap:butt;stroke-linejoin:miter;stroke-dasharray:none"
     id="path6" />
  <path
     d="m 303.46535,220.22221 c 0,0 0.2171,-2.6049 0.2171,-4.5948 0,-1.9899 -0.2171,-3.3647 -0.398,-4.233 -0.1809,-0.8683 -0.3255,-1.2301 -1.1007,-1.5919 -0.7751,-0.3618 -2.1807,-0.7236 -5.5092,-1.3748 -3.3285,-0.6513 -8.58,-1.592 -12.7253,-1.7367 -4.1452,-0.1447 -7.1843,0.5066 -9.0656,1.0855 -1.8813,0.5789 -2.605,1.0854 -4.631,1.7366 -2.0261,0.6512 -5.3546,1.4471 -10.1303,3.0028 -4.7757,1.5557 -10.9985,3.8712 -14.2909,5.2822 -3.2923,1.411 -3.6541,1.9176 -4.6672,3.5818 -1.013,1.6643 -2.6773,4.4863 -3.5094,7.4892 -0.8321,3.0029 -0.8321,6.1867 -0.398,8.3213 0.4342,2.1346 1.3025,3.2199 2.4964,4.0521 1.194,0.8321 2.7136,1.411 6.2592,1.8451 3.5455,0.4342 9.1171,0.7236 12.8436,0.9407 3.7265,0.2171 5.6078,0.3618 7.453,0.5427 1.8451,0.1809 3.6541,0.398 5.4993,0.6875 1.8451,0.2894 3.7265,0.6511 5.7525,0.832 2.0261,0.1809 4.1969,0.1809 5.9697,-0.4703 1.7728,-0.6512 3.1476,-1.9537 3.9073,-3.8712 0.7598,-1.9175 0.9045,-4.4501 1.0493,-6.5485 0.1447,-2.0985 0.2894,-3.7627 0.7959,-4.7395 0.5065,-0.9769 1.3749,-1.2663 2.2432,-1.0492 0.8683,0.2171 1.7366,0.9407 2.424,2.0261 0.6874,1.0853 1.1939,2.5325 1.3747,4.0159 0.1809,1.4833 0.0362,3.0029 0.1809,4.0883 0.1447,1.0854 0.5789,1.7366 1.4111,1.5195 0.8321,-0.2171 2.0623,-1.3025 3.0029,-2.9068 0.9407,-1.6043 1.5919,-3.7275 1.5557,-5.8259 -0.0362,-2.0984 -0.7597,-4.172 -2.3155,-5.4982 -1.5557,-1.3263 -3.9436,-1.9052 -6.0782,-1.9052 -2.1346,0 -4.0159,0.5789 -6.0058,0.7598 -1.9899,0.1809 -4.0882,-0.0362 -6.8379,-0.5065 -2.7496,-0.4703 -6.1504,-1.1939 -9.6237,-1.3748 -3.4732,-0.1809 -7.0188,0.1808 -9.4066,0.5788 -2.3879,0.398 -3.618,0.8322 -4.7758,1.0492 -1.1577,0.2171 -2.2431,0.2171 -2.8582,-0.217 -0.6151,-0.4342 -0.7598,-1.3025 -0.6874,-2.207 0.0723,-0.9045 0.3618,-1.8451 1.1578,-2.6049 0.7959,-0.7597 2.0984,-1.3386 3.5818,-2.026 1.4834,-0.6874 3.1476,-1.4834 5.6078,-1.8453 2.4602,-0.3618 5.7163,-0.2894 8.5745,0.0724 2.8582,0.3618 5.3184,1.0131 7.9956,1.3387 2.6773,0.3257 5.5717,0.3257 8.2128,-0.1628 2.6411,-0.4884 5.0289,-1.4654 10.5807,-1.2483"
     style="fill:#e30016;fill-rule:evenodd;stroke:#e30016;stroke-width:0.5669;stroke-linecap:butt;stroke-linejoin:miter;stroke-dasharray:none"
     id="path4" />
  <path
     d="m 435.01405,233.28371 c -5.644,-1e-4 -13.2417,-1.1039 -19.2113,-1.8005 -5.9696,-0.6966 -10.3111,-0.986 -15.2315,-1.1308 -4.9205,-0.1447 -10.4198,-0.1447 -14.1101,0 -3.6903,0.1448 -5.5716,0.4342 -6.5123,1.592 -0.9407,1.1577 -0.9407,3.1838 -1.013,5.644 -0.0723,2.4602 -0.217,5.3545 -0.5788,7.3082 -0.3618,1.9537 -0.9407,2.9667 -2.0261,3.835 -1.0854,0.8683 -2.6773,1.5919 -3.835,1.9537 -1.1577,0.3618 -1.8813,0.3618 -2.6049,0.2171 -0.7236,-0.1447 -1.4472,-0.4341 -1.2301,-1.8089 0.2171,-1.3748 1.3748,-3.835 1.8089,-6.6509 0.4342,-2.8159 0.1448,-5.9875 -0.2894,-8.9542 -0.4341,-2.9667 -1.013,-5.7286 -2.5326,-8.4844 -1.5195,-2.7558 -3.9797,-5.5054 -6.657,-8.3998 -2.6772,-2.8943 -5.5716,-5.9334 -8.9724,-9.3342 -3.4009,-3.4009 -7.3083,-7.1636 -10.7092,-10.3474 -3.4009,-3.1838 -6.2952,-5.7887 -8.8278,-8.1765 -2.5326,-2.3878 -4.7033,-4.5586 -6.0781,-6.1505 -1.3748,-1.5919 -1.9536,-2.6049 -2.5325,-4.4862 -0.5789,-1.8814 -1.1578,-4.631 -1.7367,-7.1998 -0.5789,-2.5687 -1.1577,-4.9565 -1.9537,-6.7293 -0.7959,-1.7728 -1.8089,-2.9306 -2.5325,-3.5818 -0.7236,-0.6513 -1.1577,-0.796 -1.3025,-1.5919 -0.1447,-0.796 0,-2.2431 0.4341,-3.9074 0.4342,-1.6642 1.1578,-3.5456 1.8091,-5.0651 0.6512,-1.5196 1.2301,-2.6773 0.6512,-3.618 -0.5789,-0.9407 -2.3155,-1.6642 -4.478,-1.8089 -2.1626,-0.1447 -4.751,0.2894 -6.7047,1.6643 -1.9537,1.3748 -3.2727,3.6902 -4.7281,7.1635 -1.4554,3.4732 -3.0473,8.1042 -3.9156,11.9392 -0.8683,3.835 -1.013,6.8741 -0.5789,10.2026 0.4342,3.3285 1.4472,6.9464 2.9606,10.4196 1.5134,3.4733 3.5273,6.8018 5.0468,10.275 1.5196,3.4732 2.5448,7.0912 3.2022,11.3604 0.6573,4.2692 0.9467,9.1896 1.1638,14.3271 0.2171,5.1375 0.3618,10.492 1.6642,15.8465 1.3025,5.3545 3.7627,10.7091 6.8741,14.8336 3.1115,4.1244 6.8741,7.0188 9.3344,9.0449 2.4602,2.0261 3.6179,3.1838 3.9797,4.3415 0.3618,1.1578 -0.0724,2.3155 -1.3748,2.7496 -1.3025,0.4342 -3.4732,0.1448 -5.7163,-0.9406 -2.2432,-1.0853 -4.5587,-2.9667 -6.3677,-4.3415 -1.8089,-1.3748 -3.1114,-2.2431 -4.1244,-2.1708 -1.013,0.0724 -1.7366,1.0854 -3.0452,2.822 -1.3085,1.7366 -3.2021,4.1968 -4.1346,5.8611 -0.9324,1.6642 -0.9037,2.5325 -0.3911,3.6179 0.5127,1.0854 1.5093,2.3878 2.0799,3.835 0.5707,1.4472 0.7154,3.0391 0.7877,4.7034 0.0724,1.6643 0.0724,3.4009 -0.5126,4.9204 -0.585,1.5195 -1.755,2.822 -2.34,3.6903 -0.585,0.8683 -0.585,1.3025 -0.585,1.5919 0,0.2894 0,0.4341 0.6573,2.243 0.6574,1.809 1.972,5.2822 2.4847,8.1766 0.5126,2.8944 0.2232,5.2099 -0.4341,7.3083 -0.6574,2.0984 -1.6826,3.9798 -3.0575,5.4993 -1.3748,1.5195 -3.0992,2.6772 -4.1061,3.2561 -1.0069,0.5788 -1.2963,0.5788 0.0785,0.6512 1.3748,0.0724 4.4139,0.2171 8.6108,0.3618 4.1968,0.1447 9.5514,0.2895 14.7612,0 5.2098,-0.2894 10.275,-1.013 15.4124,-2.026 5.1375,-1.013 10.3473,-2.3155 13.8206,-3.9798 3.4732,-1.6642 5.2098,-3.6902 6.1505,-7.2358 0.9406,-3.5456 1.0854,-8.6108 1.5195,-11.8669 0.4342,-3.2562 1.1578,-4.7034 2.0261,-5.644 0.8683,-0.9406 1.8813,-1.3748 2.822,-1.23 0.9406,0.1447 1.809,0.8683 2.3154,2.2431 0.5065,1.3748 0.6512,3.4008 0.7235,5.2097 0.0724,1.809 0.0724,3.401 0.0724,4.9929 0,1.5919 0,3.1838 -0.1447,3.9074 -0.1447,0.7235 -0.4341,0.5788 1.1578,0.6512 1.5919,0.0723 5.0651,0.3618 9.479,0.5065 4.4139,0.1447 9.7685,0.1447 15.7231,-0.0334 5.9547,-0.1781 12.5094,-0.5344 15.8083,-0.7456 3.2989,-0.2111 3.3419,-0.2771 3.8709,-1.1288 0.5291,-0.8518 1.5442,-2.4893 3.1373,-5.4024 1.5931,-2.9132 3.7644,-7.1018 6.3666,-13.979 2.6021,-6.8772 5.6353,-16.443 7.7,-25.7675 2.0646,-9.3245 3.1608,-18.4077 4.3224,-26.0436"
     style="fill:#e30016;fill-rule:evenodd;stroke:#e30016;stroke-width:0.5669;stroke-linecap:butt;stroke-linejoin:miter;stroke-dasharray:none"
     id="path2" />
  <path
     d="m 46.185547,385.37031 v 4.5 H 447.18229 v -4.5 z"
     style="display:inline;fill:#2d583d;fill-rule:evenodd;stroke-width:1.02189"
     id="path32"
     inkscape:label="DnLine" />
  <path
     id="path88458"
     style="line-height:1.25;font-family:Thonburi;-inkscape-font-specification:Thonburi;display:inline;fill:#e30016;fill-opacity:1"
     d="m 132.59671,344.51125 c -1.97917,2.875 -2.96875,6.57292 -2.96875,11.09375 0,4.52084 0.98958,8.21875 2.96875,11.09375 3.18762,3.52253 6.86776,5.0572 10.64062,4.96678 4.29564,0.002 8.69166,-2.24058 10.64063,-4.96678 1.98959,-2.875 2.98437,-6.57291 2.98437,-11.09375 0,-4.52083 -0.99478,-8.21875 -2.98437,-11.09375 -3.19075,-3.51462 -5.90162,-4.90953 -10.64063,-4.95115 -5.11824,0.0681 -8.68824,2.22874 -10.64062,4.95115 z m -81.906253,-4.0625 v 30.3125 h 5.40625 v -13.79687 h 12.46875 v 13.79687 h 5.40625 v -30.3125 h -5.40625 v 13.5 h -12.46875 v -13.5 z m 37.73437,0 -12.42187,30.3125 h 5.125 l 3.4375,-8.34375 h 11.90625 l 3.14062,8.34375 h 5.734383 l -11.468753,-30.3125 z m 18.921883,0 v 30.3125 h 5.40625 V 358.7925 h 3.75 c 3.36459,0 6.08334,-0.82291 8.15625,-2.46875 2.26042,-1.78125 3.39062,-4.30729 3.39062,-7.57812 0,-3.55208 -1.32812,-5.99479 -3.98437,-7.32813 -1.32291,-0.64583 -3.59375,-0.96875 -6.8125,-0.96875 z m 57.03125,0 V 349.73 c 0,4.33334 -0.38021,7.875 -1.14063,10.625 -0.625,2.32292 -1.71875,4.67708 -3.28125,7.0625 h -2.59375 v 11.82813 h 5.28125 v -8.48438 h 19.01563 v 8.48438 h 5.28125 V 367.4175 h -3.96875 v -26.96875 z m 24.59375,0 v 30.3125 h 5.40625 v -13.79687 h 12.46875 v 13.79687 h 5.40625 v -30.3125 h -5.40625 v 13.5 h -12.46875 v -13.5 z m 37.73437,0 -12.42187,30.3125 h 3.65625 1.46875 l 3.4375,-8.34375 h 11.90625 l 3.14062,8.34375 h 5.73438 5.76562 l 10.125,-12.82812 h 1.875 v 12.82812 h 5.40625 v -30.3125 h -12.57812 c -2.69791,0 -4.82813,0.63022 -6.39063,1.89063 -1.71875,1.39583 -2.57812,3.45312 -2.57812,6.17187 0,2.39584 0.80729,4.46875 2.42187,6.21875 1.55208,1.66667 3.50521,2.6875 5.85938,3.0625 l -10.0957,12.46875 -11.2793,-29.8125 z m 57.65625,0 v 30.3125 h 4.8125 l -0.0215,-19.0664 6.02148,14.51953 h 5.4375 l 6.09375,-15.06641 -0.0781,19.61328 h 4.96875 v -30.3125 h -5.29688 l -8.38281,20.02539 -8.22656,-20.02539 z m 31.53125,0 v 30.3125 h 19.65625 v -3.34375 h -14.25 v -11.04687 h 11.51563 v -3.03125 h -11.51563 v -9.54688 h 13.1875 v -3.34375 z m 23.125,0 v 30.3125 h 10.96875 c 0,0 5.47917,-0.33333 6.8125,-1 2.65626,-1.3125 3.98438,-3.79166 3.98438,-7.4375 0,-3.26042 -1.16667,-5.76562 -3.5,-7.51562 -2.09375,-1.59375 -4.83854,-2.39063 -8.23438,-2.39063 h -1.46875 -3.14062 v -8.625 h 14.23437 v -3.34375 z m 25.35938,0 v 30.3125 h 19.65625 v -3.34375 h -14.25 v -11.04687 h 11.51562 v -3.03125 h -11.51562 v -9.54688 h 13.1875 v -3.34375 z m 27.1875,0 v 18.9375 c 0,2.41667 -0.21354,4.23438 -0.64063,5.45313 -0.63941,1.8148 -1.77666,2.99598 -3.43554,2.98437 -1.22489,-0.009 -1.66791,-0.16671 -2.85153,-0.36842 l -0.0567,3.18092 c 1.76628,0.25402 2.92192,0.33688 4.4375,0.35938 5.29167,0 7.9375,-3.84375 7.9375,-11.53125 V 343.7925 h 8.32813 v 26.96875 h 5.40625 v -30.3125 z m 23.42187,0 v 30.3125 c 3.375,0 6.75,0 10.125,0 3.20834,0 5.47917,-0.33333 6.8125,-1 2.65626,-1.3125 3.98438,-3.74478 3.98438,-7.29687 0,-3.27083 -1.13542,-5.79688 -3.40625,-7.57813 -2.0625,-1.64583 -4.77604,-2.46875 -8.14063,-2.46875 h -1.46875 -2.5 v -11.96875 z m -271.74804,2.15821 c 2.74573,0.21949 4.82476,1.68473 6.23242,4.40429 1.21875,2.3125 1.82812,5.17709 1.82812,8.59375 0,3.42708 -0.60937,6.29688 -1.82812,8.60938 -1.40767,2.71001 -3.48667,4.16996 -6.23242,4.38867 -2.72913,-0.2198 -4.8097,-1.68509 -6.23633,-4.4043 -1.20833,-2.32292 -1.8125,-5.1875 -1.8125,-8.59375 0,-3.41666 0.60417,-6.28125 1.8125,-8.59375 1.42662,-2.71918 3.50722,-4.18448 6.23633,-4.40429 z m -30.48633,0.88867 h 3.10937 c 2.15625,0 3.75,0.35937 4.78125,1.07812 1.23958,0.85417 1.85938,2.30209 1.85938,4.34375 0,2.55208 -0.8125,4.375 -2.4375,5.46875 -2.755,1.26847 -4.63315,1.375 -7.3125,1.375 z m 144.21875,0 h 4.42187 v 11.40625 h -4.125 c -1.94792,0 -3.48958,-0.5 -4.625,-1.5 -1.20833,-1.07291 -1.8125,-2.60938 -1.8125,-4.60938 0,-3.53125 2.04688,-5.29687 6.14063,-5.29687 z m -87.29688,0.29687 h 7.89063 v 23.625 h -11.85938 c 2.64584,-3.90625 3.96875,-10.10417 3.96875,-18.59375 z m -78.978513,3.39258 4.60351,12.20117 h -9.54687 z m 138.281253,0 4.60351,12.20117 h -9.54687 z m 115.46289,8.26367 h 2.04687 c 2.76042,0 4.82813,0.42709 6.20313,1.28125 1.69791,1.07292 2.54687,2.88021 2.54687,5.42188 0,3.71875 -2.21354,5.57812 -6.64062,5.57812 h -4.15625 z m 75.95312,0 c 5.25654,-0.36892 9.90601,1.75404 9.96875,6.82813 0,2.03125 -0.61979,3.48437 -1.85937,4.35937 -1.04167,0.72917 -2.63542,1.09375 -4.78125,1.09375 h -3.32813 z"
     inkscape:label="TextName"
     sodipodi:nodetypes="cscccscccccccccccccccccccccccccccccccsccccsccccccccccccccccccccccccccccccccccccccccccsccccccccccccccccccccccccccccccccccccscsccccccccccccccccccccscscccsccccccccccscsccccccscccscccscscccsccscssccccsccccccccccscsscccccscc" />
</svg>
