<?xml version="1.0" encoding="UTF-8" standalone="no"?>
<svg
   xmlns:dc="http://purl.org/dc/elements/1.1/"
   xmlns:cc="http://creativecommons.org/ns#"
   xmlns:rdf="http://www.w3.org/1999/02/22-rdf-syntax-ns#"
   xmlns:svg="http://www.w3.org/2000/svg"
   xmlns="http://www.w3.org/2000/svg"
   height="448"
   width="512"
   id="svg4"
   version="1.1"
   viewBox="0 0 512 448">
  <metadata
     id="metadata10">
    <rdf:RDF>
      <cc:Work
         rdf:about="">
        <dc:format>image/svg+xml</dc:format>
        <dc:type
           rdf:resource="http://purl.org/dc/dcmitype/StillImage" />
        <dc:title></dc:title>
      </cc:Work>
    </rdf:RDF>
  </metadata>
  <defs
     id="defs8" />
  <!-- Font Awesome Free 5.15.3 by @fontawesome - https://fontawesome.com License - https://fontawesome.com/license/free (Icons: CC BY 4.0, Fonts: SIL OFL 1.1, Code: MIT License) -->
  <path
     style="fill:#e31e35;fill-opacity:1"
     id="path2"
     d="m 32,416 c 0,17.7 14.3,32 32,32 H 224 V 288 H 32 Z m 256,32 h 160 c 17.7,0 32,-14.3 32,-32 V 288 H 288 Z M 480,128 H 437.9 C 444.1,115.9 448,102.5 448,88 448,39.5 408.5,0 360,0 318.4,0 291.5,21.3 257,68.3 222.5,21.3 195.6,0 154,0 105.5,0 66,39.5 66,88 c 0,14.5 3.8,27.9 10.1,40 H 32 C 14.3,128 0,142.3 0,160 v 80 c 0,8.8 7.2,16 16,16 h 480 c 8.8,0 16,-7.2 16,-16 v -80 c 0,-17.7 -14.3,-32 -32,-32 z m -326.1,0 c -22.1,0 -40,-17.9 -40,-40 0,-22.1 17.9,-40 40,-40 19.9,0 34.6,3.3 86.1,80 z m 206.1,0 h -86.1 c 51.4,-76.5 65.7,-80 86.1,-80 22.1,0 40,17.9 40,40 0,22.1 -17.9,40 -40,40 z" />
</svg>
